<?xml version="1.0" encoding="iso-8859-1"?>
<!-- Generator: Adobe Illustrator 17.1.0, SVG Export Plug-In . SVG Version: 6.00 Build 0)  -->
<!DOCTYPE svg PUBLIC "-//W3C//DTD SVG 1.1//EN" "http://www.w3.org/Graphics/SVG/1.1/DTD/svg11.dtd">
<svg version="1.1" id="Capa_1" xmlns="http://www.w3.org/2000/svg" xmlns:xlink="http://www.w3.org/1999/xlink" x="0px" y="0px"
	 viewBox="0 0 200 200" style="enable-background:new 0 0 200 200;" xml:space="preserve">
<path fill="#B5B5C3" d="M107.125,200h-84c-1.381,0-2.5-1.119-2.5-2.5V187h-1.833c-5.238,0-9.5-4.262-9.5-9.5v-146
	c0-8.179,6.654-14.833,14.833-14.833h82c8.179,0,14.833,6.654,14.833,14.833v48h4.25c9.512,0,17.25,7.738,17.25,17.25v60.271
	c0,4.49,3.652,8.143,8.143,8.143h0.216c4.489,0,8.142-3.652,8.142-8.143V51.267c0-6.221,1.794-12.265,5.187-17.479l5.468-8.401
	l16.528-24.293c0.778-1.143,2.332-1.437,3.474-0.661c1.142,0.777,1.438,2.332,0.661,3.474l-12.27,18.031c0.017,0,0.032,0,0.048,0
	c5.928,0,10.75,4.822,10.75,10.75s-4.822,10.75-10.75,10.75c-4.46,0-8.295-2.73-9.92-6.607c-2.733,4.328-4.176,9.311-4.176,14.437
	v105.755c0,7.247-5.896,13.143-13.142,13.143H150.6c-7.247,0-13.143-5.896-13.143-13.143V96.75c0-6.755-5.495-12.25-12.25-12.25
	h-4.25v93c0,5.238-4.262,9.5-9.5,9.5h-1.833v10.5C109.625,198.881,108.506,200,107.125,200z M25.625,195h79v-8h-79V195z
	 M107.125,182h4.333c2.481,0,4.5-2.019,4.5-4.5v-146c0-5.422-4.411-9.833-9.833-9.833h-82c-5.422,0-9.833,4.411-9.833,9.833v146
	c0,2.481,2.019,4.5,4.5,4.5H107.125z M178.054,26.938c-3.171,0-5.75,2.579-5.75,5.75s2.579,5.75,5.75,5.75s5.75-2.579,5.75-5.75
	S181.225,26.938,178.054,26.938z M100.625,81.125H29.958c-4.411,0-8-3.589-8-8v-36c0-4.411,3.589-8,8-8h70.667c4.411,0,8,3.589,8,8
	v36C108.625,77.536,105.036,81.125,100.625,81.125z M29.958,34.125c-1.654,0-3,1.346-3,3v36c0,1.654,1.346,3,3,3h70.667
	c1.654,0,3-1.346,3-3v-36c0-1.654-1.346-3-3-3H29.958z M94.125,68h-9.166c-1.381,0-2.5-1.119-2.5-2.5v-22c0-1.381,1.119-2.5,2.5-2.5
	h9.166c1.381,0,2.5,1.119,2.5,2.5v22C96.625,66.881,95.506,68,94.125,68z M87.459,63h4.166V46h-4.166V63z M77.292,68h-9.167
	c-1.381,0-2.5-1.119-2.5-2.5v-22c0-1.381,1.119-2.5,2.5-2.5h9.167c1.381,0,2.5,1.119,2.5,2.5v22C79.792,66.881,78.673,68,77.292,68z
	 M70.625,63h4.167V46h-4.167V63z M60.209,68c-1.381,0-2.5-1.119-2.5-2.5v-22c0-1.381,1.119-2.5,2.5-2.5s2.5,1.119,2.5,2.5v22
	C62.709,66.881,61.59,68,60.209,68z"/>
<g>
</g>
<g>
</g>
<g>
</g>
<g>
</g>
<g>
</g>
<g>
</g>
<g>
</g>
<g>
</g>
<g>
</g>
<g>
</g>
<g>
</g>
<g>
</g>
<g>
</g>
<g>
</g>
<g>
</g>
</svg>
