<?xml version="1.0" encoding="utf-8"?>
<!-- Generator: Adobe Illustrator 25.2.0, SVG Export Plug-In . SVG Version: 6.00 Build 0)  -->
<svg version="1.1" id="Layer_1" xmlns="http://www.w3.org/2000/svg" xmlns:xlink="http://www.w3.org/1999/xlink" x="0px" y="0px"
	 viewBox="0 0 30 30" style="enable-background:new 0 0 30 30;" xml:space="preserve">
<style type="text/css">
	.st0{fill:#062778;}
	.st1{fill:#FFFFFF;}
</style>
<g>
	<circle class="st0" cx="15" cy="15" r="14.7"/>
</g>
<g>
	<path class="st1" d="M8,16.4c0-0.9,0-1.8,0-2.7c0.1-0.1,0.2-0.2,0.3-0.3c0.3-0.1,0.6-0.2,0.9-0.2c0.2,0,0.4-0.1,0.4-0.4
		c0,0,0-0.1,0.1-0.1c0-0.1,0-0.1,0-0.2c-0.2-0.3-0.4-0.7-0.6-1C9,11.2,9,11.1,9.2,10.9c0.6-0.6,1.1-1.1,1.7-1.7
		C11.1,9,11.2,9,11.5,9.1c0.3,0.2,0.6,0.3,0.8,0.5c0.2,0.1,0.3,0.2,0.5,0c0,0,0.1,0,0.1-0.1c0.1,0,0.1-0.1,0.1-0.1
		c0.1-0.3,0.2-0.7,0.2-1c0-0.2,0.1-0.4,0.3-0.5c0.9,0,1.8,0,2.7,0c0.2,0.1,0.3,0.3,0.3,0.5c0.1,0.3,0.2,0.6,0.2,0.9
		c0,0.2,0.1,0.4,0.3,0.4c0,0,0.1,0,0.1,0.1c0.1,0,0.1,0,0.2,0c0.3-0.2,0.6-0.4,1-0.6C18.7,9,18.9,9,19.1,9.2
		c0.6,0.6,1.1,1.1,1.7,1.7c0.2,0.2,0.2,0.4,0.1,0.6c-0.2,0.3-0.3,0.5-0.5,0.8c-0.1,0.2-0.2,0.4-0.1,0.6c0,0,0,0,0,0.1
		c0,0.1,0.1,0.1,0.2,0.1c0.4,0.1,0.8,0.2,1.1,0.3c0.2,0.1,0.4,0.2,0.4,0.5c0,0.8,0,1.6,0,2.4c0,0.3-0.1,0.4-0.4,0.5
		c-0.3,0.1-0.6,0.2-0.9,0.2c-0.2,0-0.4,0.1-0.5,0.4c0,0,0,0.1-0.1,0.1c0,0.1,0,0.1,0,0.2c0.2,0.3,0.4,0.7,0.6,1
		c0.1,0.2,0.1,0.4-0.1,0.6c-0.6,0.6-1.1,1.1-1.7,1.7c-0.2,0.2-0.4,0.2-0.6,0.1c-0.3-0.2-0.6-0.4-0.9-0.5c-0.1-0.1-0.2-0.1-0.4,0
		c-0.3,0.1-0.4,0.2-0.4,0.5c0,0.3-0.1,0.5-0.2,0.8c0-1,0-2.1,0-3.1c0-0.1,0-0.1,0.1-0.2c1.1-0.6,1.8-1.6,1.9-2.9
		c0.2-1.6-0.7-3.2-2.2-3.8c-0.4-0.2-0.6,0-0.6,0.4c0,0.9,0,1.8,0,2.6c0,0.1,0,0.1-0.1,0.2c-0.2,0.1-0.4,0.3-0.6,0.4
		c-0.1,0-0.1,0-0.2,0c-0.2-0.1-0.4-0.3-0.6-0.4c-0.1,0-0.1-0.1-0.1-0.2c0-0.9,0-1.8,0-2.7c0-0.4-0.3-0.6-0.6-0.4
		c-1.4,0.6-2.2,1.7-2.3,3.2c-0.1,1.5,0.6,2.7,1.9,3.5c0.1,0,0.1,0.1,0.1,0.2c0,1,0,2,0,3c0,0,0,0.1,0,0.1c-0.1-0.2-0.2-0.5-0.2-0.7
		c0-0.3-0.2-0.5-0.5-0.6c0,0,0,0,0,0c-0.1,0-0.1,0-0.2,0c-0.3,0.2-0.7,0.4-1,0.6c-0.2,0.1-0.4,0.1-0.6-0.1c-0.6-0.6-1.1-1.1-1.7-1.7
		C9,18.9,9,18.8,9.1,18.5c0.1-0.2,0.3-0.5,0.4-0.7c0.1-0.1,0.2-0.3,0.2-0.4c0-0.1-0.1-0.3-0.1-0.4c0-0.1-0.1-0.1-0.1-0.1
		c-0.3-0.1-0.6-0.2-1-0.2C8.3,16.6,8.1,16.6,8,16.4z"/>
	<path class="st1" d="M16.6,12.6c0.9,0.6,1.5,1.9,1.1,3.2c-0.3,1.2-1.5,2.1-2.8,2.1c-1.3,0-2.4-0.9-2.8-2.1
		c-0.4-1.3,0.2-2.5,1.1-3.2c0,0.1,0,0.1,0,0.1c0,0.7,0,1.4,0,2.2c0,0.2,0.1,0.3,0.2,0.4c0.4,0.2,0.8,0.5,1.1,0.8
		c0.2,0.1,0.4,0.1,0.6,0c0.4-0.3,0.8-0.5,1.1-0.8c0.2-0.1,0.2-0.3,0.2-0.5C16.6,14.2,16.6,13.4,16.6,12.6z"/>
	<path class="st1" d="M14.2,18.6c0.2,0,0.5,0.1,0.7,0.1c0.3,0,0.5,0,0.8-0.1c0.1,0,0.1,0,0.1,0.1c0,1.1,0,2.1,0,3.2
		c0,0.1,0,0.1-0.1,0.1c-0.5,0-1,0-1.5,0c-0.1,0-0.1,0-0.1-0.1C14.2,20.8,14.2,19.7,14.2,18.6C14.2,18.6,14.2,18.6,14.2,18.6z"/>
</g>
</svg>
