<?xml version="1.0" encoding="utf-8"?>
<!-- Generator: Adobe Illustrator 25.2.0, SVG Export Plug-In . SVG Version: 6.00 Build 0)  -->
<svg version="1.1" id="Layer_1" xmlns="http://www.w3.org/2000/svg" xmlns:xlink="http://www.w3.org/1999/xlink" x="0px" y="0px"
	 viewBox="0 0 30 30" style="enable-background:new 0 0 30 30;" xml:space="preserve">
<style type="text/css">
	.st0{fill:#062778;}
	.st1{fill:#FFFFFF;}
</style>
<g>
	<circle class="st0" cx="15" cy="15" r="14.7"/>
	<g>
		<path class="st1" d="M18.9,5.9h-7.5c-0.9,0-1.6,0.7-1.6,1.6v2.3c0,0-0.1,0-0.1,0c-0.1,0-0.2,0.1-0.2,0.2v0.7
			c0,0.1,0.1,0.2,0.2,0.2c0,0,0.1,0,0.1,0v0.2c0,0-0.1,0-0.1,0c-0.1,0-0.2,0.1-0.2,0.2v1.5c0,0.1,0.1,0.2,0.2,0.2c0,0,0.1,0,0.1,0
			v9.5c0,0.9,0.7,1.6,1.6,1.6h7.5c0.9,0,1.6-0.7,1.6-1.6v-15C20.5,6.6,19.8,5.9,18.9,5.9z M14.1,7.1c0-0.1,0.1-0.2,0.2-0.2H16
			c0.1,0,0.2,0.1,0.2,0.2v0c0,0.1-0.1,0.2-0.2,0.2h-1.7C14.2,7.3,14.1,7.2,14.1,7.1L14.1,7.1z M16.4,23.1c0,0.3-0.3,0.6-0.6,0.6
			h-1.4c-0.3,0-0.6-0.3-0.6-0.6v0c0-0.3,0.3-0.6,0.6-0.6h1.4C16.2,22.5,16.4,22.7,16.4,23.1L16.4,23.1z M19.4,22h-8.5V8h8.5V22z"/>
	</g>
</g>
</svg>
