<?xml version="1.0" encoding="utf-8"?>
<!-- Generator: Adobe Illustrator 16.0.0, SVG Export Plug-In . SVG Version: 6.00 Build 0)  -->
<!DOCTYPE svg PUBLIC "-//W3C//DTD SVG 1.1//EN" "http://www.w3.org/Graphics/SVG/1.1/DTD/svg11.dtd">
<svg version="1.1" id="Layer_1" xmlns="http://www.w3.org/2000/svg" xmlns:xlink="http://www.w3.org/1999/xlink" x="0px" y="0px"
	 width="100px" height="100px" viewBox="0 0 100 100" enable-background="new 0 0 100 100" xml:space="preserve">
<g>
	<path fill="#24201F" d="M86.517,18.007H63.765c0.188-0.693,0.296-1.417,0.296-2.167v-4.768c0-4.616-3.756-8.372-8.371-8.372H44.204
		c-4.616,0-8.372,3.755-8.372,8.372v4.768c0,0.75,0.109,1.475,0.295,2.167H13.482c-1.808,0-3.273,1.465-3.273,3.273
		s1.465,3.273,3.273,3.273h3.855l2.557,58.009C19.936,90.696,26.564,97.3,34.706,97.3h30.588c8.698,0,14.781-7.115,14.812-17.313
		l2.533-55.433h3.878c1.81,0,3.274-1.465,3.274-3.273S88.326,18.007,86.517,18.007z M42.273,11.072c0-1.065,0.866-1.932,1.931-1.932
		h11.485c1.065,0,1.932,0.867,1.932,1.932v4.768c0,1.065-0.866,1.931-1.932,1.931H44.204c-1.065,0-1.931-0.866-1.931-1.931V11.072z
		 M73.669,79.766l-0.003,0.148c0,6.648-3.287,10.946-8.372,10.946H34.706c-4.616,0-8.371-3.756-8.371-8.372l-2.551-57.934h52.411
		L73.669,79.766z"/>
	<path fill="#24201F" d="M35.779,80.59c1.808,0,3.273-1.467,3.273-3.275V40.342c0-1.808-1.465-3.273-3.273-3.273c-1.808,0-3.273,1.465-3.273,3.273
		v36.972C32.506,79.123,33.972,80.59,35.779,80.59z"/>
	<path fill="#24201F" d="M49.947,80.59c1.807,0,3.273-1.467,3.273-3.275V40.342c0-1.808-1.466-3.273-3.273-3.273c-1.809,0-3.273,1.465-3.273,3.273
		v36.972C46.673,79.123,48.138,80.59,49.947,80.59z"/>
	<path fill="#24201F" d="M64.114,80.59c1.807,0,3.272-1.467,3.272-3.275V40.342c0-1.808-1.466-3.273-3.272-3.273c-1.809,0-3.274,1.465-3.274,3.273
		v36.972C60.84,79.123,62.306,80.59,64.114,80.59z"/>
</g>
</svg>
