<?xml version="1.0" encoding="utf-8"?>
<!-- Generator: Adobe Illustrator 16.0.0, SVG Export Plug-In . SVG Version: 6.00 Build 0)  -->
<!DOCTYPE svg PUBLIC "-//W3C//DTD SVG 1.1//EN" "http://www.w3.org/Graphics/SVG/1.1/DTD/svg11.dtd">
<svg version="1.1" id="Layer_1" xmlns="http://www.w3.org/2000/svg" xmlns:xlink="http://www.w3.org/1999/xlink" x="0px" y="0px"
	 width="100px" height="100px" viewBox="0 0 100 100" enable-background="new 0 0 100 100" xml:space="preserve">
<path fill="#A8A8A8" d="M98.422,21.555c0-5.069-1.974-9.834-5.558-13.418c-3.585-3.584-8.35-5.559-13.419-5.559c-5.068,0-9.834,1.974-13.419,5.558
	L12.994,61.171c-0.452,0.451-0.778,1.011-0.95,1.626l-8.33,29.927c-0.359,1.291,0.007,2.675,0.957,3.62
	c0.704,0.7,1.647,1.078,2.613,1.078c0.337,0,0.678-0.047,1.012-0.141l29.927-8.502c0.922-0.262,1.69-0.868,2.167-1.669
	l52.474-52.138C96.448,31.389,98.422,26.623,98.422,21.555z M12.623,88.349l4.906-17.626l12.612,12.65L12.623,88.349z
	 M37.139,79.896L20.967,63.676l43.96-43.96l16.35,16.349L37.139,79.896z M87.628,29.73l-1.105,1.102L70.166,14.476l1.101-1.1
	c2.185-2.185,5.09-3.388,8.179-3.388c3.09,0,5.994,1.203,8.179,3.388c2.186,2.185,3.389,5.089,3.389,8.179
	C91.013,24.645,89.81,27.549,87.628,29.73z"/>
</svg>
