<?xml version="1.0" encoding="utf-8"?>
<!-- Generator: Adobe Illustrator 16.0.0, SVG Export Plug-In . SVG Version: 6.00 Build 0)  -->
<!DOCTYPE svg PUBLIC "-//W3C//DTD SVG 1.1//EN" "http://www.w3.org/Graphics/SVG/1.1/DTD/svg11.dtd">
<svg version="1.1" id="Layer_1" xmlns="http://www.w3.org/2000/svg" xmlns:xlink="http://www.w3.org/1999/xlink" x="0px" y="0px"
	 width="30px" height="30px" viewBox="0 0 30 30" enable-background="new 0 0 30 30" xml:space="preserve">
<g>
	<path fill="#8E8E8E" d="M5.535,26.376h3.668c0,0-2.228-1.932-1.277-4.748c0.949-2.816,0.884-2.096,0.884-2.096l0.065-0.721
		l-0.393-0.196l0.033-0.753c0,0,0.884,0.163,1.048,1.44v1.735c0,0,3.733,0.655,5.01,2.915l1.244-0.066c0,0,2.913-0.687,3.241-3.929
		c0,0,4.912-1.834,5.697-5.207c0,0-3.34,2.292-6.352,1.342l0.72-2.357c0,0-2.259,0.36-2.979,0.262c0,0-1.997-2.62-1.473-4.225
		h-1.933l-0.032-2.292c0,0-0.36-1.638-1.212-1.965c0,0-1.342,0.393-2.194,2.685H8.745l0.065-1.801c0,0-1.245-1.375-5.272-1.31
		c0,0,9.594-9.136,19.68,0.884c0,0,5.043,5.174,2.553,13.491C25.771,19.467,20.205,34.333,5.535,26.376z"/>
	
		<ellipse transform="matrix(0.7456 0.6664 -0.6664 0.7456 13.2458 -5.4238)" fill="#8E8E8E" cx="13.726" cy="14.635" rx="1.376" ry="0.691"/>
</g>
</svg>
