<?xml version="1.0"?>
<svg xmlns="http://www.w3.org/2000/svg" id="Layer_1" data-name="Layer 1" viewBox="0 0 512 512" width="512" height="512"><title>Goods Transport</title><path d="M382.744,333H364.517a19,19,0,0,0,0,38h18.227a19,19,0,0,0,0-38Zm0,24H364.517a5,5,0,0,1,0-10h18.227a5,5,0,0,1,0,10Z"/><path d="M129.256,371h18.227a19,19,0,0,0,0-38H129.256a19,19,0,0,0,0,38Zm0-24h18.227a5,5,0,0,1,0,10H129.256a5,5,0,0,1,0-10Z"/><path d="M100.284,432H112v22.729C112,470.711,124.711,484,140.694,484h.335c12.713,0,23.533-9,27.431-20h5.29c9.859,0,17.25-10.016,17.25-22.9V432H321v9.1c0,12.881,7.391,22.9,17.25,22.9h5.29c3.9,11,14.718,20,27.431,20h.335C387.289,484,400,470.711,400,454.729V432h11.716A26.316,26.316,0,0,0,438,405.713V383.537c0-3.867-3.134-6.537-7-6.537H420.962A29.037,29.037,0,0,0,424,364.253V303.51a6.9,6.9,0,0,0-2.817-5.694C418.337,295.353,398,275.739,384,262.236V253h9.469c9.374,0,16.531-7.967,16.531-17.341V159.944C410,150.57,402.843,143,393.469,143H384V51.677C384,38.779,371.909,28,357.416,28H154.938C140.445,28,129,38.779,129,51.677V143H118.428C109.054,143,101,150.57,101,159.944v75.715A17.684,17.684,0,0,0,118.428,253H129v8.7c-14,13.6-35.352,33.818-38.059,36.191A7.1,7.1,0,0,0,88,303.51v.9c0,.023,0,.045,0,.068s0,.044,0,.067v59.712A29.038,29.038,0,0,0,91.039,377H81c-3.866,0-7,2.67-7,6.537v22.176A26.316,26.316,0,0,0,100.284,432Zm40.745,38h-.335C132.431,470,126,462.992,126,454.729V432h30v22.729A15.237,15.237,0,0,1,141.029,470ZM177,441.1c0,5.981-2.565,8.9-3.25,8.9H170V432h7Zm158,0V432h7v18h-3.75C337.565,450,335,447.084,335,441.1Zm51,13.626c0,8.263-6.431,15.271-14.694,15.271h-.335A15.237,15.237,0,0,1,356,454.729V432h30ZM236,377V362h40v15ZM102,311h88.913C208.32,311,222,325.635,222,343.041V377H114.265C107.492,377,102,371.026,102,364.253Zm188,66V354.669c0-.019,0-.038,0-.058s0-.038,0-.058V343.041C290,325.635,303.673,311,321.08,311H410v53.253c0,6.773-5.491,12.747-12.265,12.747ZM143,153.431a14.4,14.4,0,0,1,.644-2.065A30.244,30.244,0,0,1,173.181,127H339.725a30.492,30.492,0,0,1,29.768,24.366c.091.455.507.921.507,1.336V243.54c0,.669-.328,1.38-.328,2.119s.328,1.45.328,2.118V258H143Zm253,6.513v75.715c0,1.654-.877,3.341-2.531,3.341H384V157h9.469C395.123,157,396,158.29,396,159.944ZM143,51.677C143,46.586,148.279,42,154.938,42H357.416C364.075,42,370,46.586,370,51.677v73.142A45.106,45.106,0,0,0,339.725,113H173.181A43.4,43.4,0,0,0,143,125.342ZM118.428,239A3.7,3.7,0,0,1,115,235.659V159.944c0-1.654,1.774-2.944,3.428-2.944H129v82Zm19.87,33H373.7c3.431,3,10.713,10.057,18.03,17.071,2.934,2.814,5.867,5.929,8.567,7.929H321.08C295.954,297,276,317.915,276,343.041V348H236v-4.959C236,317.915,216.04,297,190.913,297H111.66a104.053,104.053,0,0,0,8.572-7.926C127.561,282.057,134.861,275,138.3,272ZM92.147,297.113a7.064,7.064,0,0,0-.731.372A7.052,7.052,0,0,1,92.147,297.113ZM93.9,296.6c-.134.021-.263.055-.395.084C93.638,296.653,93.762,296.62,93.9,296.6Zm-.929.212c-.162.049-.32.109-.478.169C92.649,296.92,92.8,296.862,92.972,296.81ZM88,391H424v14.713A12.3,12.3,0,0,1,411.716,418H100.284A12.3,12.3,0,0,1,88,405.713Z"/></svg>
