<?xml version="1.0" encoding="utf-8"?>
<!-- Generator: Adobe Illustrator 16.0.0, SVG Export Plug-In . SVG Version: 6.00 Build 0)  -->
<!DOCTYPE svg PUBLIC "-//W3C//DTD SVG 1.1//EN" "http://www.w3.org/Graphics/SVG/1.1/DTD/svg11.dtd">
<svg version="1.1" id="Layer_1" xmlns="http://www.w3.org/2000/svg" xmlns:xlink="http://www.w3.org/1999/xlink" x="0px" y="0px"
	 width="512px" height="512px" viewBox="0 0 512 512" enable-background="new 0 0 512 512" xml:space="preserve">
<path fill="#A8A8A8" d="M483.904,200.405l-40.107-5.099c-3.307-10.176-7.381-19.989-12.139-29.312l24.769-31.893
	c10.026-12.907,8.854-31.125-2.603-42.219l-33.601-33.6c-11.199-11.563-29.418-12.715-42.347-2.709l-31.851,24.768
	c-9.322-4.757-19.136-8.832-29.333-12.139l-5.099-40.042C309.675,12.096,296.043,0,279.894,0h-47.787
	c-16.149,0-29.781,12.096-31.701,28.096l-5.099,40.106c-10.197,3.307-20.011,7.36-29.333,12.139l-31.872-24.768
	c-12.886-10.005-31.104-8.854-42.219,2.603l-33.6,33.579c-11.563,11.221-12.736,29.44-2.709,42.368l24.768,31.872
	c-4.779,9.323-8.832,19.136-12.139,29.312l-40.042,5.099C12.096,202.325,0,215.958,0,232.106v47.787
	c0,16.149,12.096,29.781,28.096,31.701l40.106,5.099c3.307,10.176,7.381,19.989,12.139,29.313l-24.768,31.893
	c-10.026,12.906-8.854,31.126,2.603,42.219l33.6,33.601c11.221,11.541,29.419,12.693,42.347,2.688l31.872-24.768
	c9.323,4.778,19.136,8.853,29.312,12.139l5.099,40.021c1.92,16.107,15.552,28.203,31.701,28.203h47.787
	c16.149,0,29.781-12.096,31.701-28.096l5.099-40.106c10.176-3.308,19.989-7.382,29.313-12.139l31.893,24.768
	c12.907,10.026,31.126,8.854,42.219-2.603l33.601-33.601c11.563-11.221,12.735-29.419,2.709-42.347l-24.768-31.871
	c4.778-9.323,8.853-19.137,12.139-29.313l40.021-5.099c16.064-1.92,28.16-15.552,28.16-31.701v-47.787
	C512,215.958,499.904,202.325,483.904,200.405L483.904,200.405z M256,362.666c-58.816,0-106.667-47.85-106.667-106.666
	c0-58.816,47.851-106.667,106.667-106.667c58.816,0,106.667,47.851,106.667,106.667C362.667,314.816,314.816,362.666,256,362.666
	L256,362.666z"/>
</svg>
