<?xml version="1.0" encoding="utf-8"?>
<!-- Generator: Adobe Illustrator 25.2.0, SVG Export Plug-In . SVG Version: 6.00 Build 0)  -->
<svg version="1.1" id="Layer_1" xmlns="http://www.w3.org/2000/svg" xmlns:xlink="http://www.w3.org/1999/xlink" x="0px" y="0px"
	 viewBox="0 0 50 50" style="enable-background:new 0 0 50 50;" xml:space="preserve">
<style type="text/css">
	.st0{fill:#062778;}
	.st1{fill:#006633;}
	.st2{fill:#00913F;}
	.st3{fill:#0C7238;}
	.st4{fill:#129552;}
	.st5{fill:#19AB65;}
	.st6{fill:#27663F;}
	.st7{fill:#29C17F;}
	.st8{fill:#18482A;}
	.st9{fill:#169054;}
	.st10{fill:#48BD85;}
	.st11{fill:#4C916A;}
	.st12{fill:#17472A;}
	.st13{fill:#0C7F45;}
	.st14{fill:#FBFCFB;}
	.st15{fill:#239B5E;}
	.st16{fill:#FFFFFF;}
	.st17{fill:#F0831C;}
	.st18{opacity:0.1;}
	.st19{fill:#B62FF4;}
	.st20{fill:#6633FF;}
	.st21{fill:#0189D4;}
	.st22{fill:#828282;}
	.st23{fill:#FF3333;}
	.st24{fill:#424953;}
	.st25{opacity:0.2;fill:#424953;}
	.st26{fill:#029342;}
</style>
<g>
	<polygon class="st25" points="7.1,13.8 15.9,13.8 18.6,11.7 19.5,8.3 19.5,1.5 13.3,2.1 8.2,6.4 	"/>
	<rect x="13.5" y="20.7" class="st26" width="5.3" height="21.3"/>
	<g>
		<path class="st24" d="M39.2,0.3H18.3c-6.9,0-12.5,5.6-12.5,12.5v31.8c0,2.8,2.2,5,5,5h28.5c2.8,0,5-2.2,5-5V5.3
			C44.2,2.6,42,0.3,39.2,0.3z M42.5,44.7c0,1.8-1.5,3.3-3.3,3.3H10.8c-1.8,0-3.3-1.5-3.3-3.3V12.9c0-5.9,4.8-10.8,10.8-10.8v7.5
			c0,1.8-1.5,3.3-3.3,3.3h-4.1c-0.5,0-0.9,0.4-0.9,0.9s0.4,0.9,0.9,0.9H15c2.8,0,5-2.2,5-5V2.1h19.2c1.8,0,3.3,1.5,3.3,3.3V44.7z"/>
		<path class="st24" d="M37.6,8.8h-7.2c-0.4,0-0.8-0.4-0.8-0.8V7.8c0-0.4,0.4-0.8,0.8-0.8h7.2c0.4,0,0.8,0.4,0.8,0.8V8
			C38.4,8.5,38,8.8,37.6,8.8z"/>
		<path class="st24" d="M37.6,12.6H23.4c-0.4,0-0.8-0.4-0.8-0.8v-0.3c0-0.4,0.4-0.8,0.8-0.8h14.2c0.4,0,0.8,0.4,0.8,0.8v0.3
			C38.4,12.2,38,12.6,37.6,12.6z"/>
		<path class="st24" d="M36.6,19.5H14.2c-1.2,0-2.2,1-2.2,2.2v19.2c0,1.2,1,2.2,2.2,2.2h22.4c1.2,0,2.2-1,2.2-2.2V21.7
			C38.7,20.5,37.8,19.5,36.6,19.5z M13.7,21.7c0-0.2,0.2-0.4,0.4-0.4h4.4v3.9h-4.8V21.7z M13.7,27h4.8v3.3h-4.8V27z M13.7,32.2h4.8
			v3.3h-4.8V32.2z M13.7,40.8v-3.5h4.8v3.9h-4.4C13.9,41.3,13.7,41.1,13.7,40.8z M37,40.8c0,0.2-0.2,0.4-0.4,0.4H20.4v-3.9H37V40.8z
			 M37,35.5H20.4v-3.3H37V35.5z M37,30.3H20.4V27H37V30.3z M37,25.1H20.4v-3.9h16.2c0.2,0,0.4,0.2,0.4,0.4V25.1z"/>
	</g>
</g>
</svg>
