<?xml version="1.0" encoding="utf-8"?>
<!-- Generator: Adobe Illustrator 25.2.0, SVG Export Plug-In . SVG Version: 6.00 Build 0)  -->
<svg version="1.1" id="Layer_1" xmlns="http://www.w3.org/2000/svg" xmlns:xlink="http://www.w3.org/1999/xlink" x="0px" y="0px"
	 viewBox="0 0 50 50" style="enable-background:new 0 0 50 50;" xml:space="preserve">
<style type="text/css">
	.st0{fill:#062778;}
	.st1{fill:#1BB975;}
	.st2{fill:#20D588;}
	.st3{fill:#36E198;}
	.st4{fill:#1FD588;}
	.st5{fill:#0C7238;}
	.st6{fill:#129552;}
	.st7{fill:#19AB65;}
	.st8{fill:#27663F;}
	.st9{fill:#29C17F;}
	.st10{fill:#18482A;}
	.st11{fill:#169054;}
	.st12{fill:#48BD85;}
	.st13{fill:#4C916A;}
	.st14{fill:#17472A;}
	.st15{fill:#0C7F45;}
	.st16{fill:#FBFCFB;}
	.st17{fill:#239B5E;}
	.st18{fill:#FFFFFF;}
	.st19{fill:#F0831C;}
	.st20{opacity:0.1;}
	.st21{fill:#B62FF4;}
	.st22{fill:#6633FF;}
	.st23{fill:#0189D4;}
	.st24{fill:#828282;}
	.st25{fill:#00913F;}
</style>
<g class="st20">
	<circle class="st22" cx="25" cy="25" r="24.6"/>
</g>
<g>
	<path class="st22" d="M34.6,24.3c-0.5-3.5-2.4-6.1-5.6-7.5c-5.4-2.5-11.8,0.6-13.3,6.4c0,0.1,0,0.2-0.1,0.3c-0.3,1-0.3,2-0.2,3
		c0,1.6,0,3.2,0,4.7c0,0.9,0,1.8,0,2.7c-0.2,0-0.2-0.1-0.3-0.1c-0.5-0.3-1.1-0.6-1.6-0.9c-0.5-0.3-0.7-0.6-0.7-1.2
		c0-0.7,0-1.4,0-2.2c0-0.6,0.2-1,0.8-1.3c0.3-0.1,0.4-0.3,0.4-0.6c0-1.4-0.1-2.9,0.2-4.3c1.1-5.1,5.5-8.7,10.7-8.8
		c5.1-0.1,9.7,3.3,11.1,8.3c0.3,1.2,0.4,2.4,0.4,3.7c0,0.5,0,0.9,0,1.4c0,0.2,0.1,0.3,0.2,0.4c0.1,0.1,0.3,0.2,0.4,0.3
		c0.3,0.2,0.5,0.5,0.5,0.9c0,0.8,0,1.6,0,2.5c0,0.4-0.1,0.7-0.4,0.9c-0.7,0.4-1.4,0.8-2.2,1.3c0-0.2,0-0.4,0-0.6c0-2.2,0-4.4,0-6.5
		c0-0.1,0-0.2,0-0.3C34.7,25.7,34.7,25,34.6,24.3z"/>
	<path class="st22" d="M19.6,27c0.1,0.3,0.1,0.6,0.1,0.9c0,1.9,0,3.8,0,5.7c0,1.2-0.8,2-1.9,2c-1.1,0-1.9-0.8-1.9-2
		c0-1.9,0-3.7,0-5.6c0-0.7,0.1-1.3,0.6-1.8c0.2-0.1,0.3-0.2,0.5-0.3c0.3-0.1,0.6-0.1,0.8-0.2c0.6,0,1.1,0.3,1.5,0.8
		c0.1,0.1,0.1,0.2,0.2,0.3C19.5,26.8,19.6,26.9,19.6,27z"/>
	<path class="st22" d="M33.8,26.5c0.3,0.4,0.4,0.9,0.4,1.4c0,1.9,0,3.9,0,5.8c0,0.9-0.6,1.7-1.5,1.8c-0.9,0.2-1.8-0.3-2.1-1.1
		c-0.1-0.2-0.1-0.5-0.1-0.8c0-2,0-4,0-6c0-0.4,0.1-0.8,0.4-1.2c0.2-0.2,0.4-0.4,0.6-0.5c0.5-0.3,1-0.2,1.6-0.1
		c0,0.1,0.1,0.1,0.1,0.1C33.3,26.1,33.5,26.3,33.8,26.5z"/>
	<path class="st22" d="M20.3,25.8C20.3,25.8,20.3,25.9,20.3,25.8C20.3,25.9,20.3,25.8,20.3,25.8C20.3,25.8,20.3,25.8,20.3,25.8z"/>
</g>
</svg>
