<?xml version="1.0" encoding="utf-8"?>
<!-- Generator: Adobe Illustrator 25.2.0, SVG Export Plug-In . SVG Version: 6.00 Build 0)  -->
<svg version="1.1" id="Layer_1" xmlns="http://www.w3.org/2000/svg" xmlns:xlink="http://www.w3.org/1999/xlink" x="0px" y="0px"
	 viewBox="0 0 50 50" style="enable-background:new 0 0 50 50;" xml:space="preserve">
<style type="text/css">
	.st0{fill:#062778;}
	.st1{fill:#1BB975;}
	.st2{fill:#20D588;}
	.st3{fill:#36E198;}
	.st4{fill:#1FD588;}
	.st5{fill:#0C7238;}
	.st6{fill:#129552;}
	.st7{fill:#19AB65;}
	.st8{fill:#27663F;}
	.st9{fill:#29C17F;}
	.st10{fill:#18482A;}
	.st11{fill:#169054;}
	.st12{fill:#48BD85;}
	.st13{fill:#4C916A;}
	.st14{fill:#17472A;}
	.st15{fill:#0C7F45;}
	.st16{fill:#FBFCFB;}
	.st17{fill:#239B5E;}
	.st18{fill:#FFFFFF;}
	.st19{fill:#F0831C;}
	.st20{fill:#00913F;}
	.st21{opacity:0.1;}
	.st22{fill:#B62FF4;}
	.st23{fill:#6633FF;}
	.st24{fill:#0189D4;}
	.st25{fill:#828282;}
	.st26{fill:#FF3333;}
</style>
<g>
	<path class="st26" d="M46.9,38.5c0,0.5,0,1,0,1.4c-0.1,0.1-0.1,0.3-0.2,0.5c-0.2,0.7-0.5,1.4-1,2c-1.1,1.3-2.5,1.9-4.2,1.9
		c-11,0-22,0-33,0c-0.2,0-0.3,0-0.5,0c-2-0.1-3.8-1.4-4.5-3.4c-0.1-0.3-0.1-0.6-0.3-0.9c0-0.5,0-1.1,0-1.6c0.3-0.6,0.4-1.3,0.8-1.9
		c5.4-9.4,10.8-18.8,16.2-28.1c0.9-1.6,2.3-2.5,4.1-2.6c2.2-0.1,3.8,0.8,4.9,2.7C34,16.6,39,24.7,43.9,32.9
		C45,34.7,46.3,36.3,46.9,38.5z M22,21.3C22,21.3,22,21.3,22,21.3c0,1.7,0,3.5,0,5.2c0,1.4,1.1,2.4,2.4,2.5c1.5,0.1,2.7-1.1,2.7-2.7
		c0-3,0-6,0-9c0-0.4,0-0.8,0-1.2c-0.1-1.5-1.4-2.5-2.9-2.4c-1.3,0.2-2.2,1.2-2.2,2.6C22,17.9,22,19.6,22,21.3z M24.5,39.1
		c1.4,0,2.5-1.1,2.6-2.5c0-1.4-1.1-2.5-2.5-2.6c-1.4,0-2.6,1.2-2.6,2.6C22,38,23.1,39.1,24.5,39.1z"/>
</g>
</svg>
