<?xml version="1.0" encoding="utf-8"?>
<!-- Generator: Adobe Illustrator 25.2.0, SVG Export Plug-In . SVG Version: 6.00 Build 0)  -->
<svg version="1.1" id="Layer_1" xmlns="http://www.w3.org/2000/svg" xmlns:xlink="http://www.w3.org/1999/xlink" x="0px" y="0px"
	 viewBox="0 0 50 50" style="enable-background:new 0 0 50 50;" xml:space="preserve">
<style type="text/css">
	.st0{fill:#062778;}
	.st1{fill:#1BB975;}
	.st2{fill:#20D588;}
	.st3{fill:#36E198;}
	.st4{fill:#1FD588;}
	.st5{fill:#0C7238;}
	.st6{fill:#129552;}
	.st7{fill:#19AB65;}
	.st8{fill:#27663F;}
	.st9{fill:#29C17F;}
	.st10{fill:#18482A;}
	.st11{fill:#169054;}
	.st12{fill:#48BD85;}
	.st13{fill:#4C916A;}
	.st14{fill:#17472A;}
	.st15{fill:#0C7F45;}
	.st16{fill:#FBFCFB;}
	.st17{fill:#239B5E;}
	.st18{fill:#FFFFFF;}
	.st19{fill:#F0831C;}
	.st20{fill:#00913F;}
	.st21{opacity:0.1;}
	.st22{fill:#B62FF4;}
	.st23{fill:#6633FF;}
	.st24{fill:#0189D4;}
	.st25{fill:#828282;}
	.st26{fill:#FF3333;}
</style>
<g>
	<path class="st26" d="M26.5,4.6c0,0.1,0.1,0.1,0.1,0.1c1.1,0.4,1.6,1.1,1.6,2.3c0,8.9,0,17.7,0,26.6c0,0.1,0,0.3,0,0.5
		c0.1-0.1,0.2-0.2,0.3-0.3c2.7-2.7,5.4-5.4,8.1-8.1c0.9-0.9,1.9-1.1,2.8-0.5c0.9,0.6,1.6,1.3,2.2,2.2c0.5,0.8,0.4,1.8-0.2,2.5
		c-0.1,0.1-0.2,0.2-0.3,0.4c-4.8,4.8-9.6,9.6-14.4,14.4c-0.9,0.9-2,1.1-2.9,0.5c-0.2-0.1-0.4-0.3-0.6-0.5
		c-4.8-4.8-9.6-9.6-14.4-14.4c-1.1-1.1-1.1-2.4,0-3.5c0.3-0.3,0.7-0.7,1-1c1.1-1.1,2.3-1.1,3.4,0c2.7,2.8,5.5,5.5,8.2,8.3
		c0.1,0.1,0.1,0.2,0.2,0.3c0.1-0.2,0.1-0.3,0.1-0.4c0-8.8,0-17.7,0-26.5c0-1.3,0.5-2.1,1.7-2.6c0,0,0-0.1,0.1-0.1
		C24.5,4.6,25.5,4.6,26.5,4.6z"/>
</g>
</svg>
