<?xml version="1.0" encoding="utf-8"?>
<!-- Generator: Adobe Illustrator 25.2.0, SVG Export Plug-In . SVG Version: 6.00 Build 0)  -->
<svg version="1.1" id="Layer_1" xmlns="http://www.w3.org/2000/svg" xmlns:xlink="http://www.w3.org/1999/xlink" x="0px" y="0px"
	 viewBox="0 0 50 50" style="enable-background:new 0 0 50 50;" xml:space="preserve">
<style type="text/css">
	.st0{fill:#1BB975;}
	.st1{fill:#20D588;}
	.st2{fill:#36E198;}
	.st3{fill:#1FD588;}
	.st4{fill:#0C7238;}
	.st5{fill:#129552;}
	.st6{fill:#19AB65;}
	.st7{fill:#27663F;}
	.st8{fill:#29C17F;}
	.st9{fill:#18482A;}
	.st10{fill:#169054;}
	.st11{fill:#48BD85;}
	.st12{fill:#4C916A;}
	.st13{fill:#17472A;}
	.st14{fill:#0C7F45;}
	.st15{fill:#FBFCFB;}
	.st16{fill:#239B5E;}
	.st17{fill:#FFFFFF;}
</style>
<g>
	<path class="st17" d="M16.6,29.8h-4.5c-0.7,0-1.3-0.6-1.3-1.3V24c0-0.7,0.6-1.3,1.3-1.3h4.5c0.7,0,1.3,0.6,1.3,1.3v4.5
		C17.9,29.2,17.3,29.8,16.6,29.8z M12.8,27.8h3.1v-3.1h-3.1V27.8z"/>
	<path class="st17" d="M27.2,29.8h-4.5c-0.7,0-1.3-0.6-1.3-1.3V24c0-0.7,0.6-1.3,1.3-1.3h4.5c0.7,0,1.3,0.6,1.3,1.3v4.5
		C28.5,29.2,28,29.8,27.2,29.8z M23.5,27.8h3.1v-3.1h-3.1V27.8z"/>
	<path class="st17" d="M16.6,39.4h-4.5c-0.7,0-1.3-0.6-1.3-1.3v-4.5c0-0.7,0.6-1.3,1.3-1.3h4.5c0.7,0,1.3,0.6,1.3,1.3v4.5
		C17.9,38.8,17.3,39.4,16.6,39.4z M12.8,37.4h3.1v-3.1h-3.1V37.4z"/>
	<path class="st17" d="M27.2,39.4h-4.5c-0.7,0-1.3-0.6-1.3-1.3v-4.5c0-0.7,0.6-1.3,1.3-1.3h4.5c0.7,0,1.3,0.6,1.3,1.3v4.5
		C28.5,38.8,28,39.4,27.2,39.4z M23.5,37.4h3.1v-3.1h-3.1V37.4z"/>
	<path class="st17" d="M37.9,29.8h-4.5c-0.7,0-1.3-0.6-1.3-1.3V24c0-0.7,0.6-1.3,1.3-1.3h4.5c0.7,0,1.3,0.6,1.3,1.3v4.5
		C39.2,29.2,38.6,29.8,37.9,29.8z M34.1,27.8h3.1v-3.1h-3.1V27.8z"/>
	<g>
		<rect x="19.7" y="7.3" class="st17" width="9.3" height="2.8"/>
		<path class="st17" d="M40.1,7.3h-4.8v2.8h4.8c2,0,3.6,1.6,3.6,3.6v3.2H6.3v-3.2c0-2,1.6-3.6,3.6-3.6h3.5V7.3H9.9
			c-3.5,0-6.4,2.9-6.4,6.4v25.6c0,3.5,2.9,6.4,6.4,6.4h30.2c3.5,0,6.4-2.9,6.4-6.4V13.6C46.5,10.1,43.6,7.3,40.1,7.3z M43.7,39.2
			c0,2-1.6,3.6-3.6,3.6H9.9c-2,0-3.6-1.6-3.6-3.6V19.7h37.3V39.2z"/>
	</g>
	<path class="st17" d="M16.5,12.8L16.5,12.8c-0.9,0-1.7-0.8-1.7-1.7v-5c0-0.9,0.8-1.7,1.7-1.7h0c0.9,0,1.7,0.8,1.7,1.7v5
		C18.2,12,17.5,12.8,16.5,12.8z"/>
	<path class="st17" d="M32.1,12.8L32.1,12.8c-0.9,0-1.7-0.8-1.7-1.7v-5c0-0.9,0.8-1.7,1.7-1.7l0,0c0.9,0,1.7,0.8,1.7,1.7v5
		C33.8,12,33,12.8,32.1,12.8z"/>
</g>
</svg>
