<?xml version="1.0" encoding="utf-8"?>
<!-- Generator: Adobe Illustrator 25.2.0, SVG Export Plug-In . SVG Version: 6.00 Build 0)  -->
<svg version="1.1" id="Layer_1" xmlns="http://www.w3.org/2000/svg" xmlns:xlink="http://www.w3.org/1999/xlink" x="0px" y="0px"
	 viewBox="0 0 50 50" style="enable-background:new 0 0 50 50;" xml:space="preserve">
<style type="text/css">
	.st0{fill:#062778;}
	.st1{fill:#1BB975;}
	.st2{fill:#20D588;}
	.st3{fill:#36E198;}
	.st4{fill:#1FD588;}
	.st5{fill:#0C7238;}
	.st6{fill:#129552;}
	.st7{fill:#19AB65;}
	.st8{fill:#27663F;}
	.st9{fill:#29C17F;}
	.st10{fill:#18482A;}
	.st11{fill:#169054;}
	.st12{fill:#48BD85;}
	.st13{fill:#4C916A;}
	.st14{fill:#17472A;}
	.st15{fill:#0C7F45;}
	.st16{fill:#FBFCFB;}
	.st17{fill:#239B5E;}
	.st18{fill:#FFFFFF;}
	.st19{fill:#F0831C;}
	.st20{opacity:0.1;}
	.st21{fill:#0189D4;}
	.st22{fill:#B62FF4;}
	.st23{fill:#00913F;}
</style>
<g class="st20">
	<circle class="st23" cx="25" cy="25" r="24.6"/>
</g>
<g>
	<g>
		<path class="st23" d="M31.8,26.7c-0.5,0-0.9,0-1.4,0c-0.6,0-1.1-0.5-1.2-1.1c-0.1-0.9,0.4-1.4,0.9-1.6c0.1,0,0.3-0.1,0.4-0.1
			c0.9,0,1.8,0,2.6,0c0.6,0,1,0.2,1.2,0.8c0.2,0.5,0.2,1.1-0.2,1.5c-0.3,0.3-0.6,0.4-1,0.4C32.7,26.7,32.2,26.7,31.8,26.7
			C31.8,26.7,31.8,26.7,31.8,26.7z"/>
		<path class="st23" d="M31.8,27.2c0.4,0,0.8,0,1.3,0c0.9,0,1.5,0.7,1.3,1.7c-0.1,0.6-0.6,1-1.2,1c-0.9,0-1.9,0-2.8,0
			c-0.8,0-1.3-0.7-1.2-1.5c0.1-0.8,0.6-1.2,1.4-1.2C30.9,27.2,31.4,27.2,31.8,27.2z"/>
		<path class="st23" d="M33.1,30.5c-0.9,0-1.7,0-2.6,0c-0.8,0-1.3,0.5-1.4,1.3c-0.1,0.7,0.4,1.4,1.2,1.4c0.3,0,0.7,0,1,0
			c0.1,0,0.2,0,0.1,0.1c0,0.2,0,0.4,0,0.6c0,0.2,0,0.2-0.2,0.2c-0.9,0-1.9,0-2.8,0c-2.9,0-5.7,0-8.6,0c-0.1,0-0.2,0-0.2-0.2
			c0-3.8,0-7.5,0-11.3c0-0.1,0-0.2,0.1-0.3c1.2-0.7,2.3-1.6,3.4-2.5c0.3-0.2,0.5-0.5,0.8-0.7c0.3-0.3,0.4-0.6,0.5-1.1
			c0-0.8-0.5-1.3-1.3-1.2c-0.4,0-0.7,0.2-1,0.3c-0.8,0.4-1.6,0.9-2.3,1.3c-0.1,0.1-0.2,0.1-0.2-0.1c0-0.8,0-1.7,0-2.5
			c0-0.2,0-0.2,0.2-0.2c1.9,0,3.8,0,5.7,0c0,0,0,0,0,0c0.4,0,0.8,0,1.1,0c1.5,0,3,0,4.5,0c0.1,0,0.2,0,0.2,0.1c0,1.7,0,3.3,0,5
			c0,0.1,0,0.1-0.1,0.1c-0.3,0-0.5,0-0.8,0c-0.8,0-1.3,0.5-1.4,1.2c-0.1,0.7,0.4,1.4,1.2,1.4c1,0.1,2,0.1,3,0c0.6,0,1-0.4,1.1-0.9
			c0.2-0.6,0-1.2-0.5-1.5c-0.3-0.3-0.7-0.3-1.1-0.3c-0.2,0-0.2,0-0.2-0.2c0-2,0-3.9,0-5.9c0-1-0.7-1.7-1.7-1.7c-3.5,0-7.1,0-10.6,0
			c-0.3,0-0.5,0-0.7,0.2c-0.6,0.3-0.9,0.9-0.9,1.6c0,1.4,0,2.8,0,4.2c0,0.1,0,0.2-0.1,0.3c-1.2,0.7-2.3,1.3-3.5,2
			c-0.5,0.3-1,0.5-1.5,0.9c-0.9,0.6-1.5,1.6-1.8,2.6c-0.5,1.4-0.5,2.9-0.3,4.4c0.1,0.8,0.4,1.5,0.8,2.2c1,1.4,2.4,2.1,4,2.3
			c0.7,0.1,1.5,0,2.2,0c0.1,0,0.2,0,0.2,0.2c0,0.5,0,1,0,1.6c0,0.2,0,0.4,0.1,0.5c0.2,0.8,0.8,1.2,1.7,1.2c3.5,0,7,0,10.5,0
			c0.1,0,0.1,0,0.2,0c0.8-0.1,1.4-0.7,1.5-1.5c0.1-0.7,0-1.4,0-2.1c0-0.3,0-0.3,0.3-0.3c0.3,0,0.6,0,0.8-0.1
			c0.6-0.3,0.9-0.9,0.7-1.6C34.3,30.9,33.8,30.5,33.1,30.5z M23.9,14.1c0.6,0,1.1,0,1.7,0c0.5,0,1.1,0,1.6,0c0.1,0,0.3,0,0.3,0.2
			c0,0.2-0.1,0.2-0.3,0.2c-1.1,0-2.2,0-3.3,0c-0.1,0-0.3,0-0.3-0.2C23.7,14.2,23.8,14.1,23.9,14.1z M26.7,36.2h-2
			c-0.5,0-0.8-0.4-0.8-0.8s0.4-0.8,0.8-0.8h2c0.5,0,0.8,0.4,0.8,0.8S27.2,36.2,26.7,36.2z"/>
	</g>
</g>
</svg>
