<?xml version="1.0" encoding="utf-8"?>
<!-- Generator: Adobe Illustrator 25.2.0, SVG Export Plug-In . SVG Version: 6.00 Build 0)  -->
<svg version="1.1" id="Layer_1" xmlns="http://www.w3.org/2000/svg" xmlns:xlink="http://www.w3.org/1999/xlink" x="0px" y="0px"
	 viewBox="0 0 265 162" style="enable-background:new 0 0 265 162;" xml:space="preserve">
<style type="text/css">
	.st0{fill:#8696BD;}
	.st1{fill:#062778;}
	.st2{fill:#5168A1;}
	.st3{fill:#029342;}
	.st4{fill:#021C47;}
	.st5{opacity:0.2;fill:#FFFFFF;}
	.st6{fill:#FFFFFF;}
</style>
<g>
	<g>
		<path class="st0" d="M57.9,1.2l-9.1,0H17.5C8.6,1.2,1.4,8.4,1.4,17.2V83l2.9-0.5c8.8-4,35.2-16.2,40.1-19.5
			c5.9-4,17.1-5,20.5-22.2c1.1-5.8,0-23.5,0-23.5c0-1.2-0.1-2.4-0.4-3.5"/>
		<path class="st1" d="M232.1,160.8H32.9c-17.3,0-31.4-14.1-31.4-31.4V45.2c0-17.3,14.1-31.4,31.4-31.4h199.3
			c17.3,0,31.4,14.1,31.4,31.4v84.2C263.6,146.7,249.5,160.8,232.1,160.8z"/>
		<path class="st2" d="M263.6,129.4v-72c-1,0.3-1.9,1.7-2.6,4.3c-7.5,28.2-32.9,28.5-22.1,58.1c10.8,29.6-27.1,40.9-27.1,40.9h20.4
			C249.5,160.8,263.6,146.7,263.6,129.4z"/>
		<circle class="st3" cx="215.6" cy="50.2" r="23.6"/>
		<polygon class="st4" points="57.9,1.2 64.4,13.8 76.2,13.8 		"/>
		<path class="st5" d="M57.9,1.2l-9.1,0H17.5C8.6,1.2,1.4,8.4,1.4,17.2V83l2.9-0.5c8.8-4,35.2-16.2,40.1-19.5
			c5.9-4,17.1-5,20.5-22.2c1.1-5.8,0-23.5,0-23.5c0-1.2-0.1-2.4-0.4-3.5"/>
	</g>
	<path class="st6" d="M221.3,37.3h-10.8c-1.3,0-2.4,1.1-2.4,2.4V43c0,0-0.1,0-0.1,0c-0.2,0-0.3,0.1-0.3,0.3v1c0,0.2,0.1,0.3,0.3,0.3
		c0,0,0.1,0,0.1,0v0.3c0,0-0.1,0-0.1,0c-0.2,0-0.3,0.1-0.3,0.3v2.1c0,0.2,0.1,0.3,0.3,0.3c0,0,0.1,0,0.1,0v13.7
		c0,1.3,1.1,2.4,2.4,2.4h10.8c1.3,0,2.4-1.1,2.4-2.4V39.7C223.6,38.4,222.6,37.3,221.3,37.3z M214.3,39.1c0-0.2,0.2-0.3,0.3-0.3h2.5
		c0.2,0,0.3,0.2,0.3,0.3v0c0,0.2-0.2,0.3-0.3,0.3h-2.5C214.4,39.4,214.3,39.3,214.3,39.1L214.3,39.1z M217.7,62.2
		c0,0.5-0.4,0.8-0.8,0.8h-2c-0.5,0-0.8-0.4-0.8-0.8v0c0-0.5,0.4-0.8,0.8-0.8h2C217.3,61.3,217.7,61.7,217.7,62.2L217.7,62.2z
		 M222,60.7h-12.2V40.4H222V60.7z"/>
	<g>
		<path class="st6" d="M211.4,52.6c0-0.1,0-0.1,0-0.2c0.2-0.7,0.7-1.1,1.4-1.2c0.2,0,0.3,0,0.5,0c0.1,0,0.2,0,0.2-0.1
			c1.2-1.2,2.3-2.3,3.5-3.5c0.1-0.1,0.1-0.2,0.1-0.3c-0.2-0.8,0.3-1.6,1.1-1.8c0.1,0,0.2,0,0.3-0.1c0.1,0,0.2,0,0.3,0
			c-0.1,0.1-0.1,0.1-0.2,0.2c-0.2,0.2-0.4,0.4-0.6,0.6c-0.1,0.1-0.1,0.1-0.1,0.2c0.1,0.3,0.2,0.6,0.3,0.9c0,0.1,0.1,0.1,0.1,0.1
			c0.3,0.1,0.6,0.2,0.9,0.3c0.1,0,0.2,0,0.2-0.1c0.2-0.2,0.5-0.5,0.7-0.7c0,0,0,0,0.1-0.1c0,0.4,0,0.7-0.2,1
			c-0.3,0.5-0.8,0.7-1.3,0.7c-0.1,0-0.2,0-0.3,0c-0.1,0-0.2,0-0.2,0.1c-1.2,1.2-2.3,2.3-3.5,3.5c-0.1,0.1-0.1,0.1-0.1,0.2
			c0.2,0.9-0.4,1.7-1.3,1.9c-0.9,0.2-1.7-0.4-1.9-1.3c0,0,0-0.1,0-0.1C211.4,52.8,211.4,52.7,211.4,52.6z M217.5,48.1
			C217.5,48.1,217.5,48.1,217.5,48.1c-1.2,1.2-2.2,2.3-3.3,3.3c0,0-0.1,0.1-0.1,0.2c0,0.1,0.1,0.1,0.1,0.2c0,0.1,0.1,0.1,0.1,0
			c1.1-1.1,2.2-2.2,3.4-3.4c0,0,0,0,0,0c0,0,0,0,0-0.1C217.6,48.2,217.6,48.1,217.5,48.1z M213,53.4c0.1,0,0.2,0,0.3,0
			c0,0,0.1,0,0.1,0c0.1-0.2,0.2-0.4,0.3-0.5c0,0,0-0.1,0-0.1c-0.1-0.2-0.2-0.4-0.3-0.5c0,0,0,0-0.1,0c-0.2,0-0.4,0-0.7,0
			c0,0-0.1,0-0.1,0c-0.1,0.2-0.2,0.4-0.3,0.5c0,0,0,0.1,0,0.1c0.1,0.2,0.2,0.4,0.3,0.5c0,0,0,0,0.1,0
			C212.8,53.4,212.9,53.4,213,53.4z"/>
		<path class="st6" d="M216.5,51.5c-0.1,0-0.2,0-0.3,0.1c0,0-0.1,0-0.1,0c-0.1-0.1-0.1-0.1-0.2-0.2c0,0,0-0.1,0-0.1
			c0.3-0.3,0.5-0.5,0.8-0.8c0.2-0.2,0.3-0.3,0.5-0.5c0,0,0.1,0,0.1,0c0,0,0,0,0,0c0.1,0.1,0.2,0.2,0.1,0.3c-0.1,0.2,0,0.4,0.2,0.5
			c0.2,0.1,0.4,0.1,0.6,0c0.1,0,0.1,0,0.1,0c0.6,0.6,1.1,1.1,1.7,1.7c0.1,0.1,0.1,0.1,0,0.2c-0.4,0.4-0.8,0.8-1.2,1.2
			c0,0.1-0.1,0.1-0.1,0c-0.6-0.6-1.2-1.2-1.7-1.7c0,0,0-0.1,0-0.1c0.1-0.2,0.1-0.3,0-0.5C216.8,51.6,216.7,51.5,216.5,51.5z
			 M219.3,53.1C219.3,53.1,219.3,53.1,219.3,53.1c-0.5-0.5-1-1-1.4-1.4c-0.1-0.1-0.1-0.1-0.2-0.1c-0.1,0-0.1,0.1-0.2,0.1
			c0,0-0.1,0.1,0,0.1c0.5,0.4,0.9,0.9,1.4,1.4c0.1,0.1,0.1,0.1,0.2,0.1C219.2,53.3,219.2,53.2,219.3,53.1
			C219.3,53.2,219.3,53.1,219.3,53.1z"/>
		<path class="st6" d="M220.3,53.1c0.1,0.3,0.1,0.7-0.2,0.9c-0.3,0.3-0.6,0.4-1,0.3C219.4,53.9,219.9,53.5,220.3,53.1z"/>
		<path class="st6" d="M211.9,45.5C212,45.5,212,45.5,211.9,45.5c0.3,0.2,0.6,0.4,0.9,0.5c0,0,0.1,0.1,0.1,0.1
			c0,0.1,0.1,0.3,0.1,0.4c0,0.1,0,0.1,0.1,0.2c0.7,0.7,1.4,1.4,2.2,2.2c0.1,0.1,0.1,0.1,0,0.1c-0.1,0.1-0.2,0.2-0.3,0.3
			c0,0.1-0.1,0-0.1,0c-0.7-0.7-1.4-1.4-2-2.1c-0.2-0.2-0.3-0.2-0.5-0.3c-0.2,0-0.3-0.1-0.4-0.3c-0.1-0.2-0.2-0.4-0.4-0.7
			c0,0,0-0.1,0-0.1C211.7,45.8,211.8,45.7,211.9,45.5C211.9,45.5,211.9,45.5,211.9,45.5z"/>
	</g>
	<circle class="st3" cx="224.9" cy="59.3" r="6"/>
	<g>
		<path class="st6" d="M220.4,60.8c0.4-0.6,0.7-1.2,1.1-1.9c0.2,0.4,0.6,0.7,1,1c0.4,0.3,0.8,0.4,1.3,0.4c0,0,0,0,0,0.1
			c-0.3,0.5-0.6,1-0.9,1.6c0,0.1-0.1,0.2-0.2,0.2c0,0-0.1,0-0.1,0c-0.1,0-0.2-0.1-0.2-0.2c-0.1-0.4-0.2-0.8-0.3-1.2
			c0-0.1,0-0.1-0.1,0c-0.1,0-0.2,0-0.3,0.1c-0.3,0.1-0.6,0.2-1,0.3c-0.1,0-0.2,0-0.3-0.1c0,0,0,0,0,0
			C220.4,60.8,220.4,60.8,220.4,60.8z"/>
		<path class="st6" d="M225.4,62.2c-0.1,0-0.1-0.1-0.2-0.2c-0.3-0.5-0.6-1-0.9-1.5c0,0,0,0,0-0.1c1-0.1,1.7-0.6,2.3-1.4
			c0,0,0,0,0,0.1c0.3,0.6,0.6,1.1,1,1.7c0,0,0,0.1,0.1,0.1c0,0,0,0.1,0,0.1c-0.1,0.2-0.2,0.2-0.4,0.1c-0.4-0.1-0.8-0.2-1.2-0.3
			c-0.1,0-0.1,0-0.1,0c-0.1,0.4-0.2,0.8-0.3,1.2c0,0.1-0.1,0.2-0.2,0.2C225.5,62.2,225.4,62.2,225.4,62.2z"/>
		<path class="st6" d="M224,55c1.4,0,2.5,1.1,2.5,2.5c0,1.4-1.1,2.5-2.5,2.5c-1.4,0-2.5-1.1-2.5-2.5C221.6,56.1,222.7,55,224,55z
			 M223.1,58.3c0,0.2,0.1,0.4,0.4,0.3c0.2-0.1,0.3-0.1,0.5-0.2c0,0,0.1,0,0.1,0c0.2,0.1,0.3,0.1,0.5,0.2c0.2,0.1,0.3,0,0.3-0.2
			c0-0.2,0-0.4,0-0.6c0,0,0-0.1,0-0.1c0.1-0.2,0.2-0.3,0.4-0.5c0.1-0.2,0.1-0.3-0.1-0.4c-0.2,0-0.4-0.1-0.5-0.1c0,0-0.1,0-0.1-0.1
			c-0.1-0.2-0.2-0.3-0.3-0.5c-0.1-0.2-0.3-0.2-0.4,0c-0.1,0.2-0.2,0.3-0.3,0.5c0,0,0,0.1-0.1,0.1c-0.2,0-0.4,0.1-0.5,0.1
			c-0.2,0.1-0.3,0.2-0.1,0.4c0.1,0.2,0.2,0.3,0.4,0.5c0,0,0,0.1,0,0.1C223.1,57.9,223.1,58.1,223.1,58.3z"/>
	</g>
</g>
</svg>
