<?xml version="1.0" encoding="utf-8"?>
<!-- Generator: Adobe Illustrator 25.2.0, SVG Export Plug-In . SVG Version: 6.00 Build 0)  -->
<svg version="1.1" id="Layer_1" xmlns="http://www.w3.org/2000/svg" xmlns:xlink="http://www.w3.org/1999/xlink" x="0px" y="0px"
	 viewBox="0 0 265 162" style="enable-background:new 0 0 265 162;" xml:space="preserve">
<style type="text/css">
	.st0{fill:#8696BD;}
	.st1{fill:#062778;}
	.st2{fill:#5168A1;}
	.st3{fill:#029342;}
	.st4{fill:#021C47;}
	.st5{opacity:0.2;fill:#FFFFFF;}
	.st6{fill:#FFFFFF;}
</style>
<g>
	<g>
		<path class="st0" d="M57.9,1.2l-9.1,0H17.5C8.6,1.2,1.4,8.4,1.4,17.2V83l2.9-0.5c8.8-4,35.2-16.2,40.1-19.5
			c5.9-4,17.1-5,20.5-22.2c1.1-5.8,0-23.5,0-23.5c0-1.2-0.1-2.4-0.4-3.5"/>
		<path class="st1" d="M232.1,160.8H32.9c-17.3,0-31.4-14.1-31.4-31.4V45.2c0-17.3,14.1-31.4,31.4-31.4h199.3
			c17.3,0,31.4,14.1,31.4,31.4v84.2C263.6,146.7,249.5,160.8,232.1,160.8z"/>
		<path class="st2" d="M263.6,129.4v-72c-1,0.3-1.9,1.7-2.6,4.3c-7.5,28.2-32.9,28.5-22.1,58.1c10.8,29.6-27.1,40.9-27.1,40.9h20.4
			C249.5,160.8,263.6,146.7,263.6,129.4z"/>
		<circle class="st3" cx="215.6" cy="50.2" r="23.6"/>
		<polygon class="st4" points="57.9,1.2 64.4,13.8 76.2,13.8 		"/>
		<path class="st5" d="M57.9,1.2l-9.1,0H17.5C8.6,1.2,1.4,8.4,1.4,17.2V83l2.9-0.5c8.8-4,35.2-16.2,40.1-19.5
			c5.9-4,17.1-5,20.5-22.2c1.1-5.8,0-23.5,0-23.5c0-1.2-0.1-2.4-0.4-3.5"/>
	</g>
	<path class="st6" d="M221.3,37.3h-10.8c-1.3,0-2.4,1.1-2.4,2.4V43c0,0-0.1,0-0.1,0c-0.2,0-0.3,0.1-0.3,0.3v1c0,0.2,0.1,0.3,0.3,0.3
		c0,0,0.1,0,0.1,0v0.3c0,0-0.1,0-0.1,0c-0.2,0-0.3,0.1-0.3,0.3v2.1c0,0.2,0.1,0.3,0.3,0.3c0,0,0.1,0,0.1,0v13.7
		c0,1.3,1.1,2.4,2.4,2.4h10.8c1.3,0,2.4-1.1,2.4-2.4V39.7C223.6,38.4,222.6,37.3,221.3,37.3z M214.3,39.1c0-0.2,0.2-0.3,0.3-0.3h2.5
		c0.2,0,0.3,0.2,0.3,0.3v0c0,0.2-0.2,0.3-0.3,0.3h-2.5C214.4,39.4,214.3,39.3,214.3,39.1L214.3,39.1z M217.7,62.2
		c0,0.5-0.4,0.8-0.8,0.8h-2c-0.5,0-0.8-0.4-0.8-0.8v0c0-0.5,0.4-0.8,0.8-0.8h2C217.3,61.3,217.7,61.7,217.7,62.2L217.7,62.2z
		 M222,60.7h-12.2V40.4H222V60.7z"/>
	<path class="st6" d="M231,60.2c0,0.3-0.2,0.5-0.5,0.5c-1.1,0.1-1.5,0.6-1.7,1.7c0,0.3-0.3,0.5-0.6,0.5c-0.3,0-0.5-0.2-0.5-0.5
		c-0.1-1.1-0.6-1.6-1.7-1.7c-0.3,0-0.5-0.2-0.5-0.5c0-0.3,0.2-0.5,0.5-0.6c1.1-0.1,1.5-0.6,1.7-1.7c0-0.3,0.3-0.5,0.5-0.5
		c0.3,0,0.5,0.2,0.6,0.5c0.1,1,0.6,1.6,1.7,1.7C230.8,59.7,231,59.9,231,60.2z M228.3,60.8c0.2-0.2,0.4-0.4,0.5-0.6
		c0,0-0.5-0.5-0.5-0.5c-0.2,0.2-0.4,0.3-0.4,0.5C227.8,60.4,228.1,60.6,228.3,60.8z"/>
	<path class="st6" d="M205.8,39.9c0,0.2-0.1,0.3-0.3,0.3c-0.7,0.1-0.9,0.3-1,1c0,0.2-0.2,0.3-0.3,0.3c-0.2,0-0.3-0.1-0.3-0.3
		c-0.1-0.7-0.4-0.9-1-1c-0.2,0-0.3-0.1-0.3-0.3c0-0.2,0.1-0.3,0.3-0.3c0.6-0.1,0.9-0.3,1-1c0-0.2,0.2-0.3,0.3-0.3
		c0.2,0,0.3,0.1,0.3,0.3c0.1,0.6,0.4,0.9,1,1C205.7,39.6,205.8,39.7,205.8,39.9z M204.1,40.3c0.1-0.1,0.2-0.2,0.3-0.3
		c0,0-0.3-0.3-0.3-0.3c-0.1,0.1-0.3,0.2-0.3,0.3C203.9,40,204,40.1,204.1,40.3z"/>
</g>
</svg>
