<?xml version="1.0" encoding="utf-8"?>
<!-- Generator: Adobe Illustrator 25.2.0, SVG Export Plug-In . SVG Version: 6.00 Build 0)  -->
<svg version="1.1" id="Layer_1" xmlns="http://www.w3.org/2000/svg" xmlns:xlink="http://www.w3.org/1999/xlink" x="0px" y="0px"
	 viewBox="0 0 50 50" style="enable-background:new 0 0 50 50;" xml:space="preserve">
<style type="text/css">
	.st0{fill:#1BB975;}
	.st1{fill:#20D588;}
	.st2{fill:#36E198;}
	.st3{fill:#1FD588;}
	.st4{fill:#0C7238;}
	.st5{fill:#129552;}
	.st6{fill:#19AB65;}
	.st7{fill:#27663F;}
	.st8{fill:#29C17F;}
	.st9{fill:#18482A;}
	.st10{fill:#169054;}
	.st11{fill:#48BD85;}
	.st12{fill:#4C916A;}
	.st13{fill:#17472A;}
	.st14{fill:#0C7F45;}
	.st15{fill:#FBFCFB;}
	.st16{fill:#239B5E;}
	.st17{fill:#FFFFFF;}
	.st18{fill:#030303;}
	.st19{fill:#010101;}
</style>
<g>
	<g>
		<path class="st4" d="M13.4,35.4c-2.8,0-5.5,0-8.3,0c-1.4,0-2-0.6-2-2.1c0-5.6,0-11.1,0-16.7c0-1.4,0.6-2.1,2-2.1
			c2.8,0,5.5,0,8.3,0c2.7,0,5.5,0,8.2,0c0.9,0,1.6,0.3,2.1,1c0,0,0,0.1,0,0.1c0.1,0.3,0.1,0.6,0.1,0.9c0,2.8,0,5.6,0,8.4
			c0,2.6,0,5.2,0,7.8c0,0.5,0,1.1-0.1,1.6c0,0-0.1,0.1-0.1,0.1c-0.4,0.6-1,0.9-1.8,0.9C19,35.4,16.2,35.4,13.4,35.4z M9.1,19.8
			c1,1.7,1.9,3.2,2.8,4.8c0.2,0.3,0.2,0.5,0,0.7c-1,1.5-1.9,3-2.8,4.5c-0.1,0.1-0.2,0.2-0.1,0.4c0.6,0,1.2,0,1.8,0
			c0.4,0,0.6-0.1,0.8-0.5c0.6-1.2,1.2-2.4,1.9-3.5c0.2,0.1,0.3,0.3,0.3,0.5c0.6,1,1.1,2.1,1.7,3.2c0.1,0.2,0.1,0.4,0.4,0.4
			c0.7,0,1.4,0,2.2,0c-0.1-0.2-0.2-0.4-0.3-0.5c-0.9-1.4-1.8-2.8-2.7-4.2c-0.2-0.3-0.2-0.5,0-0.8c0.9-1.4,1.8-2.8,2.6-4.3
			c0.1-0.1,0.2-0.3,0.2-0.5c-0.6,0-1.1,0-1.7,0c-0.4,0-0.6,0.1-0.8,0.5c-0.6,1.1-1.2,2.2-1.8,3.3c-0.2-0.1-0.3-0.3-0.3-0.5
			c-0.5-1-1-2-1.5-3c-0.1-0.2-0.1-0.4-0.4-0.4C10.6,19.8,9.9,19.8,9.1,19.8z"/>
		<path class="st5" d="M44.5,25c0,2.2,0,4.4,0,6.7c0,0.9,0,1.8,0,2.7c-5.1,0-10.3,0-15.4,0c0-3.1,0-6.3,0-9.4
			C34.2,25,39.4,25,44.5,25z"/>
		<path class="st6" d="M44.5,25c-5.1,0-10.3,0-15.4,0c0,0-0.1,0-0.1,0l0,0c0-3.1,0-6.2,0-9.3c5.2,0,10.4,0,15.6,0
			C44.5,18.8,44.5,21.9,44.5,25z"/>
		<path class="st7" d="M44.5,34.5c0,2.5,0,5,0,7.6c0,0.9-0.7,1.5-1.5,1.6c-0.2,0-0.4,0-0.5,0c-4.4,0-8.7,0-13.1,0
			c-0.1,0-0.3,0-0.4,0c0-3.1,0-6.1,0-9.2C34.2,34.5,39.3,34.5,44.5,34.5z"/>
		<path class="st8" d="M29,6.3c0.2,0,0.4,0,0.6,0c4.3,0,8.6,0,13,0c1.4,0,2,0.7,2,2c0,2.4,0,4.9,0,7.3c-4.9,0-9.8,0-14.8,0
			c-0.6,0-0.7-0.2-0.7-0.7c0-2.6,0-5.3,0-7.9c0-0.2,0.1-0.4-0.1-0.6C29,6.4,29,6.3,29,6.3z"/>
		<path class="st9" d="M29,34.5c0,3.1,0,6.1,0,9.2c-0.2,0-0.3,0-0.5,0c-4.3,0-8.6,0-12.9,0c-0.7,0-1.3-0.1-1.8-0.7
			c-0.3-0.4-0.4-0.8-0.4-1.3c0-2.1,0-4.2,0-6.4c2.8,0,5.6,0,8.4,0c0.8,0,1.4-0.3,1.8-0.9C25.4,34.5,27.2,34.5,29,34.5L29,34.5z"/>
		<path class="st10" d="M29,6.3c0,0,0,0.1,0,0.1c0,3.1,0,6.1,0,9.2c-1.8,0-3.5,0-5.3,0c-0.5-0.7-1.2-1-2.1-1c-2.7,0.1-5.5,0-8.2,0
			c0-2.1,0-4.2,0-6.2c0-1.4,0.7-2.1,2.1-2.1c4.3,0,8.7,0,13,0C28.6,6.3,28.8,6.3,29,6.3z"/>
		<path class="st11" d="M29,15.6c0-3.1,0-6.1,0-9.2c0.2,0.2,0.1,0.4,0.1,0.6c0,2.6,0,5.3,0,7.9c0,0.5,0.1,0.7,0.7,0.7
			c4.9,0,9.8,0,14.8,0c0,0,0,0.1,0,0.1c-5.2,0-10.4,0-15.6,0c0,0,0,0,0,0C29,15.7,29,15.6,29,15.6z"/>
		<path class="st12" d="M44.5,34.5c-5.2,0-10.4,0-15.6,0c0,0,0,0,0,0c0,0,0-0.1,0-0.1l0,0c0,0,0.1,0,0.1,0c5.1,0,10.3,0,15.4,0
			C44.5,34.4,44.5,34.5,44.5,34.5z"/>
		<path class="st13" d="M23.7,34.4c0.1-0.5,0.1-1.1,0.1-1.6c0-2.6,0-5.2,0-7.8c1.7,0,3.4,0,5.2,0c0,0,0,0,0,0c0,3.1,0,6.3,0,9.4
			c0,0,0,0,0,0C27.2,34.4,25.4,34.4,23.7,34.4z"/>
		<path class="st14" d="M29,25c-1.7,0-3.4,0-5.2,0c0-2.8,0-5.6,0-8.4c0-0.3,0-0.6-0.1-0.9c1.8,0,3.5,0,5.3,0c0,0,0,0,0,0
			C29,18.8,29,21.9,29,25z"/>
		<path class="st15" d="M9.1,19.8c0.8,0,1.5,0,2.2,0c0.3,0,0.3,0.2,0.4,0.4c0.5,1,1,2,1.5,3c0.1,0.2,0.1,0.3,0.3,0.5
			c0.6-1.1,1.2-2.2,1.8-3.3c0.2-0.4,0.4-0.5,0.8-0.5c0.5,0,1.1,0,1.7,0c0,0.2-0.1,0.4-0.2,0.5c-0.9,1.4-1.7,2.9-2.6,4.3
			c-0.2,0.3-0.2,0.5,0,0.8c0.9,1.4,1.8,2.8,2.7,4.2c0.1,0.2,0.2,0.3,0.3,0.5c-0.8,0-1.5,0-2.2,0c-0.3,0-0.3-0.2-0.4-0.4
			c-0.6-1.1-1.1-2.1-1.7-3.2c-0.1-0.2-0.1-0.3-0.3-0.5c-0.6,1.2-1.3,2.3-1.9,3.5c-0.2,0.4-0.4,0.5-0.8,0.5c-0.6,0-1.2,0-1.8,0
			C8.8,30,8.9,29.9,9,29.8c0.9-1.5,1.9-3,2.8-4.5c0.2-0.3,0.2-0.5,0-0.7C10.9,23,10,21.5,9.1,19.8z"/>
		<path class="st7" d="M23.7,34.4c1.8,0,3.5,0,5.3,0c0,0,0,0.1,0,0.1c-1.8,0-3.6,0-5.4,0C23.6,34.5,23.6,34.4,23.7,34.4z"/>
		<path class="st12" d="M29,15.7c-1.8,0-3.5,0-5.3,0c0,0,0-0.1,0-0.1c1.8,0,3.5,0,5.3,0C29,15.6,29,15.7,29,15.7z"/>
		<path class="st16" d="M29,34.4c0-3.1,0-6.3,0-9.4c0,0,0.1,0,0.1,0c0,3.1,0,6.3,0,9.4C29.1,34.4,29,34.4,29,34.4z"/>
	</g>
	<g>
		<path class="st17" d="M33.7,39.4c0.1-0.1,0-0.2,0.1-0.3c0.1-0.6,0.4-1.1,0.9-1.5c1.7-1.7,3.4-3.4,5.1-5.1c0.6-0.6,1.4-1,2.2-1.2
			c1.5-0.3,2.9,0.2,4,1.3c0.9,0.9,1.2,2.1,1.1,3.3c-0.1,1-0.5,1.9-1.2,2.6c-1.7,1.7-3.4,3.4-5.1,5.1c-0.3,0.3-0.8,0.2-1-0.1
			c-0.1-0.2-0.1-0.4,0.1-0.6c0-0.1,0.1-0.1,0.1-0.2c1.7-1.7,3.3-3.3,5-5c0.4-0.4,0.6-0.8,0.8-1.3c0.4-1.1,0-2.4-0.8-3.2
			c-0.7-0.6-1.5-0.9-2.4-0.8c-0.7,0.1-1.4,0.4-1.9,0.9c-1.7,1.7-3.4,3.4-5.1,5.1c-1,1-0.6,2.6,0.7,3c0.6,0.2,1.2,0.1,1.8-0.4
			C38,41,38,41,38,41c1.5-1.5,3.1-3.1,4.6-4.6c0.2-0.2,0.3-0.5,0.2-0.8c-0.2-0.3-0.6-0.4-0.9-0.2c-0.1,0-0.1,0.1-0.1,0.1
			c-1,1-2,2-3,3c-0.3,0.3-0.7,0.3-0.9,0c-0.2-0.2-0.2-0.5,0-0.7c0,0,0.1-0.1,0.1-0.1c1-1,2-2,3-3c0.6-0.6,1.5-0.7,2.3-0.3
			c1,0.6,1.1,1.9,0.4,2.8c0,0.1-0.1,0.1-0.2,0.2c-1.5,1.5-3.1,3-4.6,4.6c-0.5,0.5-1.1,0.9-1.9,0.9c-0.9,0.1-1.6-0.1-2.3-0.7
			c-0.6-0.5-0.9-1.1-1-1.9c0,0,0-0.1,0-0.1C33.7,39.8,33.7,39.6,33.7,39.4z"/>
	</g>
</g>
</svg>
