<?xml version="1.0" encoding="utf-8"?>
<!-- Generator: Adobe Illustrator 25.2.0, SVG Export Plug-In . SVG Version: 6.00 Build 0)  -->
<svg version="1.1" id="Layer_1" xmlns="http://www.w3.org/2000/svg" xmlns:xlink="http://www.w3.org/1999/xlink" x="0px" y="0px"
	 viewBox="0 0 50 50" style="enable-background:new 0 0 50 50;" xml:space="preserve">
<style type="text/css">
	.st0{fill:#1BB975;}
	.st1{fill:#20D588;}
	.st2{fill:#36E198;}
	.st3{fill:#1FD588;}
	.st4{fill:#0C7238;}
	.st5{fill:#129552;}
	.st6{fill:#19AB65;}
	.st7{fill:#27663F;}
	.st8{fill:#29C17F;}
	.st9{fill:#18482A;}
	.st10{fill:#169054;}
	.st11{fill:#48BD85;}
	.st12{fill:#4C916A;}
	.st13{fill:#17472A;}
	.st14{fill:#0C7F45;}
	.st15{fill:#FBFCFB;}
	.st16{fill:#239B5E;}
	.st17{fill:#FFFFFF;}
	.st18{fill:#010101;}
</style>
<g>
	<path class="st17" d="M10.1,35c0-2.7,0-5.4,0-8.1c0-0.4-0.1-0.6-0.4-0.7c-1.9-0.9-2.9-2.4-2.9-4.4c0-2.1,1-3.6,2.9-4.5
		c0.4-0.2,0.4-0.4,0.4-0.7c0-3.2,0-6.4,0-9.6c0-1,0.4-1.5,1.1-1.8c0.9-0.3,1.8,0.3,1.9,1.2c0,0.2,0,0.4,0,0.7c0,3.2,0,6.3,0,9.5
		c0,0.3,0.1,0.5,0.4,0.7c1.9,0.9,2.9,2.4,2.9,4.5c0,2.1-1,3.6-2.9,4.5c-0.3,0.2-0.4,0.3-0.4,0.7c0,5.4,0,10.9,0,16.3
		c0,0.9-0.4,1.5-1.1,1.7c-0.9,0.3-1.8-0.2-2-1.2c0-0.2,0-0.4,0-0.7C10.1,40.3,10.1,37.7,10.1,35z M11.7,23.4c1,0,1.8-0.8,1.8-1.8
		c0-1-0.8-1.8-1.8-1.8c-1,0-1.8,0.8-1.8,1.8C9.9,22.6,10.7,23.4,11.7,23.4z"/>
	<path class="st17" d="M36.8,31.6c0-3.8,0-7.7,0-11.5c0-0.3-0.1-0.5-0.4-0.7c-1.9-0.9-2.9-2.4-2.9-4.5c0-2.1,1-3.6,2.9-4.5
		c0.3-0.2,0.4-0.3,0.4-0.7c0-1,0-2,0-3c0-1,0.7-1.8,1.6-1.7c0.9,0,1.5,0.7,1.5,1.7c0,1.1,0,2.1,0,3.2c0,0.3,0.1,0.4,0.3,0.5
		c1.9,0.9,3,2.4,3,4.5c0,2.1-1.1,3.6-3,4.5c-0.4,0.2-0.3,0.4-0.3,0.7c0,7.6,0,15.2,0,22.7c0,0.2,0,0.5,0,0.7
		c-0.1,0.8-0.8,1.3-1.5,1.3c-0.8,0-1.4-0.6-1.5-1.4c0-0.2,0-0.4,0-0.6C36.8,39.2,36.8,35.4,36.8,31.6z M40.1,15c0-1-0.8-1.8-1.8-1.8
		c-1,0-1.8,0.8-1.8,1.8c0,1,0.8,1.8,1.8,1.8C39.3,16.8,40.1,16,40.1,15z"/>
	<path class="st17" d="M26.6,18.3c0,3.9,0,7.7,0,11.6c0,0.3,0.1,0.5,0.4,0.6c1.9,0.9,2.9,2.4,2.9,4.5c0,2.1-1,3.6-2.9,4.5
		c-0.3,0.2-0.4,0.3-0.4,0.7c0,1,0,2,0,3.1c0,1-0.7,1.7-1.6,1.7c-0.9,0-1.5-0.7-1.5-1.7c0-1,0-2.1,0-3.1c0-0.3-0.1-0.5-0.4-0.6
		c-1.9-0.9-2.9-2.4-2.9-4.5c0-2.1,1-3.6,2.9-4.5c0.3-0.2,0.4-0.3,0.4-0.7c0-7.7,0-15.3,0-23c0-0.9,0.4-1.5,1-1.7
		c1-0.4,2.1,0.4,2.1,1.5c0,1.6,0,3.2,0,4.8C26.6,13.8,26.6,16.1,26.6,18.3z M26.8,35c0-1-0.8-1.8-1.8-1.8c-1,0-1.8,0.8-1.7,1.8
		c0,1,0.8,1.8,1.8,1.8C26,36.8,26.8,36,26.8,35z"/>
</g>
</svg>
