<?xml version="1.0" encoding="utf-8"?>
<!-- Generator: Adobe Illustrator 25.2.0, SVG Export Plug-In . SVG Version: 6.00 Build 0)  -->
<svg version="1.1" id="Layer_1" xmlns="http://www.w3.org/2000/svg" xmlns:xlink="http://www.w3.org/1999/xlink" x="0px" y="0px"
	 viewBox="0 0 50 50" style="enable-background:new 0 0 50 50;" xml:space="preserve">
<style type="text/css">
	.st0{fill:#062778;}
	.st1{fill:#1BB975;}
	.st2{fill:#20D588;}
	.st3{fill:#36E198;}
	.st4{fill:#1FD588;}
	.st5{fill:#0C7238;}
	.st6{fill:#129552;}
	.st7{fill:#19AB65;}
	.st8{fill:#27663F;}
	.st9{fill:#29C17F;}
	.st10{fill:#18482A;}
	.st11{fill:#169054;}
	.st12{fill:#48BD85;}
	.st13{fill:#4C916A;}
	.st14{fill:#17472A;}
	.st15{fill:#0C7F45;}
	.st16{fill:#FBFCFB;}
	.st17{fill:#239B5E;}
	.st18{fill:#FFFFFF;}
	.st19{fill:#F0831C;}
	.st20{fill:#00913F;}
	.st21{opacity:0.1;}
	.st22{fill:#B62FF4;}
	.st23{fill:#6633FF;}
	.st24{fill:#0189D4;}
	.st25{fill:#828282;}
</style>
<g>
	<g>
		<path class="st20" d="M1.8,39.1c2.3-4,4.6-7.9,6.9-12c1.6,2.7,3.7,4.8,6.2,6.5c2.6,1.6,5.4,2.6,8.4,2.9c0,0.2-0.1,0.3-0.2,0.4
			c-1.9,3.4-3.9,6.7-5.8,10.1c-0.3,0.5-0.6,1-1.2,1.2c-0.2,0-0.4,0-0.6,0c-0.7-0.3-1-0.8-1.2-1.5c-0.7-2.6-1.4-5.2-2.1-7.8
			c-0.1-0.3-0.2-0.4-0.5-0.3c-0.6,0.2-1.2,0.3-1.7,0.5c-2.1,0.6-4.1,1.1-6.2,1.7c-0.9,0.3-1.4,0-1.9-0.8c0,0-0.1-0.1-0.1-0.1
			C1.8,39.7,1.8,39.4,1.8,39.1z"/>
		<path class="st20" d="M33.8,48.2c-0.6-0.3-0.9-0.8-1.2-1.3c-1.9-3.3-3.8-6.6-5.7-9.9c-0.1-0.1-0.1-0.2-0.2-0.4
			c6.4-0.7,11.3-3.9,14.7-9.3c0.2,0.1,0.2,0.2,0.3,0.4c2.1,3.6,4.1,7.2,6.2,10.8c0.2,0.3,0.3,0.6,0.4,0.9c0,0.2,0,0.4,0,0.6
			c-0.7,1.1-1,1.2-2.3,0.9c-2.5-0.7-5.1-1.4-7.6-2.1c-0.3-0.1-0.4,0-0.5,0.3c-0.7,2.6-1.4,5.1-2,7.7c-0.2,0.7-0.5,1.2-1.2,1.5
			C34.3,48.2,34,48.2,33.8,48.2z"/>
		<path class="st20" d="M25,1.8c8.8,0,16,7.2,16,16c0,8.8-7.3,16-16,15.9C16.2,33.6,9,26.5,9,17.8C9,9,16.2,1.8,25,1.8z M19.1,23
			c-0.3,1.4,0.9,2.5,2.5,1.6c1-0.5,2-0.9,3-1.3c0.3-0.1,0.5-0.1,0.8,0c1.1,0.5,2.2,1,3.3,1.4c1.2,0.5,2.3-0.2,2.2-1.5
			c-0.1-1.3-0.2-2.6-0.3-4c0-0.3,0-0.5,0.2-0.7c0.8-1,1.6-2,2.4-3c0.8-1.1,0.5-2.2-0.8-2.5c-1.2-0.3-2.3-0.6-3.5-0.9
			c-0.3-0.1-0.5-0.2-0.7-0.5c-0.6-1.1-1.3-2.2-1.9-3.2c-0.7-1.2-2-1.1-2.7,0c-0.7,1.1-1.3,2.2-1.9,3.3c-0.1,0.2-0.3,0.4-0.6,0.4
			c-1.2,0.3-2.3,0.6-3.5,0.9c-1.3,0.3-1.7,1.5-0.9,2.5c0.8,1,1.6,2,2.4,3c0.2,0.2,0.2,0.5,0.2,0.7C19.2,20.6,19.2,21.8,19.1,23z"/>
	</g>
</g>
</svg>
