<?xml version="1.0" encoding="utf-8"?>
<!-- Generator: Adobe Illustrator 25.2.0, SVG Export Plug-In . SVG Version: 6.00 Build 0)  -->
<svg version="1.1" id="Layer_1" xmlns="http://www.w3.org/2000/svg" xmlns:xlink="http://www.w3.org/1999/xlink" x="0px" y="0px"
	 viewBox="0 0 50 50" style="enable-background:new 0 0 50 50;" xml:space="preserve">
<style type="text/css">
	.st0{fill:#062778;}
	.st1{fill:#1BB975;}
	.st2{fill:#20D588;}
	.st3{fill:#36E198;}
	.st4{fill:#1FD588;}
	.st5{fill:#0C7238;}
	.st6{fill:#129552;}
	.st7{fill:#19AB65;}
	.st8{fill:#27663F;}
	.st9{fill:#29C17F;}
	.st10{fill:#18482A;}
	.st11{fill:#169054;}
	.st12{fill:#48BD85;}
	.st13{fill:#4C916A;}
	.st14{fill:#17472A;}
	.st15{fill:#0C7F45;}
	.st16{fill:#FBFCFB;}
	.st17{fill:#239B5E;}
	.st18{fill:#FFFFFF;}
	.st19{fill:#F0831C;}
	.st20{opacity:0.1;}
	.st21{fill:#B62FF4;}
	.st22{fill:#0189D4;}
	.st23{fill:#00913F;}
</style>
<g>
	<g class="st20">
		<circle class="st22" cx="25" cy="25" r="24.6"/>
	</g>
	<g>
		<path class="st22" d="M25.3,14.6c0.2,0.1,0.4,0.1,0.6,0.1c1.8,0.4,3.1,1.5,3.5,3.4c0.5,1.8-0.1,3.3-1.4,4.6c0,0-0.1,0.1-0.1,0.1
			c0.2,0.1,0.4,0.2,0.6,0.2c1.5,0.7,2.7,1.7,3.7,3c0.3,0.4,0.2,0.9-0.2,1.2c-0.4,0.3-0.9,0.2-1.2-0.2c-1.1-1.6-2.6-2.6-4.5-2.9
			c-3-0.5-5.4,0.5-7.2,2.9c-0.2,0.3-0.4,0.5-0.8,0.5c-0.3,0-0.6-0.2-0.7-0.4c-0.1-0.3-0.1-0.6,0.1-0.8c0.5-0.8,1.2-1.5,2-2.1
			c0.7-0.5,1.4-0.9,2.2-1.2c0.1,0,0.1,0,0.2-0.1c-0.4-0.3-0.7-0.7-1-1.2c-1.7-2.9,0.1-6.5,3.4-6.9c0,0,0.1,0,0.1,0
			C24.9,14.6,25.1,14.6,25.3,14.6z M25,16.3c-1.6,0-3,1.3-3,3c0,1.6,1.3,3,3,3c1.6,0,3-1.3,3-3C28,17.6,26.6,16.3,25,16.3z"/>
		<path class="st22" d="M14.6,31.3c0.1-0.3,0.4-0.4,0.7-0.4c0.4,0,0.8,0,1.2,0c0.4,0,0.5-0.1,0.6-0.5c0.1-0.4,0.3-0.8,0.4-1.2
			c0.1-0.3,0.3-0.4,0.5-0.4c0.3,0,0.4,0.1,0.5,0.4c0.1,0.4,0.3,0.8,0.4,1.2c0.1,0.3,0.2,0.4,0.6,0.4c0.4,0,0.9,0,1.3,0
			c0.3,0,0.5,0.1,0.6,0.4c0.1,0.3,0,0.5-0.3,0.7c-0.3,0.2-0.7,0.5-1,0.7c-0.3,0.2-0.4,0.4-0.3,0.8c0.1,0.4,0.3,0.8,0.4,1.2
			c0.1,0.3,0.1,0.5-0.1,0.7c-0.2,0.2-0.5,0.1-0.7,0c-0.4-0.3-0.7-0.5-1.1-0.8c-0.3-0.2-0.5-0.2-0.8,0c-0.4,0.3-0.7,0.5-1.1,0.8
			c-0.1,0.1-0.3,0.2-0.5,0.1c-0.3-0.1-0.5-0.3-0.4-0.6c0.1-0.4,0.3-0.9,0.4-1.3c0.1-0.4,0.1-0.6-0.3-0.8c-0.3-0.2-0.6-0.4-0.9-0.7
			c-0.2-0.1-0.3-0.2-0.4-0.4C14.6,31.5,14.6,31.4,14.6,31.3z"/>
		<path class="st22" d="M29.8,30.9c0.3,0,0.5,0,0.8,0c0.3,0,0.4-0.1,0.5-0.4c0.1-0.4,0.3-0.8,0.4-1.3c0.1-0.3,0.3-0.4,0.5-0.4
			c0.3,0,0.4,0.1,0.5,0.4c0.1,0.4,0.3,0.8,0.4,1.3c0.1,0.3,0.2,0.4,0.5,0.4c0.5,0,0.9,0,1.4,0c0.3,0,0.5,0.1,0.6,0.4
			c0.1,0.3,0,0.5-0.3,0.7c-0.3,0.2-0.7,0.5-1,0.7c-0.3,0.2-0.4,0.4-0.2,0.8c0.1,0.4,0.3,0.8,0.4,1.2c0.1,0.3,0,0.5-0.2,0.7
			c-0.2,0.1-0.4,0.1-0.7,0c-0.4-0.3-0.7-0.5-1.1-0.8c-0.3-0.2-0.5-0.2-0.8,0c-0.4,0.3-0.7,0.5-1.1,0.8c-0.2,0.2-0.5,0.2-0.7,0
			c-0.2-0.2-0.2-0.4-0.1-0.6c0.1-0.4,0.3-0.8,0.4-1.2c0.1-0.3,0.1-0.5-0.2-0.7c-0.4-0.3-0.7-0.5-1.1-0.8c-0.2-0.2-0.3-0.4-0.2-0.6
			c0.1-0.3,0.3-0.4,0.6-0.4C29.3,30.9,29.5,30.9,29.8,30.9C29.8,30.9,29.8,30.9,29.8,30.9z"/>
		<path class="st22" d="M28.5,28.7c0,0.1-0.1,0.3-0.3,0.4c-0.4,0.3-0.7,0.5-1.1,0.8c-0.3,0.2-0.4,0.4-0.2,0.7
			c0.1,0.4,0.3,0.8,0.4,1.2c0.1,0.3,0,0.5-0.2,0.6c-0.2,0.1-0.4,0.1-0.7,0c-0.4-0.3-0.7-0.5-1.1-0.8c-0.3-0.2-0.5-0.2-0.8,0
			c-0.4,0.3-0.7,0.5-1.1,0.8c-0.3,0.2-0.6,0.1-0.8-0.2c-0.1-0.2-0.1-0.3,0-0.5c0.1-0.4,0.3-0.8,0.4-1.2c0.1-0.4,0.1-0.6-0.3-0.8
			c-0.3-0.2-0.7-0.5-1-0.7c-0.2-0.2-0.3-0.4-0.2-0.6c0.1-0.3,0.3-0.4,0.6-0.4c0.4,0,0.9,0,1.3,0c0.4,0,0.5-0.1,0.7-0.5
			c0.1-0.4,0.3-0.8,0.4-1.2c0.1-0.3,0.3-0.4,0.5-0.4c0.3,0,0.4,0.1,0.5,0.4c0.1,0.4,0.3,0.8,0.4,1.3c0.1,0.3,0.2,0.4,0.5,0.4
			c0.5,0,1,0,1.4,0C28.2,28,28.5,28.3,28.5,28.7z"/>
	</g>
</g>
</svg>
