<?xml version="1.0" encoding="utf-8"?>
<!-- Generator: Adobe Illustrator 25.2.0, SVG Export Plug-In . SVG Version: 6.00 Build 0)  -->
<svg version="1.1" id="Layer_1" xmlns="http://www.w3.org/2000/svg" xmlns:xlink="http://www.w3.org/1999/xlink" x="0px" y="0px"
	 viewBox="0 0 50 50" style="enable-background:new 0 0 50 50;" xml:space="preserve">
<style type="text/css">
	.st0{fill:#062778;}
	.st1{fill:#1BB975;}
	.st2{fill:#20D588;}
	.st3{fill:#36E198;}
	.st4{fill:#1FD588;}
	.st5{fill:#0C7238;}
	.st6{fill:#129552;}
	.st7{fill:#19AB65;}
	.st8{fill:#27663F;}
	.st9{fill:#29C17F;}
	.st10{fill:#18482A;}
	.st11{fill:#169054;}
	.st12{fill:#48BD85;}
	.st13{fill:#4C916A;}
	.st14{fill:#17472A;}
	.st15{fill:#0C7F45;}
	.st16{fill:#FBFCFB;}
	.st17{fill:#239B5E;}
	.st18{fill:#FFFFFF;}
	.st19{fill:#F0831C;}
	.st20{opacity:0.1;}
	.st21{fill:#B62FF4;}
	.st22{fill:#0189D4;}
	.st23{fill:#828282;}
	.st24{fill:#00913F;}
</style>
<g>
	<g class="st20">
		<circle class="st23" cx="25" cy="25" r="24.6"/>
	</g>
	<g>
		<path class="st23" d="M18.9,25c0-2.1,0-4.3,0-6.4c0.1-2.9,2.4-5.4,5.3-5.8c3.2-0.4,6.1,1.7,6.8,4.8c0.1,0.4,0.1,0.9,0.1,1.3
			c0,4,0,8,0,12.1c0,2.9-2,5.4-4.7,6c-3.4,0.8-6.8-1.5-7.4-4.9c-0.1-0.4-0.1-0.7-0.1-1.1C18.9,29.1,18.9,27,18.9,25
			C18.9,25,18.9,25,18.9,25z M20,25c0,2,0,4.1,0,6.1c0,0.3,0,0.7,0.1,1c0.5,2.7,3.3,4.6,5.9,3.9c2.4-0.5,3.9-2.5,3.9-5
			c0-4,0-8.1,0-12.1c0-0.3,0-0.7-0.1-1c-0.5-2.6-3.1-4.5-5.7-4c-2.4,0.4-4.1,2.5-4.1,5C20,20.9,20,23,20,25z"/>
		<path class="st23" d="M25,14.9c2.2,0,4.1,1.8,4.1,4.1c0,2.3-1.8,4.1-4.1,4.1c-2.2,0-4.1-1.8-4.1-4.1C20.9,16.7,22.8,14.9,25,14.9z
			 M25,16c-1.6,0-3,1.3-3,3c0,1.6,1.3,3,3,3c1.6,0,3-1.3,3-3C28,17.4,26.6,16,25,16z"/>
		<path class="st23" d="M25,26.9c2.3,0,4.1,1.8,4.1,4.1c0,2.2-1.8,4.1-4.1,4.1c-2.3,0-4.1-1.8-4.1-4.1C20.9,28.7,22.8,26.9,25,26.9z
			 M25,28c-1.6,0-3,1.3-3,3c0,1.6,1.3,3,3,3c1.6,0,3-1.3,3-3C28,29.3,26.7,28,25,28z"/>
		<path class="st23" d="M25,25.6c-0.7,0-1.4,0-2.1,0c-0.4,0-0.7-0.2-0.7-0.6c0-0.4,0.3-0.6,0.7-0.6c1.4,0,2.9,0,4.3,0
			c0.5,0,0.8,0.5,0.6,0.9c-0.1,0.2-0.3,0.3-0.6,0.3C26.4,25.6,25.7,25.6,25,25.6z"/>
		<path class="st23" d="M26.3,19c0,0.7-0.6,1.3-1.3,1.3c-0.7,0-1.3-0.6-1.3-1.3c0-0.7,0.6-1.3,1.3-1.3C25.7,17.7,26.3,18.3,26.3,19z
			"/>
		<path class="st23" d="M26.3,30.9c0,0.7-0.6,1.3-1.3,1.3c-0.7,0-1.3-0.6-1.3-1.3c0-0.7,0.6-1.3,1.3-1.3
			C25.7,29.7,26.3,30.2,26.3,30.9z"/>
	</g>
</g>
</svg>
