<?xml version="1.0" encoding="utf-8"?>
<!-- Generator: Adobe Illustrator 25.2.0, SVG Export Plug-In . SVG Version: 6.00 Build 0)  -->
<svg version="1.1" id="Layer_1" xmlns="http://www.w3.org/2000/svg" xmlns:xlink="http://www.w3.org/1999/xlink" x="0px" y="0px"
	 viewBox="0 0 50 50" style="enable-background:new 0 0 50 50;" xml:space="preserve">
<style type="text/css">
	.st0{fill:#062778;}
	.st1{fill:#1BB975;}
	.st2{fill:#20D588;}
	.st3{fill:#36E198;}
	.st4{fill:#1FD588;}
	.st5{fill:#0C7238;}
	.st6{fill:#129552;}
	.st7{fill:#19AB65;}
	.st8{fill:#27663F;}
	.st9{fill:#29C17F;}
	.st10{fill:#18482A;}
	.st11{fill:#169054;}
	.st12{fill:#48BD85;}
	.st13{fill:#4C916A;}
	.st14{fill:#17472A;}
	.st15{fill:#0C7F45;}
	.st16{fill:#FBFCFB;}
	.st17{fill:#239B5E;}
	.st18{fill:#FFFFFF;}
	.st19{fill:#F0831C;}
	.st20{opacity:0.1;}
	.st21{fill:#0189D4;}
	.st22{fill:#B62FF4;}
	.st23{fill:#00913F;}
</style>
<g>
	<g>
		<g>
			<g>
				<path class="st0" d="M20.6,27.7c0-0.1,0-0.1,0-0.2c0.2-0.7,0.7-1.1,1.4-1.2c0.2,0,0.3,0,0.5,0c0.1,0,0.2,0,0.2-0.1
					c1.2-1.2,2.3-2.3,3.5-3.5c0.1-0.1,0.1-0.2,0.1-0.3c-0.2-0.8,0.3-1.6,1.1-1.8c0.1,0,0.2,0,0.3-0.1c0.1,0,0.2,0,0.3,0
					c-0.1,0.1-0.1,0.1-0.2,0.2c-0.2,0.2-0.4,0.4-0.6,0.6c-0.1,0.1-0.1,0.1-0.1,0.2c0.1,0.3,0.2,0.6,0.3,0.9c0,0.1,0.1,0.1,0.1,0.1
					c0.3,0.1,0.6,0.2,0.9,0.3c0.1,0,0.2,0,0.2-0.1c0.2-0.2,0.5-0.5,0.7-0.7c0,0,0,0,0.1-0.1c0,0.4,0,0.7-0.2,1
					c-0.3,0.5-0.8,0.7-1.3,0.7c-0.1,0-0.2,0-0.3,0c-0.1,0-0.2,0-0.2,0.1c-1.2,1.2-2.3,2.3-3.5,3.5c-0.1,0.1-0.1,0.1-0.1,0.2
					c0.2,0.9-0.4,1.7-1.3,1.9c-0.9,0.2-1.7-0.4-1.9-1.3c0,0,0-0.1,0-0.1C20.6,27.9,20.6,27.8,20.6,27.7z M26.6,23.1
					C26.6,23.2,26.6,23.2,26.6,23.1c-1.2,1.2-2.2,2.3-3.3,3.3c0,0-0.1,0.1-0.1,0.2c0,0.1,0.1,0.1,0.1,0.2c0,0.1,0.1,0.1,0.1,0
					c1.1-1.1,2.2-2.2,3.4-3.4c0,0,0,0,0,0c0,0,0,0,0-0.1C26.8,23.3,26.7,23.2,26.6,23.1z M22.2,28.5c0.1,0,0.2,0,0.3,0
					c0,0,0.1,0,0.1,0c0.1-0.2,0.2-0.4,0.3-0.5c0,0,0-0.1,0-0.1c-0.1-0.2-0.2-0.4-0.3-0.5c0,0,0,0-0.1,0c-0.2,0-0.4,0-0.7,0
					c0,0-0.1,0-0.1,0c-0.1,0.2-0.2,0.4-0.3,0.5c0,0,0,0.1,0,0.1c0.1,0.2,0.2,0.4,0.3,0.5c0,0,0,0,0.1,0
					C21.9,28.5,22.1,28.5,22.2,28.5z"/>
				<path class="st0" d="M25.6,26.6c-0.1,0-0.2,0-0.3,0.1c0,0-0.1,0-0.1,0c-0.1-0.1-0.1-0.1-0.2-0.2c0,0,0-0.1,0-0.1
					c0.3-0.3,0.5-0.5,0.8-0.8c0.2-0.2,0.3-0.3,0.5-0.5c0,0,0.1,0,0.1,0c0,0,0,0,0,0c0.1,0.1,0.2,0.2,0.1,0.3c-0.1,0.2,0,0.4,0.2,0.5
					c0.2,0.1,0.4,0.1,0.6,0c0.1,0,0.1,0,0.1,0c0.6,0.6,1.1,1.1,1.7,1.7c0.1,0.1,0.1,0.1,0,0.2c-0.4,0.4-0.8,0.8-1.2,1.2
					c0,0.1-0.1,0.1-0.1,0c-0.6-0.6-1.2-1.2-1.7-1.7c0,0,0-0.1,0-0.1c0.1-0.2,0.1-0.3,0-0.5C26,26.6,25.8,26.6,25.6,26.6z M28.4,28.2
					C28.4,28.2,28.4,28.2,28.4,28.2c-0.5-0.5-1-1-1.4-1.4c-0.1-0.1-0.1-0.1-0.2-0.1c-0.1,0-0.1,0.1-0.2,0.1c0,0-0.1,0.1,0,0.1
					c0.5,0.4,0.9,0.9,1.4,1.4c0.1,0.1,0.1,0.1,0.2,0.1C28.3,28.4,28.3,28.3,28.4,28.2C28.4,28.2,28.4,28.2,28.4,28.2z"/>
				<path class="st0" d="M29.4,28.2c0.1,0.3,0.1,0.7-0.2,0.9c-0.3,0.3-0.6,0.4-1,0.3C28.6,29,29,28.6,29.4,28.2z"/>
				<path class="st0" d="M21.1,20.6C21.1,20.6,21.1,20.6,21.1,20.6c0.3,0.2,0.6,0.4,0.9,0.5c0,0,0.1,0.1,0.1,0.1
					c0,0.1,0.1,0.3,0.1,0.4c0,0.1,0,0.1,0.1,0.2c0.7,0.7,1.4,1.4,2.2,2.2c0.1,0.1,0.1,0.1,0,0.1c-0.1,0.1-0.2,0.2-0.3,0.3
					c0,0.1-0.1,0-0.1,0c-0.7-0.7-1.4-1.4-2-2.1c-0.2-0.2-0.3-0.2-0.5-0.3c-0.2,0-0.3-0.1-0.4-0.3c-0.1-0.2-0.2-0.4-0.4-0.7
					c0,0,0-0.1,0-0.1C20.8,20.9,20.9,20.8,21.1,20.6C21.1,20.6,21.1,20.6,21.1,20.6z"/>
			</g>
			<path class="st0" d="M30.6,11.8H19.8c-1.3,0-2.4,1.1-2.4,2.4v3.3c0,0-0.1,0-0.1,0c-0.2,0-0.3,0.1-0.3,0.3v1
				c0,0.2,0.1,0.3,0.3,0.3c0,0,0.1,0,0.1,0v0.3c0,0-0.1,0-0.1,0c-0.2,0-0.3,0.1-0.3,0.3v2.1c0,0.2,0.1,0.3,0.3,0.3c0,0,0.1,0,0.1,0
				v13.7c0,1.3,1.1,2.4,2.4,2.4h10.8c1.3,0,2.4-1.1,2.4-2.4V14.2C33,12.9,31.9,11.8,30.6,11.8z M23.6,13.6c0-0.2,0.2-0.3,0.3-0.3
				h2.5c0.2,0,0.3,0.2,0.3,0.3v0c0,0.2-0.2,0.3-0.3,0.3H24C23.8,13.9,23.6,13.8,23.6,13.6L23.6,13.6z M27.1,36.6
				c0,0.5-0.4,0.8-0.8,0.8h-2c-0.5,0-0.8-0.4-0.8-0.8v0c0-0.5,0.4-0.8,0.8-0.8h2C26.7,35.8,27.1,36.2,27.1,36.6L27.1,36.6z
				 M31.3,35.2H19.1V14.8h12.2V35.2z"/>
		</g>
	</g>
</g>
<g class="st20">
	<circle class="st0" cx="25" cy="25" r="24.6"/>
</g>
</svg>
