<?xml version="1.0" encoding="utf-8"?>
<!-- Generator: Adobe Illustrator 25.2.0, SVG Export Plug-In . SVG Version: 6.00 Build 0)  -->
<svg version="1.1" id="Layer_1" xmlns="http://www.w3.org/2000/svg" xmlns:xlink="http://www.w3.org/1999/xlink" x="0px" y="0px"
	 viewBox="0 0 50 50" style="enable-background:new 0 0 50 50;" xml:space="preserve">
<style type="text/css">
	.st0{fill:#062778;}
	.st1{fill:#1BB975;}
	.st2{fill:#20D588;}
	.st3{fill:#36E198;}
	.st4{fill:#1FD588;}
	.st5{fill:#0C7238;}
	.st6{fill:#129552;}
	.st7{fill:#19AB65;}
	.st8{fill:#27663F;}
	.st9{fill:#29C17F;}
	.st10{fill:#18482A;}
	.st11{fill:#169054;}
	.st12{fill:#48BD85;}
	.st13{fill:#4C916A;}
	.st14{fill:#17472A;}
	.st15{fill:#0C7F45;}
	.st16{fill:#FBFCFB;}
	.st17{fill:#239B5E;}
	.st18{fill:#FFFFFF;}
	.st19{fill:#F0831C;}
	.st20{opacity:0.1;}
	.st21{fill:#0189D4;}
	.st22{fill:#B62FF4;}
	.st23{fill:#00913F;}
</style>
<g class="st20">
	<circle class="st22" cx="25" cy="25" r="24.6"/>
</g>
<g>
	<g>
		<path class="st22" d="M30.6,11.8H19.8c-1.3,0-2.4,1.1-2.4,2.4v3.3c0,0-0.1,0-0.1,0c-0.2,0-0.3,0.1-0.3,0.3v1
			c0,0.2,0.1,0.3,0.3,0.3c0,0,0.1,0,0.1,0v0.3c0,0-0.1,0-0.1,0c-0.2,0-0.3,0.1-0.3,0.3v2.1c0,0.2,0.1,0.3,0.3,0.3c0,0,0.1,0,0.1,0
			v13.7c0,1.3,1.1,2.4,2.4,2.4h10.8c1.3,0,2.4-1.1,2.4-2.4V14.2C33,12.9,31.9,11.8,30.6,11.8z M23.6,13.6c0-0.2,0.2-0.3,0.3-0.3h2.5
			c0.2,0,0.3,0.2,0.3,0.3v0c0,0.2-0.2,0.3-0.3,0.3H24C23.8,13.9,23.6,13.8,23.6,13.6L23.6,13.6z M27.1,36.6c0,0.5-0.4,0.8-0.8,0.8
			h-2c-0.5,0-0.8-0.4-0.8-0.8v0c0-0.5,0.4-0.8,0.8-0.8h2C26.7,35.8,27.1,36.2,27.1,36.6L27.1,36.6z M31.3,35.2H19.1V14.8h12.2V35.2z
			"/>
	</g>
	<g>
		<path class="st22" d="M21.9,23c0-0.1,0.1-0.1,0.1-0.2c0.1-0.1,0.3-0.2,0.5-0.1c0.2,0.1,0.3,0.2,0.3,0.4c0,0.1,0,0.1,0,0.2
			c0,0,0,0,0,0.1c0,0,0,0,0.1,0c0,0,0.1-0.1,0.1-0.1c0.5-0.6,1-0.9,1.8-1c1.1-0.2,2.3,0.3,2.9,1.3c0.3,0.5,0.5,1.1,0.5,1.7
			c-0.1,1.1-0.6,2-1.7,2.5c-0.4,0.2-0.8,0.3-1.2,0.3c-0.3,0-0.4-0.1-0.5-0.4c-0.1-0.3,0.1-0.6,0.4-0.6c0.3,0,0.5,0,0.7-0.1
			c0.4-0.2,0.8-0.5,1-0.9c0.2-0.4,0.3-0.8,0.2-1.2c-0.1-0.5-0.4-1-0.9-1.2c-0.7-0.4-1.4-0.4-2.1,0c-0.2,0.1-0.4,0.3-0.5,0.5
			c0,0,0,0,0,0c-0.1,0.1,0,0.2,0.1,0.2c0.1,0,0.2,0,0.3,0.1c0.2,0.1,0.2,0.3,0.2,0.5c0,0.2-0.2,0.3-0.4,0.3c-0.1,0-0.1,0-0.2,0
			c-0.4,0-0.9,0-1.3,0c-0.2,0-0.4-0.1-0.5-0.3c0,0,0,0,0,0C21.9,24.1,21.9,23.6,21.9,23z"/>
	</g>
</g>
</svg>
