<?xml version="1.0" encoding="utf-8"?>
<!-- Generator: Adobe Illustrator 25.2.0, SVG Export Plug-In . SVG Version: 6.00 Build 0)  -->
<svg version="1.1" id="Layer_1" xmlns="http://www.w3.org/2000/svg" xmlns:xlink="http://www.w3.org/1999/xlink" x="0px" y="0px"
	 viewBox="0 0 50 50" style="enable-background:new 0 0 50 50;" xml:space="preserve">
<style type="text/css">
	.st0{fill:#062778;}
	.st1{fill:#006633;}
	.st2{fill:#00913F;}
	.st3{fill:#0C7238;}
	.st4{fill:#129552;}
	.st5{fill:#19AB65;}
	.st6{fill:#27663F;}
	.st7{fill:#29C17F;}
	.st8{fill:#18482A;}
	.st9{fill:#169054;}
	.st10{fill:#48BD85;}
	.st11{fill:#4C916A;}
	.st12{fill:#17472A;}
	.st13{fill:#0C7F45;}
	.st14{fill:#FBFCFB;}
	.st15{fill:#239B5E;}
	.st16{fill:#FFFFFF;}
	.st17{fill:#F0831C;}
	.st18{opacity:0.1;}
	.st19{fill:#B62FF4;}
	.st20{fill:#6633FF;}
	.st21{fill:#0189D4;}
	.st22{fill:#828282;}
	.st23{fill:#FF3333;}
</style>
<g>
	<path class="st1" d="M24.7,48.3c-0.5-0.5-1.1-0.8-1.6-1.2c-1.2-0.8-2.4-1.7-3.7-2.5c-0.5-0.4-0.5-0.7,0-1c1.7-1.2,3.4-2.3,5.1-3.5
		c0.2-0.1,0.4-0.3,0.7-0.1c0.3,0.1,0.3,0.4,0.3,0.7c0,0.7,0,1.3,0,2c0,1,0,2,0,3c0,0.7,0,1.3,0,2c0,0.3-0.1,0.6-0.3,0.8
		C25,48.3,24.8,48.3,24.7,48.3z"/>
	<path class="st1" d="M25.3,1.7c1.7,1.2,3.5,2.4,5.2,3.6c0.7,0.5,0.7,0.7,0,1.2c-1.6,1.1-3.3,2.2-4.9,3.4c-0.2,0.2-0.4,0.3-0.7,0.2
		c-0.3-0.2-0.2-0.4-0.2-0.7c0-0.7,0-1.3,0-2c0-1,0-2,0-3c0-0.7,0-1.3,0-2c0-0.3,0.1-0.5,0.3-0.7C25.1,1.7,25.2,1.7,25.3,1.7z"/>
	<path class="st2" d="M24.6,4.4c0,1,0,2,0,3c-1.7,0-3.4,0.3-5.1,0.8C13.9,10.2,10,13.9,8,19.6c-2.5,7.1,0.2,15.3,6.4,19.7
		c0.6,0.4,1,0.9,0.9,1.6c-0.2,1.1-1.4,1.6-2.4,0.9c-2.4-1.7-4.3-3.8-5.8-6.3C5,32.1,4,28.2,4.2,24.1c0.5-7.4,4-12.9,10.2-16.8
		c3.1-1.9,6.4-2.8,10-2.9C24.5,4.4,24.6,4.4,24.6,4.4z"/>
	<path class="st2" d="M25.4,45.6c0-1,0-2,0-3c4.4-0.1,8.3-1.6,11.5-4.6c4.3-3.9,6.3-8.7,5.9-14.5c-0.4-5.4-2.9-9.7-7.2-13
		c-0.4-0.3-0.8-0.6-0.8-1.1c-0.1-0.6,0.2-1.1,0.7-1.5c0.5-0.3,1.1-0.3,1.6,0.1c1.5,1.1,2.9,2.3,4,3.8c3.2,4,4.9,8.6,4.7,13.7
		c-0.5,8.9-5.1,15.1-13.2,18.6C30.3,45.1,27.9,45.5,25.4,45.6z"/>
	<path class="st2" d="M21.6,27.1c2.6-2.1,5.1-4.3,7.7-6.4c0.6-0.5,1.2-1,1.8-1.5c1.1-0.9,2.5-0.8,3.4,0.2c0.9,1,0.8,2.4-0.3,3.3
		c-1.9,1.6-3.8,3.2-5.7,4.8c-1,0.9-2,1.8-3.1,2.6C23.9,29.3,22.6,28.3,21.6,27.1z"/>
	<path class="st1" d="M21.6,27.1c1,1.3,2.3,2.2,3.8,3c-0.8,0.7-1.5,1.3-2.3,1.9c-1.3,1-3,0.8-4-0.5c-1.2-1.6-2.4-3.1-3.5-4.7
		c-0.8-1.1-0.5-2.5,0.5-3.2c1-0.8,2.4-0.6,3.2,0.4C20,25,20.8,26,21.6,27.1z"/>
</g>
</svg>
