<svg id="Layer_1" data-name="Layer 1" xmlns="http://www.w3.org/2000/svg" viewBox="0 0 50 50"><defs><style>.cls-1{fill:#777;}</style></defs><path class="cls-1" d="M47.59,23.8c-1-4.66-2.09-9.3-3.2-13.94a3.84,3.84,0,0,0-4.33-2.43C33,9,25.87,10.65,18.77,12.21a5.18,5.18,0,0,0-3.66,2.21,1.38,1.38,0,0,1-1.07.71,5.09,5.09,0,0,0-3.43,2.33c-1.27,1.63-2.6,3.21-3.92,4.8s-2.57,3-3.8,4.52c-.35.44-1,1-.25,1.63s1.1-.1,1.5-.5c.72-.74,1.43-1.5,2.09-2.29,2.2-2.58,4.34-5.22,6.57-7.78,1.1-1.26,1.56-1.13,1.95.47.63,2.53,1.18,5.07,1.78,7.61.26,1.06.54,2.08-.54,2.92a.8.8,0,0,0-.11,1.2c.47.53.9.19,1.29-.09q2.34-1.69,4.63-3.42a57,57,0,0,1,5.38-3.89c.66-.38,1.34-.69,2.05-.11A2.17,2.17,0,0,1,30,24.65,4.51,4.51,0,0,1,28.8,27a17.85,17.85,0,0,1-3.11,2.71A9,9,0,0,0,22.58,33c-1.59,3.12-4.25,4.58-7.49,5.42-2.9.74-5.75,1.7-8.61,2.58-.51.16-1.12.35-1,1.08s.86.59,1.34.47a86.46,86.46,0,0,0,12.69-3.79c.88-.38,1.61-.82,2.49,0a1.65,1.65,0,0,0,1.57.19c1.74-.51,3.41-1.8,4.88-.29a4.25,4.25,0,0,0,3.26-1.27,2.58,2.58,0,0,1,1.34-.82c2.8-.56,3.93-1.84,4-4.74a1.81,1.81,0,0,1,1.65-2q3-.69,6-1.47A3.52,3.52,0,0,0,47.59,23.8ZM24.1,37c-.4.22-.84.4-1.23,0s-.05-.74.13-1.06a7.34,7.34,0,0,1,2.19-2.88C25.74,34.9,25.34,36.26,24.1,37ZM17.22,17.09c-.52.11-.8-.15-.71-.63.17-1,.44-2,1.56-2.27,7.37-1.65,14.69-3.57,22.13-4.89a2,2,0,0,1,1.92.47c.92.92.87,1.3-.39,1.6Q29.62,14.22,17.5,17ZM29,36.81c-1.19.08-1.46-.94-1.61-1.9,0-.24-.05-.49-.07-.73-.19-1.74.48-2.41,2.27-2.34a.83.83,0,0,1,.89.78c.12.67.21,1.35.3,2C30.71,35.79,30.23,36.73,29,36.81Zm4.46-2.12c-1.23-.2-1-1.37-1.11-2.22-.27-1.72,1.15-1.49,2.08-1.77s.76.51.78,1C35.31,33.15,34.38,34.83,33.49,34.69Zm10.43-8.12c-5.1,1.25-10.21,2.44-15.68,3.74,1-1.19,1.83-2,2.55-3a4.79,4.79,0,0,0,1.09-3.14C31.75,20.92,29,19.37,26.21,21a62.6,62.6,0,0,0-6.4,4.74c-.81.62-1.19.67-1.36-.5-.2-1.4-1.27-3-.69-4.09s2.56-.87,3.92-1.19c6.94-1.63,13.89-3.18,20.82-4.82,1.09-.25,1.47,0,1.67,1.07.48,2.56,1.14,5.09,1.56,7.65C46,25.77,45.75,26.12,43.92,26.57Z"/></svg>