<?xml version="1.0" encoding="utf-8"?>
<!-- Generator: Adobe Illustrator 25.2.0, SVG Export Plug-In . SVG Version: 6.00 Build 0)  -->
<svg version="1.1" id="Layer_1" xmlns="http://www.w3.org/2000/svg" xmlns:xlink="http://www.w3.org/1999/xlink" x="0px" y="0px"
	 viewBox="0 0 750 500" style="enable-background:new 0 0 750 500;" xml:space="preserve">
<style type="text/css">
	.st0{fill:#041F56;}
	.st1{fill:#37474F;}
	.st2{fill:#455A64;}
	.st3{fill:#263238;}
	.st4{opacity:0.3;fill:#27DEBF;}
	.st5{opacity:0.2;fill:#029342;}
	.st6{opacity:0.2;}
	.st7{opacity:0.3;fill:#FFFFFF;}
	.st8{opacity:0.3;}
	.st9{opacity:0.7;}
	.st10{fill:#27DEBF;}
	.st11{opacity:0.7;fill:#27DEBF;}
	.st12{fill:#029342;}
	.st13{opacity:0.15;}
	.st14{fill:#00682A;}
	.st15{opacity:0.55;fill:#FFFFFF;}
	.st16{opacity:0.7;fill:#FFFFFF;}
	.st17{opacity:0.9;fill:#FFFFFF;}
	.st18{opacity:0.9;}
	.st19{fill:#FAFAFA;}
	.st20{fill:#F5F5F5;}
	.st21{opacity:0.25;}
	.st22{opacity:0.1;fill:#FFFFFF;}
	.st23{fill:#E0E0E0;}
	.st24{fill:#017731;}
	.st25{opacity:0.1;}
	.st26{opacity:0.2;fill:#FFFFFF;}
	.st27{fill:#004F20;}
	.st28{fill:#08AF4B;}
</style>
<g>
	<path id="Shadow_16_" class="st0" d="M205.2,371.7c0,0,5.3,3,16.2,0c0,0,80,46.2,85.3,49.2s28.4,7,28.4,7l44.7,25.8l8.3,2.9l1-0.5
		l-5.3-4.7l-44.7-25.8c0,0-12.2-11.7-16.2-14.1c-4.1-2.3-85.3-49.2-85.3-49.2s4.9-6.5,0-9.4C231.5,350.6,200.7,367.8,205.2,371.7z"
		/>
	<path id="Shadow_10_" class="st0" d="M444.9,430.4l90.3-52.2c2.2-1.3,2.2-3.4,0-4.7L350.2,266.8c-2.2-1.3-5.8-1.3-8.1,0l-90.3,52.2
		c-2.2,1.3-2.2,3.4,0,4.7l184.9,106.8C439,431.6,442.6,431.6,444.9,430.4z"/>
	<g>
		<g>
			<g>
				<path class="st1" d="M536.5,345.6c-0.3-0.5-0.7-0.9-1.3-1.2l-11.1-6.4v-2.2l11.1,6.4C536.8,343.1,537.2,344.5,536.5,345.6z"/>
				<path class="st2" d="M536.5,345.6c-0.1-0.1-0.1-0.2-0.2-0.3c0,0,0-0.1-0.1-0.1c-0.1-0.1-0.2-0.2-0.3-0.3
					c-0.1-0.1-0.2-0.2-0.3-0.2h0c-0.1-0.1-0.1-0.1-0.2-0.2c-0.1-0.1-0.2-0.1-0.3-0.2l-11.1-6.4c-8,4.6-27.5,15.9-47,27.1
					c-9.2,5.3-18.4,10.6-26.4,15.2c-10.8,6.2-19.4,11.2-23.1,13.3c-1.1,0.7-1.8,1-1.9,1.1l11.1,6.4c1.1,0.6,2.6,1,4,1
					c0.3,0,0.5,0,0.8,0c0.1,0,0.2,0,0.3,0c0.2,0,0.4,0,0.6-0.1c0.3,0,0.5-0.1,0.8-0.2c0.5-0.1,1-0.4,1.5-0.6l90.3-52.2
					c0.6-0.3,1-0.7,1.2-1.1c0.1-0.1,0.1-0.2,0.2-0.2c0,0,0,0,0-0.1h0c0,0,0,0,0,0c0.1-0.1,0.1-0.2,0.1-0.3c0-0.1,0.1-0.2,0.1-0.3
					c0-0.1,0-0.2,0-0.3v-0.1C536.8,346.3,536.7,345.9,536.5,345.6z M473.9,370.6l3.1-1.8l4-2.3c2.2-1.3,5.7-1.4,7.8-0.1
					c0.7,0.4,1.1,0.9,1.3,1.4c-0.2,0.6-0.8,1.2-1.6,1.6l-7.1,4.1c-1.2,0.7-2.9,1.1-4.5,1c-1.2,0-2.4-0.3-3.4-0.9
					c-0.7-0.4-1.1-0.9-1.3-1.4C472.6,371.7,473.1,371.1,473.9,370.6z"/>
			</g>
			<g>
				<path class="st3" d="M350.2,235.4c-1.1-0.6-2.6-1-4-1v2.2c1.5,0,2.9,0.3,4,1l11.1,6.4v-2.2L350.2,235.4z"/>
				<path class="st1" d="M346.2,234.4v2.2c-1.5,0-2.9,0.3-4,1l-90.3,52.1c-0.6,0.4-1.1,0.8-1.3,1.2c-0.7-1.2-0.3-2.5,1.3-3.4
					l90.3-52.1C343.3,234.8,344.7,234.4,346.2,234.4z"/>
				<path class="st2" d="M350.2,237.6c-1.1-0.6-2.6-1-4-1c-1.5,0-2.9,0.3-4,1l-11.1,6.4l-11.7,6.8l-16.5,9.5l-5.5,3.2l-9.2,5.3
					l-16,9.2l-20.4,11.7c-0.1,0.1-0.3,0.2-0.4,0.3c-0.1,0-0.1,0.1-0.2,0.1c-0.1,0.1-0.2,0.1-0.2,0.2c-0.1,0.1-0.2,0.1-0.2,0.2
					c0,0,0,0,0,0c-0.1,0-0.1,0.1-0.1,0.2c-0.1,0.1-0.1,0.1-0.1,0.2c0,0,0,0,0,0c-0.2,0.3-0.3,0.7-0.3,1v0.1c0,0.1,0,0.2,0,0.3
					c0.1,0.5,0.4,1,0.9,1.5c0.2,0.2,0.4,0.4,0.7,0.5l11.1,6.4l1.9-1.1l7.4-4.2l16-9.2l9.2-5.3l5.5-3.2l16.5-9.5l11.7-6.8l30.3-17.5
					L350.2,237.6z M318.7,260.5c-0.1,0.1-0.3,0.2-0.4,0.3c-1,0.6-2.7,0.6-3.8,0c-0.2-0.1-0.3-0.2-0.4-0.3c0.1-0.1,0.3-0.2,0.4-0.3
					c1-0.6,2.7-0.6,3.8,0C318.4,260.2,318.6,260.3,318.7,260.5z M311.1,264.8c-0.1,0.1-0.3,0.3-0.5,0.4l-7.7,4.4l-5.5,3.2l-5.9,3.4
					c-0.9,0.5-2.2,0.6-3.3,0.3c-0.2-0.1-0.4-0.1-0.6-0.3c-0.2-0.1-0.3-0.2-0.4-0.3c0.1-0.2,0.3-0.3,0.5-0.4l0.5-0.3l9.2-5.3l5.5-3.2
					l3.9-2.3c1.1-0.6,2.9-0.7,3.9-0.1C310.9,264.6,311,264.7,311.1,264.8C311.1,264.8,311.1,264.8,311.1,264.8z"/>
			</g>
			<g>
				<path class="st4" d="M536.7,343.9c-0.1-0.2-0.2-0.4-0.3-0.6c-0.3-0.4-0.7-0.8-1.2-1.1l-11.1-6.4l-47-27.1l-26.4-15.2l-100.4-58
					c-1.1-0.6-2.6-1-4-1c-1.5,0-2.9,0.3-4,1l-11.1,6.4l-11.7,6.8l-16.5,9.5l-5.5,3.2l-9.2,5.3l-16,9.2l-20.4,11.7
					c-0.1,0.1-0.3,0.2-0.4,0.3c-0.1,0.1-0.2,0.2-0.3,0.3c-0.1,0.1-0.2,0.2-0.3,0.3c-0.1,0.1-0.2,0.2-0.2,0.3c0,0,0,0,0,0
					c-0.1,0.1-0.1,0.1-0.1,0.2c0,0-0.1,0.1-0.1,0.1c0,0,0,0,0,0c0,0,0,0,0,0.1c0,0,0,0.1,0,0.1c0,0.1,0,0.1-0.1,0.2c0,0,0,0.1,0,0.1
					c0,0.1,0,0.2,0,0.3v2.2c0,0.1,0,0.2,0,0.3c0,0.1,0,0.2,0.1,0.3c0.2,0.6,0.7,1.2,1.6,1.7l173.8,100.4h0l11.1,6.4
					c1.1,0.6,2.6,1,4,1c0.3,0,0.5,0,0.8,0c0.1,0,0.2,0,0.3,0c0.2,0,0.4,0,0.6-0.1c0.3,0,0.5-0.1,0.8-0.2c0.5-0.1,1-0.4,1.5-0.6
					l90.3-52.2c0.6-0.3,1-0.7,1.2-1.1c0.1-0.1,0.1-0.2,0.2-0.2c0,0,0,0,0-0.1c0,0,0,0,0,0c0.1-0.1,0.1-0.2,0.1-0.3
					c0-0.1,0.1-0.2,0.1-0.3c0-0.1,0-0.2,0-0.3v-0.1c0-0.4,0-1.5,0-1.9c0,0,0,0,0,0v-0.1C536.8,344.3,536.8,344.1,536.7,343.9z
					 M472.4,372.3c0.2-0.6,0.8-1.2,1.6-1.6l3.1-1.8l4-2.3c2.2-1.3,5.7-1.4,7.8-0.1c0.7,0.4,1.1,0.9,1.3,1.4
					c-0.2,0.6-0.8,1.2-1.6,1.6l-7.1,4.1c-1.2,0.7-2.9,1.1-4.5,1c-1.2,0-2.4-0.3-3.4-0.9C473,373.3,472.6,372.8,472.4,372.3z
					 M314.5,260.1c1-0.6,2.7-0.6,3.8,0c0.2,0.1,0.3,0.2,0.4,0.3c-0.1,0.1-0.3,0.2-0.4,0.3c-1,0.6-2.7,0.6-3.8,0
					c-0.2-0.1-0.3-0.2-0.4-0.3C314.2,260.3,314.3,260.2,314.5,260.1z M287.7,275.6l0.5-0.3l9.2-5.3l5.5-3.2l3.9-2.3
					c1.1-0.6,2.9-0.7,3.9-0.1c0.2,0.1,0.3,0.2,0.4,0.3c0,0,0,0,0,0c-0.1,0.1-0.3,0.3-0.5,0.4l-7.7,4.4l-5.5,3.2l-5.9,3.4
					c-0.9,0.5-2.2,0.6-3.3,0.3c-0.2-0.1-0.4-0.1-0.6-0.3c-0.2-0.1-0.3-0.2-0.4-0.3C287.3,275.9,287.4,275.7,287.7,275.6z"/>
				<path class="st5" d="M536.7,343.9c-0.1-0.2-0.2-0.4-0.3-0.6c-0.3-0.4-0.7-0.8-1.2-1.1l-11.1-6.4l-47-27.1l-26.4-15.2l-100.4-58
					c-1.1-0.6-2.6-1-4-1c-1.5,0-2.9,0.3-4,1l-11.1,6.4l-11.7,6.8l-16.5,9.5l-5.5,3.2l-9.2,5.3l-16,9.2l-20.4,11.7
					c-0.1,0.1-0.3,0.2-0.4,0.3c-0.1,0.1-0.2,0.2-0.3,0.3c-0.1,0.1-0.2,0.2-0.3,0.3c-0.1,0.1-0.2,0.2-0.2,0.3c0,0,0,0,0,0
					c-0.1,0.1-0.1,0.1-0.1,0.2c0,0-0.1,0.1-0.1,0.1c0,0,0,0,0,0c0,0,0,0,0,0.1c0,0,0,0.1,0,0.1c0,0.1,0,0.1-0.1,0.2c0,0,0,0.1,0,0.1
					c0,0.1,0,0.2,0,0.3v0.2c0,0.1,0,0.1,0,0.2c0,0,0,0,0,0.1c0,0,0,0,0,0.1c0,0,0,0.1,0,0.1c0,0,0,0,0,0c0,0,0,0,0,0
					c0,0.1,0,0.1,0.1,0.2c0,0.1,0.1,0.2,0.2,0.4c0,0.1,0.1,0.1,0.1,0.2c0,0.1,0.1,0.1,0.2,0.2c0,0.1,0.1,0.1,0.1,0.1c0,0,0,0,0,0
					c0,0,0.1,0.1,0.1,0.1c0.2,0.2,0.4,0.3,0.7,0.5l173.8,100.4l1.9,1.1l9.2,5.3c0.1,0.1,0.3,0.2,0.4,0.2c0,0,0.1,0,0.1,0.1
					c0.1,0,0.1,0.1,0.2,0.1c0,0,0,0,0.1,0c0.2,0.1,0.4,0.1,0.5,0.2c0,0,0,0,0,0c0.2,0.1,0.4,0.1,0.6,0.2c0,0,0,0,0,0l0.2,0
					c0.2,0,0.4,0.1,0.7,0.1c0.1,0,0.2,0,0.3,0c0.1,0,0.2,0,0.3,0c0.2,0,0.4,0,0.6,0c1.5,0,2.9-0.3,4-1l5.8-3.4l26.4-15.2l58.1-33.6
					c0.1-0.1,0.3-0.2,0.4-0.2c0.1-0.1,0.2-0.1,0.2-0.2c0.1-0.1,0.1-0.1,0.2-0.2c0.1-0.1,0.2-0.2,0.2-0.2c0,0,0.1-0.1,0.1-0.1
					c0.1-0.1,0.1-0.2,0.2-0.3c0-0.1,0.1-0.2,0.1-0.2c0-0.1,0.1-0.1,0.1-0.2c0-0.1,0-0.1,0.1-0.2c0,0,0-0.1,0-0.1c0-0.1,0-0.1,0-0.2
					c0,0,0,0,0,0v-0.1C536.8,344.3,536.8,344.1,536.7,343.9z M311.1,264.8c-0.1,0.1-0.3,0.3-0.5,0.4l-7.7,4.4l-5.5,3.2l-5.9,3.4
					c-0.9,0.5-2.2,0.6-3.3,0.3c-0.2-0.1-0.4-0.1-0.6-0.3c-0.2-0.1-0.3-0.2-0.4-0.3c0.1-0.2,0.3-0.3,0.5-0.4l0.5-0.3l9.2-5.3l5.5-3.2
					l3.9-2.3c1.1-0.6,2.9-0.7,3.9-0.1C310.9,264.6,311,264.7,311.1,264.8C311.1,264.8,311.1,264.8,311.1,264.8z M318.3,260.8
					c-1,0.6-2.7,0.6-3.8,0c-0.2-0.1-0.3-0.2-0.4-0.3c0.1-0.1,0.3-0.2,0.4-0.3c1-0.6,2.7-0.6,3.8,0c0.2,0.1,0.3,0.2,0.4,0.3
					C318.6,260.6,318.4,260.7,318.3,260.8z M488.6,369.4l-7.1,4.1c-1.2,0.7-2.9,1.1-4.5,1c-1.2,0-2.4-0.3-3.4-0.9
					c-0.7-0.4-1.1-0.9-1.3-1.4c0.2-0.6,0.8-1.2,1.6-1.6l3.1-1.8l4-2.3c2.2-1.3,5.7-1.4,7.8-0.1c0.7,0.4,1.1,0.9,1.3,1.4
					C489.9,368.4,489.4,368.9,488.6,369.4z"/>
				<path class="st6" d="M536.8,346.7c0,0.8-0.5,1.7-1.7,2.3l-90.3,52.2c-2.2,1.3-5.8,1.3-8.1,0L251.8,294.4
					c-1.1-0.6-1.7-1.5-1.7-2.3V290c0,0.8,0.6,1.6,1.7,2.2L436.8,399c2.2,1.3,5.8,1.3,8.1,0l90.3-52.2c1.1-0.6,1.6-1.4,1.7-2.2
					C536.8,345.1,536.8,346.4,536.8,346.7z"/>
			</g>
			<g>
				<polygon class="st7" points="331.1,241.8 321.8,247.2 321.8,332.6 331.1,338 				"/>
				<path class="st7" d="M342.2,235.4C342.2,235.4,342.2,235.4,342.2,235.4l-5.9,3.4V341l5.9,3.4V235.4z"/>
				<polygon class="st7" points="412.6,271.4 386.2,256.2 386.2,369.8 412.6,385.1 				"/>
				<path class="st7" d="M286.8,275.3c0,0.3,0.1,0.5,0.3,0.8c0.1,0.1,0.2,0.2,0.4,0.3c0.2,0.1,0.4,0.2,0.6,0.3v36.6l-16-9.2v-28.2
					l16-9.2v7.2l-0.5,0.3C287.1,274.4,286.8,274.9,286.8,275.3z"/>
				<polygon class="st7" points="302.9,258.1 302.9,265.3 297.4,268.5 297.4,261.3 				"/>
				<polygon class="st7" points="297.4,272.9 302.9,269.7 302.9,321.7 297.4,318.5 				"/>
				<polygon class="st7" points="509.4,327.3 497.7,320.6 497.7,368.5 509.4,361.7 				"/>
				<path class="st7" d="M472.3,370.9c-0.1,0.3-0.1,0.6-0.1,0.9v0c0,0.2,0.1,0.3,0.1,0.5c0.2,0.5,0.7,1,1.3,1.4
					c0.9,0.5,2.1,0.8,3.4,0.9v5.9l-26.4,15.2V293.4l26.4,15.2v58.7l-3.1,1.8c-0.6,0.3-1,0.7-1.3,1.1
					C472.5,370.5,472.4,370.7,472.3,370.9z"/>
				<polygon class="st7" points="520.6,333.8 514.7,330.4 514.7,358.7 520.6,355.3 				"/>
				<polygon class="st7" points="369.8,360.3 375.6,363.7 375.6,250.1 369.8,246.7 				"/>
				<polygon class="st7" points="432.4,282.8 426.5,279.5 426.5,393.1 432.4,396.5 				"/>
			</g>
			<g>
				<path class="st2" d="M536.8,346.7c0-0.3,0-1.6,0-2.1c0,0.8-0.6,1.6-1.7,2.2L444.8,399c-2.2,1.3-5.8,1.3-8.1,0l-11.1-6.4l0,2.2
					l0,0l11.1,6.4c2.2,1.3,5.8,1.3,8.1,0l90.3-52.2C536.3,348.4,536.8,347.6,536.8,346.7z"/>
				<path class="st1" d="M440.8,400c-1.5,0-2.9-0.3-4-1l-11.1-6.4l0,2.2l0,0l11.1,6.4c1.1,0.6,2.6,1,4,1V400z"/>
			</g>
			<path class="st1" d="M250.2,290v2.1c0,0.8,0.5,1.7,1.7,2.3l11.1,6.4v-2.2c0,0,0,0,0,0l-11.1-6.4
				C250.8,291.6,250.2,290.8,250.2,290z"/>
			<g class="st6">
				<path d="M311.4,264c0-0.4-0.2-0.8-0.7-1c-1-0.6-2.8-0.6-3.9,0.1l-3.9,2.3l-5.5,3.2l-9.2,5.3l-0.5,0.3c-0.6,0.3-0.9,0.8-0.9,1.2
					c0,0.3,0,1.3,0,1.5c0,0.4,0.3,0.8,0.7,1c0.2,0.1,0.4,0.2,0.6,0.3c1,0.3,2.4,0.2,3.3-0.3l5.9-3.4l5.5-3.2l7.7-4.4
					c0.6-0.3,0.9-0.8,0.9-1.2C311.4,265.3,311.4,264.3,311.4,264z M311.1,264.8c-0.1,0.1-0.3,0.3-0.5,0.4l-7.7,4.4l-5.5,3.2
					l-5.9,3.4c-0.9,0.5-2.2,0.6-3.3,0.3c-0.2-0.1-0.4-0.1-0.6-0.3c-0.2-0.1-0.3-0.2-0.4-0.3c0.1-0.2,0.3-0.3,0.5-0.4l0.5-0.3
					l9.2-5.3l5.5-3.2l3.9-2.3c1.1-0.6,2.9-0.7,3.9-0.1C310.9,264.6,311,264.7,311.1,264.8C311.1,264.8,311.1,264.8,311.1,264.8z"/>
				<path d="M318.3,258.6c-1-0.6-2.7-0.6-3.8,0c-0.5,0.3-0.8,0.7-0.8,1.1c0,0.3,0,1.3,0,1.5c0,0.4,0.3,0.8,0.8,1.1
					c1,0.6,2.7,0.6,3.8,0c0.5-0.3,0.8-0.7,0.8-1.1v-1.5C319,259.3,318.8,258.9,318.3,258.6z M318.3,260.8c-1,0.6-2.7,0.6-3.8,0
					c-0.2-0.1-0.3-0.2-0.4-0.3c0.1-0.1,0.3-0.2,0.4-0.3c1-0.6,2.7-0.6,3.8,0c0.2,0.1,0.3,0.2,0.4,0.3
					C318.6,260.6,318.4,260.7,318.3,260.8z"/>
			</g>
			<g class="st8">
				<path d="M311.4,263.8c0-0.1-0.1-0.2-0.1-0.3c0,0-0.1-0.1-0.1-0.1c0,0-0.1-0.1-0.1-0.1c0,0-0.1-0.1-0.1-0.1
					c-0.1,0-0.1-0.1-0.2-0.1c-1-0.6-2.8-0.6-3.9,0.1l-19.1,11.1c-0.6,0.3-0.9,0.8-0.9,1.2c0,0.3,0.1,0.5,0.3,0.8
					c0.1-0.2,0.3-0.3,0.5-0.4l0.5-0.3l9.2-5.3l5.5-3.2l3.9-2.3c1.1-0.6,2.9-0.7,3.9-0.1c0.2,0.1,0.3,0.2,0.4,0.3
					c0.2-0.2,0.3-0.5,0.3-0.8C311.4,263.9,311.4,263.8,311.4,263.8z"/>
				<path d="M319,259.5c0-0.1,0-0.1-0.1-0.2c-0.1-0.2-0.3-0.5-0.7-0.7c-1-0.6-2.7-0.6-3.8,0c-0.1,0.1-0.2,0.1-0.3,0.2
					c-0.1,0.1-0.2,0.1-0.2,0.2c0,0.1-0.1,0.1-0.1,0.2c0,0.1-0.1,0.1-0.1,0.2c-0.1,0.1-0.1,0.2-0.1,0.4c0,0,0,0,0,0v0.1
					c0,0.2,0.2,0.4,0.3,0.6c0.1-0.1,0.3-0.2,0.4-0.3c1-0.6,2.7-0.6,3.8,0c0.2,0.1,0.3,0.2,0.4,0.3c0.2-0.2,0.3-0.4,0.3-0.6v-0.2
					C319,259.6,319,259.6,319,259.5z"/>
			</g>
			<g class="st9">
				<path class="st10" d="M311.4,264c0,0.3-0.1,0.5-0.3,0.8c-0.1-0.1-0.2-0.2-0.4-0.3c-1-0.6-2.8-0.6-3.9,0.1l-3.9,2.3l-5.5,3.2
					l-9.2,5.3l-0.5,0.3c-0.2,0.1-0.4,0.3-0.5,0.4c-0.2-0.2-0.3-0.5-0.3-0.8c0-0.4,0.3-0.9,0.9-1.2l19.1-11.1
					c1.1-0.6,2.9-0.7,3.9-0.1c0.1,0,0.1,0.1,0.2,0.1c0.1,0,0.1,0.1,0.1,0.1c0,0,0.1,0.1,0.1,0.1c0,0,0.1,0.1,0.1,0.1
					c0.1,0.1,0.1,0.2,0.1,0.3C311.4,263.8,311.4,263.9,311.4,264z"/>
				<path class="st10" d="M319,259.7v0.2c0,0.2-0.1,0.4-0.3,0.6c-0.1-0.1-0.3-0.2-0.4-0.3c-1-0.6-2.7-0.6-3.8,0
					c-0.2,0.1-0.3,0.2-0.4,0.3c-0.2-0.2-0.3-0.4-0.3-0.6v-0.1c0,0,0,0,0,0c0-0.1,0-0.2,0.1-0.4c0-0.1,0.1-0.1,0.1-0.2
					c0-0.1,0.1-0.1,0.1-0.2c0.1-0.1,0.1-0.1,0.2-0.2c0.1,0,0.2-0.1,0.3-0.2c1-0.6,2.7-0.6,3.8,0c0.3,0.2,0.5,0.4,0.7,0.7
					c0,0.1,0.1,0.1,0.1,0.2C319,259.6,319,259.6,319,259.7z"/>
			</g>
			<path class="st6" d="M490.1,366.1c-0.1-0.1-0.1-0.2-0.2-0.3c-0.2-0.3-0.6-0.6-1-0.8c-2.1-1.2-5.6-1.1-7.8,0.1l-7.1,4.1
				c-0.6,0.3-1,0.7-1.3,1.1c-0.1,0.2-0.2,0.4-0.3,0.6c-0.1,0.2-0.1,0.4-0.1,0.7v0.3c0,0.4,0,1,0,1.2c0,0.8,0.5,1.5,1.5,2.1
				c0.9,0.5,2.1,0.8,3.4,0.8c1.6,0.1,3.2-0.3,4.5-1l7.1-4.1c1.2-0.7,1.7-1.5,1.7-2.4c0-0.2,0-1.2,0-1.5
				C490.3,366.7,490.2,366.4,490.1,366.1z M489.9,368.3c0,0.1-0.1,0.1-0.2,0.2c-0.3,0.3-0.6,0.6-1.1,0.9l-7.1,4.1
				c-0.3,0.2-0.6,0.3-0.9,0.4c-0.3,0.1-0.6,0.2-0.9,0.3c-0.8,0.2-1.8,0.3-2.6,0.3c-0.2,0-0.3,0-0.5,0c-0.3,0-0.6-0.1-0.9-0.1
				c-0.1,0-0.3-0.1-0.4-0.1c-0.1,0-0.3-0.1-0.4-0.1c-0.4-0.1-0.8-0.3-1.1-0.5c-0.4-0.2-0.7-0.5-0.9-0.7c-0.1-0.1-0.2-0.2-0.2-0.3
				c0-0.1-0.1-0.1-0.1-0.2c0-0.1-0.1-0.1-0.1-0.2c0,0,0,0,0,0c0.2-0.6,0.8-1.2,1.6-1.6l3.1-1.8l4-2.3c2.2-1.3,5.7-1.4,7.8-0.1
				c0.7,0.4,1.1,0.9,1.3,1.4C490.1,368,490,368.1,489.9,368.3z"/>
			<path class="st11" d="M490.3,367c0,0.3,0,0.5-0.2,0.8c-0.2-0.5-0.7-1-1.3-1.4c-2.1-1.2-5.6-1.1-7.8,0.1l-4,2.3l-3.1,1.8
				c-0.8,0.5-1.3,1-1.6,1.6c-0.1-0.1-0.1-0.3-0.1-0.5v0c0-0.3,0-0.6,0.1-0.9c0.1-0.2,0.2-0.4,0.3-0.6c0.3-0.4,0.7-0.8,1.3-1.1
				l7.1-4.1c2.2-1.3,5.7-1.4,7.8-0.1c0.4,0.3,0.8,0.5,1,0.8c0.1,0.1,0.2,0.2,0.2,0.3C490.2,366.4,490.3,366.7,490.3,367z"/>
			<path class="st12" d="M490.3,367c0,0.3,0,0.5-0.2,0.8c-0.2-0.5-0.7-1-1.3-1.4c-2.1-1.2-5.6-1.1-7.8,0.1l-4,2.3l-3.1,1.8
				c-0.8,0.5-1.3,1-1.6,1.6c-0.1-0.1-0.1-0.3-0.1-0.5v0c0-0.3,0-0.6,0.1-0.9c0.1-0.2,0.2-0.4,0.3-0.6c0.3-0.4,0.7-0.8,1.3-1.1
				l7.1-4.1c2.2-1.3,5.7-1.4,7.8-0.1c0.4,0.3,0.8,0.5,1,0.8c0.1,0.1,0.2,0.2,0.2,0.3C490.2,366.4,490.3,366.7,490.3,367z"/>
		</g>
		<g>
			<g>
				<path class="st3" d="M274.1,289l-7.4-4.3c-0.7-0.4-1.9-0.4-2.7,0l-7.4,4.3c-0.4,0.2-0.6,0.5-0.6,0.8c0,0.1,0,0.6,0,0.7
					c0,0.3,0.2,0.5,0.6,0.8l7.4,4.3c0.7,0.4,1.9,0.4,2.7,0l7.4-4.3c0.4-0.2,0.6-0.5,0.6-0.7c0-0.1,0-0.6,0-0.7
					C274.6,289.5,274.4,289.2,274.1,289z"/>
				<path class="st1" d="M256.6,290.6l7.4,4.3c0.7,0.4,1.9,0.4,2.7,0l7.4-4.3c0.7-0.4,0.7-1.1,0-1.5l-7.4-4.3
					c-0.7-0.4-1.9-0.4-2.7,0l-7.4,4.3C255.9,289.5,255.9,290.2,256.6,290.6z"/>
				<path class="st12" d="M258.4,289.6l6.8-3.9c0.3-0.2,0.8-0.2,1.1,0l0.4,0.2c0.3,0.2,0.3,0.4,0,0.6l-6.8,3.9
					c-0.3,0.2-0.8,0.2-1.1,0l-0.4-0.2C258.1,290,258.1,289.7,258.4,289.6z"/>
				<path class="st12" d="M261.2,291.3l6.8-3.9c0.3-0.2,0.8-0.2,1.1,0l0.4,0.2c0.3,0.2,0.3,0.4,0,0.6l-6.8,3.9
					c-0.3,0.2-0.8,0.2-1.1,0l-0.4-0.2C261,291.8,261,291.5,261.2,291.3z"/>
				<path class="st12" d="M264.1,293.1l6.8-3.9c0.3-0.2,0.8-0.2,1.1,0l0.4,0.2c0.3,0.2,0.3,0.4,0,0.6l-6.8,3.9
					c-0.3,0.2-0.8,0.2-1.1,0l-0.4-0.2C263.8,293.6,263.8,293.3,264.1,293.1z"/>
			</g>
			<g>
				<path class="st10" d="M237.2,293L237.2,293c-0.6-0.3-1.3-0.4-2.1-0.2c-0.4,0.1-0.8,0.2-1.2,0.5l-4.6,2.6l7,4l4.6-2.6
					c1.3-0.7,2.4-0.8,3.2-0.3L237.2,293z"/>
				<path class="st12" d="M237.2,293L237.2,293c-0.6-0.3-1.3-0.4-2.1-0.2c-0.4,0.1-0.8,0.2-1.2,0.5l-4.6,2.6l7,4l4.6-2.6
					c1.3-0.7,2.4-0.8,3.2-0.3L237.2,293z"/>
				<path class="st10" d="M256.8,290.7l-11.9,6.8l-0.2,0.1c0.4,0.6,0.7,1.3,0.7,2.4c0,2.1,1.1,3.2,2.7,3.2c0.7,0,1.4-0.2,2.2-0.7
					l13.4-7.8L256.8,290.7z"/>
				<path class="st12" d="M256.8,290.7l-11.9,6.8l-0.2,0.1c0.4,0.6,0.7,1.3,0.7,2.4c0,2.1,1.1,3.2,2.7,3.2c0.7,0,1.4-0.2,2.2-0.7
					l13.4-7.8L256.8,290.7z"/>
				<polygon class="st10" points="229.3,296 229.3,296.6 236.3,300.6 236.3,300 				"/>
				<polygon class="st13" points="229.3,296 229.3,296.6 236.3,300.6 236.3,300 				"/>
				<path class="st14" d="M263.8,294.7v0.6l-13.2,7.6c-0.9,0.5-1.8,0.8-2.6,0.8c-0.6,0-1.1-0.1-1.5-0.4l0,0c-1-0.6-1.6-1.8-1.6-3.3
					c0-1.2-0.4-2.1-1.1-2.5c-0.7-0.4-1.7-0.3-2.7,0.3l-2.1,1.2l-2.5,1.5l-0.3,0.2V300c0,0,0.9-0.5,2.2-1.3c0.7-0.4,1.5-0.9,2.3-1.4
					c2.5-1.5,4.6-0.3,4.6,2.7s2.2,4,4.9,2.5L263.8,294.7z"/>
				<path class="st10" d="M246.5,303.3l-7.4-4.3l2.1-1.2c1.1-0.6,2-0.7,2.7-0.3c0.7,0.4,1.1,1.3,1.1,2.5
					C244.9,301.6,245.5,302.7,246.5,303.3z"/>
				<path class="st12" d="M246.5,303.3l-7.4-4.3l2.1-1.2c1.1-0.6,2-0.7,2.7-0.3c0.7,0.4,1.1,1.3,1.1,2.5
					C244.9,301.6,245.5,302.7,246.5,303.3z"/>
			</g>
			<g>
				<path class="st3" d="M238.5,301.3l-11.3-6.5c-0.7-0.4-1.9-0.4-2.7,0l-3.7,2.1c-0.4,0.2-0.6,0.5-0.6,0.8c0,0.1,0,0.6,0,0.7
					c0,0.3,0.2,0.5,0.6,0.8l11.3,6.5c0.7,0.4,1.9,0.4,2.7,0l3.7-2.1c0.4-0.2,0.6-0.5,0.6-0.7c0-0.1,0-0.6,0-0.7
					C239.1,301.7,238.9,301.5,238.5,301.3z"/>
				<path class="st1" d="M220.8,298.4l11.3,6.5c0.7,0.4,1.9,0.4,2.7,0l3.7-2.1c0.7-0.4,0.7-1.1,0-1.5l-11.3-6.5
					c-0.7-0.4-1.9-0.4-2.7,0l-3.7,2.1C220.1,297.2,220.1,297.9,220.8,298.4z"/>
				<g>
					<path class="st12" d="M222.1,297.2l3-1.7c0.3-0.2,0.8-0.2,1.1,0l0.4,0.2c0.3,0.2,0.3,0.4,0,0.6l-3,1.7c-0.3,0.2-0.8,0.2-1.1,0
						l-0.4-0.2C221.8,297.6,221.8,297.4,222.1,297.2z"/>
					<path class="st12" d="M224.8,298.7l3-1.7c0.3-0.2,0.8-0.2,1.1,0l0.4,0.2c0.3,0.2,0.3,0.4,0,0.6l-3,1.7c-0.3,0.2-0.8,0.2-1.1,0
						l-0.4-0.2C224.5,299.2,224.5,298.9,224.8,298.7z"/>
					<path class="st12" d="M227.4,300.3l3-1.7c0.3-0.2,0.8-0.2,1.1,0l0.4,0.2c0.3,0.2,0.3,0.4,0,0.6l-3,1.7c-0.3,0.2-0.8,0.2-1.1,0
						l-0.4-0.2C227.1,300.7,227.1,300.4,227.4,300.3z"/>
					<path class="st12" d="M230.1,301.8l3-1.7c0.3-0.2,0.8-0.2,1.1,0l0.4,0.2c0.3,0.2,0.3,0.4,0,0.6l-3,1.7c-0.3,0.2-0.8,0.2-1.1,0
						l-0.4-0.2C229.8,302.3,229.8,302,230.1,301.8z"/>
					<path class="st12" d="M232.8,303.3l3-1.7c0.3-0.2,0.8-0.2,1.1,0l0.4,0.2c0.3,0.2,0.3,0.4,0,0.6l-3,1.7c-0.3,0.2-0.8,0.2-1.1,0
						l-0.4-0.2C232.5,303.8,232.5,303.5,232.8,303.3z"/>
				</g>
			</g>
		</g>
		<g>
			<g>
				<path class="st10" d="M535.2,294.1L350.2,187.3c-2.2-1.3-5.8-1.3-8.1,0l-90.3,52.2c-1.1,0.6-1.7,1.5-1.7,2.3c0,0.4,0,2,0,2.4
					c0,0.8,0.6,1.7,1.7,2.3l184.9,106.8c2.2,1.3,5.8,1.3,8.1,0l90.3-52.2c1.1-0.6,1.7-1.5,1.7-2.3c0-0.4,0-2,0-2.4
					C536.9,295.6,536.3,294.8,535.2,294.1z"/>
				<path class="st15" d="M440.8,351.9v2.4c-1.5,0-2.9-0.3-4-1L251.8,246.5c-1.1-0.6-1.7-1.5-1.7-2.3v-2.4c0,0.8,0.5,1.7,1.7,2.3
					l184.9,106.8C437.9,351.6,439.4,351.9,440.8,351.9z"/>
				<path class="st16" d="M536.8,296.6v2.3c0,0.8-0.5,1.7-1.7,2.3l-90.3,52.2c-1.1,0.6-2.6,1-4,1v-2.4c1.5,0,2.9-0.3,4-1l90.3-52.2
					C536.3,298.2,536.8,297.4,536.8,296.6z"/>
				<path class="st17" d="M444.9,350.9l90.3-52.2c2.2-1.3,2.2-3.4,0-4.7L350.2,187.3c-2.2-1.3-5.8-1.3-8.1,0l-90.3,52.2
					c-2.2,1.3-2.2,3.4,0,4.7l184.9,106.8C439,352.2,442.6,352.2,444.9,350.9z"/>
				<g class="st18">
					<path class="st10" d="M346.2,186.6c1.5,0,2.9,0.3,3.9,0.9l184.9,106.8c1,0.6,1.6,1.3,1.6,2.1c0,0.8-0.6,1.5-1.6,2.1l-90.3,52.2
						c-1,0.6-2.4,0.9-3.9,0.9s-2.9-0.3-3.9-0.9L252,244c-1-0.6-1.6-1.3-1.6-2.1c0-0.8,0.6-1.5,1.6-2.1l90.3-52.2
						C343.3,186.9,344.7,186.6,346.2,186.6 M346.2,186.4c-1.5,0-2.9,0.3-4,1l-90.3,52.2c-2.2,1.3-2.2,3.4,0,4.7l184.9,106.8
						c1.1,0.6,2.6,1,4,1s2.9-0.3,4-1l90.3-52.2c2.2-1.3,2.2-3.4,0-4.7L350.2,187.3C349.1,186.7,347.7,186.4,346.2,186.4L346.2,186.4
						z"/>
				</g>
			</g>
			<path class="st12" d="M277.1,229.3l-20.7,11.9c-0.6,0.3-0.6,0.8,0,1.2l13.1,7.6c0.6,0.3,1.5,0.3,2,0l20.7-11.9
				c0.6-0.3,0.6-0.8,0-1.2l-13.1-7.6C278.5,229,277.6,229,277.1,229.3z"/>
			<g>
				<g>
					<path class="st19" d="M281.7,241.4l-7.5,4.5h-3.7c0,0-0.1,0-0.1,0l-3.9,2.2l0.5,0.3l3.6-2.1h3.7c0,0,0.1,0,0.1,0l7.6-4.6
						c0.1-0.1,0.1-0.2,0.1-0.3C282,241.4,281.9,241.4,281.7,241.4z"/>
					<path class="st19" d="M257.2,242.9l3.6-2.1h3.7c0,0,0.1,0,0.1,0l7.6-4.4c0.1-0.1,0.1-0.2,0.1-0.3c-0.1-0.1-0.2-0.1-0.3-0.1
						l-7.5,4.3h-3.7c0,0-0.1,0-0.1,0l-3.9,2.3L257.2,242.9z"/>
					<path class="st19" d="M265.7,243.6l3.7,0c0,0,0.1,0,0.1,0l7.6-4.4c0.1-0.1,0.1-0.2,0.1-0.3c-0.1-0.1-0.2-0.1-0.3-0.1l-7.5,4.3
						l-3.7,0c0,0-0.1,0-0.1,0l-3.9,2.3l0.5,0.3L265.7,243.6z"/>
					<path class="st19" d="M263,242.1h3.7c0,0,0.1,0,0.1,0l1.9-1.1c0.1-0.1,0.1-0.2,0.1-0.3c-0.1-0.1-0.2-0.1-0.3-0.1l-1.8,1.1h-3.7
						c0,0-0.1,0-0.1,0l-3.9,2.3l0.5,0.3L263,242.1z"/>
				</g>
				<path class="st19" d="M272.6,235.9c0.3,0.2,0.3,0.4,0,0.6c-0.3,0.2-0.7,0.2-1,0c-0.3-0.2-0.3-0.4,0-0.6
					C271.9,235.7,272.3,235.7,272.6,235.9z"/>
				<path class="st19" d="M269.1,240.4c0.3,0.2,0.3,0.4,0,0.6c-0.3,0.2-0.7,0.2-1,0c-0.3-0.2-0.3-0.4,0-0.6
					C268.4,240.3,268.8,240.3,269.1,240.4z"/>
				<path class="st19" d="M277.5,238.7c0.3,0.2,0.3,0.4,0,0.6c-0.3,0.2-0.7,0.2-1,0c-0.3-0.2-0.3-0.4,0-0.6
					C276.8,238.5,277.2,238.5,277.5,238.7z"/>
			</g>
			<polygon class="st12" points="300.8,258.2 304.6,260.3 335.5,242.9 331.8,240.7 			"/>
			<path class="st3" d="M423.5,229.8l-73.3-42.3c-1.1-0.6-2.6-1-4-1c-1.5,0-2.9,0.3-4,1l-84.5,48.8c-0.6,0.4-0.9,0.8-0.9,1.3
				c0,0.1,0,0.4,0,0.5c0,0.4,0.2,0.7,0.7,1c1,0.6,2.7,0.6,3.8-0.1l11.1-6.4c1.1-0.6,2.9-0.6,4,0l7.3,4.2c0.4,0.3,0.7,0.6,0.8,0.9
				c-0.1,0.3-0.3,0.7-0.8,0.9l-7.3,4.2c-0.6,0.3-0.8,0.7-0.8,1.2c0,0.1,0,0.4,0,0.5c0,0.4,0.3,0.8,0.8,1.2l14.9,8.6
				c1.1,0.6,2.9,0.6,4,0l37.6-21.7c1.1-0.6,2.9-0.7,3.9-0.1c0.4,0.2,0.6,0.5,0.7,0.8c-0.1,0.3-0.4,0.7-0.8,1l-41.4,23.9
				c-0.6,0.3-0.8,0.7-0.8,1.2c0,0.1,0,0.4,0,0.5c0,0.4,0.3,0.8,0.8,1.2l11.1,6.4c1.1,0.6,2.9,0.6,4,0l22.5-13
				c0.6-0.3,0.8-0.7,0.8-1.2c0-0.1,0-0.4,0-0.5c0-0.4-0.3-0.8-0.8-1.1l-2.2-1.3c-0.4-0.3-0.7-0.6-0.8-0.9c0.1-0.3,0.3-0.7,0.8-0.9
				l22.5-13c1.1-0.6,2.9-0.6,4,0l28.7,16.6c1.1,0.6,2.9,0.6,4,0l33.7-19.5c0.6-0.3,0.8-0.8,0.8-1.2c0-0.1,0-0.4,0-0.5
				C424.4,230.6,424.1,230.1,423.5,229.8z M310.7,253.5c0.8-0.5,2.2-0.5,3.1,0c0.3,0.2,0.5,0.4,0.5,0.6c-0.1,0.2-0.3,0.4-0.5,0.6
				c-0.8,0.5-2.2,0.5-3.1,0c-0.3-0.2-0.5-0.4-0.5-0.6C310.3,253.9,310.4,253.7,310.7,253.5z M318.4,249.1c0.8-0.5,2.2-0.5,3.1,0
				c0.3,0.2,0.5,0.4,0.5,0.6c-0.1,0.2-0.3,0.4-0.5,0.6c-0.8,0.5-2.2,0.5-3.1,0c-0.3-0.2-0.5-0.4-0.5-0.6
				C317.9,249.5,318.1,249.3,318.4,249.1z M330.6,242.5c0.8-0.5,2.2-0.5,3.1,0c0.3,0.2,0.5,0.4,0.6,0.6c-0.1,0.2-0.3,0.4-0.5,0.6
				c-0.8,0.5-2.2,0.5-3.1,0c-0.3-0.2-0.5-0.4-0.6-0.6C330.1,242.9,330.3,242.7,330.6,242.5z M303,258c0.8-0.5,2.2-0.5,3.1,0
				c0.3,0.2,0.5,0.4,0.5,0.6c-0.1,0.2-0.3,0.4-0.5,0.6c-0.8,0.5-2.2,0.5-3.1,0c-0.3-0.2-0.5-0.4-0.5-0.6
				C302.6,258.3,302.8,258.1,303,258z"/>
			<path class="st2" d="M423.5,229.8l-73.3-42.3c-1.1-0.6-2.6-1-4-1c-1.5,0-2.9,0.3-4,1l-84.5,48.8c-1.1,0.6-1.2,1.7-0.2,2.3
				c1,0.6,2.7,0.6,3.8-0.1l11.1-6.4c1.1-0.6,2.9-0.6,4,0l7.3,4.2c1.1,0.6,1.1,1.7,0,2.3l-7.3,4.2c-1.1,0.6-1.1,1.7,0,2.3l14.9,8.6
				c1.1,0.6,2.9,0.6,4,0l37.6-21.7c1.1-0.6,2.9-0.7,3.9-0.1c1,0.6,1,1.6-0.1,2.3l-41.4,23.9c-1.1,0.6-1.1,1.7,0,2.3l11.1,6.4
				c1.1,0.6,2.9,0.6,4,0l22.5-13c1.1-0.6,1.1-1.7,0-2.3l-2.2-1.3c-1.1-0.6-1.1-1.7,0-2.3l22.5-13c1.1-0.6,2.9-0.6,4,0l28.7,16.6
				c1.1,0.6,2.9,0.6,4,0l33.7-19.5C424.7,231.5,424.7,230.4,423.5,229.8z M306.1,259.1c-0.8,0.5-2.2,0.5-3.1,0s-0.8-1.3,0-1.8
				c0.8-0.5,2.2-0.5,3.1,0C306.9,257.8,306.9,258.6,306.1,259.1z M313.8,254.6c-0.8,0.5-2.2,0.5-3.1,0c-0.8-0.5-0.8-1.3,0-1.8
				c0.8-0.5,2.2-0.5,3.1,0C314.6,253.4,314.6,254.2,313.8,254.6z M321.5,250.2c-0.8,0.5-2.2,0.5-3.1,0c-0.8-0.5-0.8-1.3,0-1.8
				c0.8-0.5,2.2-0.5,3.1,0C322.3,248.9,322.3,249.7,321.5,250.2z M333.6,243.6c-0.8,0.5-2.2,0.5-3.1,0c-0.8-0.5-0.8-1.3,0-1.8
				c0.8-0.5,2.2-0.5,3.1,0C334.5,242.4,334.5,243.2,333.6,243.6z"/>
			<g id="XMLID_23_">
				<g id="XMLID_26_">
					<path class="st10" d="M359.8,197.6c0,0.2-0.1,0.4-0.4,0.5l-48.2,28c-0.3,0.1-0.6,0.2-0.9,0.2l0,1.1c0.3,0,0.7-0.1,0.9-0.2
						l47.6-27.7c0.5-0.3,0.9-0.4,0.9-1L359.8,197.6z"/>
					<path class="st14" d="M359.8,197.6c0,0.2-0.1,0.4-0.4,0.5l-48.2,28c-0.3,0.1-0.6,0.2-0.9,0.2l0,1.1c0.3,0,0.7-0.1,0.9-0.2
						l47.6-27.7c0.5-0.3,0.9-0.4,0.9-1L359.8,197.6z"/>
					<path id="XMLID_27_" class="st12" d="M309.5,226.1l-12.4-7.1c-0.5-0.3-0.5-0.8,0-1l48.2-28c0.5-0.3,1.3-0.3,1.8,0l12.4,7.1
						c0.5,0.3,0.5,0.8,0,1l-48.2,28C310.8,226.4,310,226.4,309.5,226.1z"/>
					<path class="st10" d="M296.7,218.5l0,0.9c0,0.6,0.4,0.7,0.9,1l11.8,6.8c0.2,0.1,0.6,0.2,0.9,0.2l0-1.1c-0.3,0-0.7-0.1-0.9-0.2
						l-12.4-7.1C296.9,218.8,296.8,218.6,296.7,218.5z"/>
					<path class="st14" d="M296.7,218.4l0,0.9c0,0.6,0.4,0.7,0.9,1l11.8,6.8c0.2,0.1,0.6,0.2,0.9,0.2l0-1.1c-0.3,0-0.7-0.1-0.9-0.2
						l-12.4-7.1C296.9,218.8,296.8,218.6,296.7,218.4z"/>
				</g>
				<g id="XMLID_25_">
					<path class="st20" d="M300.1,218l45.4-26.4c0.4-0.2,0.9-0.2,1.3,0l9.6,5.6c0.2,0.1,0.3,0.3,0.3,0.4c0,0.2-0.1,0.3-0.3,0.4
						L311,224.4c-0.4,0.2-0.9,0.2-1.3,0l-9.6-5.6c-0.2-0.1-0.3-0.3-0.3-0.4c0-0.1,0-0.1,0.1-0.2C299.9,218.1,300,218,300.1,218z
						 M356.5,197.6c0-0.1-0.1-0.2-0.2-0.2l-9.6-5.6c-0.3-0.2-0.7-0.2-1,0l-45.4,26.4l0,0c-0.1,0.1-0.2,0.1-0.2,0.2
						c0,0.1,0.1,0.2,0.2,0.2l9.6,5.6c0.3,0.2,0.7,0.2,1,0l45.4-26.4C356.4,197.7,356.4,197.7,356.5,197.6
						C356.5,197.6,356.5,197.6,356.5,197.6z"/>
				</g>
				<g id="XMLID_24_">
					<path class="st20" d="M303.8,218.2l42.1-24.5c0.2-0.1,0.4-0.1,0.6,0l6.4,3.6c0.1,0.1,0.2,0.2,0.2,0.3c0,0.1-0.1,0.2-0.2,0.3
						l-42.2,24.5c-0.2,0.1-0.5,0.1-0.6,0l-6.3-3.7c-0.1-0.1-0.2-0.2-0.2-0.3c0,0,0-0.1,0-0.1C303.7,218.3,303.7,218.2,303.8,218.2z
						 M303.9,218.5L303.9,218.5L303.9,218.5z M352.7,197.6l-6.4-3.6l0,0c-0.1-0.1-0.3-0.1-0.4,0l-42.1,24.5c0,0,0,0,0,0c0,0,0,0,0,0
						l6.3,3.7c0.1,0,0.3,0,0.4,0L352.7,197.6C352.8,197.6,352.8,197.6,352.7,197.6C352.8,197.6,352.8,197.6,352.7,197.6z"/>
				</g>
			</g>
		</g>
		<g>
			<path class="st14" d="M262,256.5l-16.9-9.8c-0.6-0.3-1.5-0.3-2,0l-34.9,20.2v1.1L227,279l34.9-20.2c0.3-0.2,0.4-0.4,0.4-0.6v-1.1
				C262.4,256.9,262.2,256.7,262,256.5z M212.9,267.5l9.3-5.4c0.6-0.3,1.5-0.3,2,0l1.8,1c0.5,0.3,1.5,0.3,2,0l5.6-3.2
				c0.6-0.3,1.5-0.3,2,0l9.3,5.4c0,0,0,0,0,0c0,0,0,0,0,0l-16.9,9.8c-0.6,0.3-1.5,0.3-2,0L212.9,267.5
				C212.9,267.5,212.9,267.5,212.9,267.5C212.9,267.5,212.9,267.5,212.9,267.5z M233.7,255.5l9.3-5.4c0.5-0.3,1.5-0.3,2,0l13.1,7.6
				c0,0,0,0,0,0c0,0,0,0,0,0l-9.3,5.4c-0.5,0.3-1.5,0.3-2,0L233.7,255.5C233.7,255.5,233.7,255.5,233.7,255.5
				C233.7,255.5,233.7,255.5,233.7,255.5z"/>
			<path class="st12" d="M262,256.5l-16.9-9.8c-0.6-0.3-1.5-0.3-2,0l-34.9,20.2l18.9,10.9l34.9-20.2c0.3-0.2,0.4-0.4,0.4-0.6
				C262.4,256.9,262.2,256.7,262,256.5z M258.2,257.7l-9.3,5.4c-0.5,0.3-1.5,0.3-2,0l-13.1-7.6c0,0,0,0,0,0c0,0,0,0,0,0l9.3-5.4
				c0.5-0.3,1.5-0.3,2,0L258.2,257.7C258.2,257.6,258.2,257.7,258.2,257.7C258.2,257.7,258.2,257.7,258.2,257.7z M244.9,265.3
				l-16.9,9.8c-0.6,0.3-1.5,0.3-2,0l-13.1-7.6c0,0,0,0,0,0c0,0,0,0,0,0l9.3-5.4c0.6-0.3,1.5-0.3,2,0l1.8,1c0.5,0.3,1.5,0.3,2,0
				l5.6-3.2c0.6-0.3,1.5-0.3,2,0L244.9,265.3C245,265.3,245,265.3,244.9,265.3C245,265.3,245,265.3,244.9,265.3z"/>
			<path class="st14" d="M245,265.3C245,265.3,245,265.3,245,265.3l-9.4-5.4c-0.6-0.3-1.5-0.3-2,0l-5.6,3.2c-0.6,0.3-1.5,0.3-2,0
				l-1.8-1c-0.6-0.3-1.5-0.3-2,0l-9.3,5.4c0,0,0,0,0,0c-0.5-0.3-0.5-0.8,0-1.1l9.3-5.4c0.6-0.3,1.5-0.3,2,0l1.8,1
				c0.5,0.3,1.5,0.3,2,0l5.6-3.2c0.6-0.3,1.5-0.3,2,0l9.3,5.4C245.5,264.5,245.5,265,245,265.3z"/>
			<path class="st14" d="M258.2,257.7C258.2,257.7,258.2,257.6,258.2,257.7l-13.2-7.6c-0.6-0.3-1.5-0.3-2,0l-9.3,5.4c0,0,0,0,0,0
				c-0.5-0.3-0.5-0.8,0-1.1l9.3-5.4c0.5-0.3,1.5-0.3,2,0l13.1,7.6C258.7,256.8,258.7,257.3,258.2,257.7z"/>
			<path class="st6" d="M227,262.2c-0.4,0-0.7-0.1-1-0.2l-1.8-1c-0.3-0.2-0.6-0.2-1-0.2v1.1c0.4,0,0.7,0.1,1,0.2l1.8,1
				c0.3,0.2,0.6,0.2,1,0.2V262.2z"/>
			<path class="st6" d="M234.6,259.7c0.4,0,0.7,0.1,1,0.2l9.3,5.4c0,0,0,0,0,0c0.5-0.3,0.5-0.8,0-1.1l-9.3-5.4
				c-0.3-0.2-0.6-0.2-1-0.2V259.7z"/>
			<path class="st6" d="M258.2,256.5l-13.1-7.6c-0.3-0.2-0.7-0.2-1.1-0.2v1.1c0.4,0,0.8,0.1,1.1,0.2l13.1,7.6c0,0,0,0,0,0
				C258.7,257.3,258.7,256.8,258.2,256.5z"/>
			<g>
				<path class="st1" d="M228.3,278.9c0-0.2-0.1-0.4-0.4-0.6l-20.7-11.9c-0.6-0.3-1.5-0.3-2,0l-1,0.6c-0.3,0.2-0.4,0.4-0.4,0.6
					c0,0.2,0,0.8,0,1c0,0.2,0.1,0.4,0.4,0.6l20.7,11.9c0.6,0.3,1.5,0.3,2,0l1-0.6c0.3-0.2,0.4-0.4,0.4-0.6
					C228.3,279.7,228.3,279.1,228.3,278.9z"/>
				<path class="st2" d="M227.9,278.4l-20.7-11.9c-0.6-0.3-1.5-0.3-2,0l-1,0.6c-0.6,0.3-0.6,0.8,0,1.2l20.7,11.9
					c0.6,0.3,1.5,0.3,2,0l1-0.6C228.5,279.2,228.5,278.7,227.9,278.4z"/>
				<path class="st3" d="M225.9,280.3v0.9c-0.4,0-0.7-0.1-1-0.2l-20.7-11.9c-0.3-0.2-0.4-0.4-0.4-0.6c0-0.1,0-0.6,0-0.9
					c0,0.2,0.2,0.3,0.4,0.5l20.7,12C225.2,280.3,225.5,280.3,225.9,280.3z"/>
			</g>
		</g>
		<g>
			<path class="st1" d="M239.6,235c0-0.2-0.1-0.4-0.4-0.6l-9.3-5.4c-0.6-0.3-1.5-0.3-2,0l-5.6,3.2c-0.6,0.3-1.5,0.3-2,0l-1.8-1
				c-0.6-0.3-1.5-0.3-2,0l-9.3,5.4c-0.3,0.2-0.4,0.4-0.4,0.6c0,0.2,0,1,0,1.2c0,0.2,0.1,0.4,0.4,0.6l13.1,7.6c0.6,0.3,1.5,0.3,2,0
				l16.9-9.8c0.3-0.2,0.4-0.4,0.4-0.6C239.6,236,239.6,235.2,239.6,235z"/>
			<path class="st2" d="M222.3,245.3l16.9-9.8c0.6-0.3,0.6-0.8,0-1.2l-9.3-5.4c-0.6-0.3-1.5-0.3-2,0l-5.6,3.2c-0.6,0.3-1.5,0.3-2,0
				l-1.8-1c-0.6-0.3-1.5-0.3-2,0l-9.3,5.4c-0.6,0.3-0.6,0.8,0,1.2l13.1,7.6C220.9,245.7,221.8,245.7,222.3,245.3z"/>
			<path class="st10" d="M211,236.6l5.6-3.2c0.6-0.3,1.5-0.3,2,0l9.3,5.4c0.6,0.3,0.6,0.8,0,1.2l-5.6,3.2c-0.6,0.3-1.5,0.3-2,0
				l-9.3-5.4C210.4,237.4,210.4,236.9,211,236.6z"/>
			<path class="st12" d="M211,236.6l5.6-3.2c0.6-0.3,1.5-0.3,2,0l9.3,5.4c0.6,0.3,0.6,0.8,0,1.2l-5.6,3.2c-0.6,0.3-1.5,0.3-2,0
				l-9.3-5.4C210.4,237.4,210.4,236.9,211,236.6z"/>
			<path class="st10" d="M216,233.7l-0.7,0.4l1.5,0.9l-3.1,1.8l-1.5-0.9l-0.7,0.4l11.4,6.6l0.7-0.4l-1.5-0.9l3.1-1.8l1.5,0.9
				l0.7-0.4L216,233.7z M214.4,237.2l3.1-1.8l3.1,1.8l-3.1,1.8L214.4,237.2z M221.3,241.1l-3.1-1.8l3.1-1.8l3.1,1.8L221.3,241.1z"/>
			<path class="st3" d="M221.3,245.6v1.2c-0.4,0-0.7-0.1-1-0.2l-13.1-7.6c-0.3-0.2-0.4-0.4-0.4-0.6v-1.2c0,0.2,0.1,0.4,0.4,0.6
				l13.1,7.6C220.6,245.5,220.9,245.6,221.3,245.6z"/>
		</g>
		<g>
			<path class="st1" d="M536.6,248l-185-106.8c-1.5-0.9-3.4-1.3-5.4-1.3c-2,0-3.9,0.5-5.4,1.3l-90.3,52.2c-1.9,1.1-3.1,2.9-3.1,4.7
				v8.7c0,1.9,1.1,3.6,3.1,4.8l185,106.8c1.5,0.9,3.4,1.3,5.4,1.3c2,0,3.9-0.5,5.4-1.3l90.3-52.2c1.9-1.1,3.1-2.9,3.1-4.7v-8.7
				C539.6,250.9,538.5,249.1,536.6,248z M342.2,152.4c2.2-1.3,5.8-1.3,8.1,0l181.4,104.7l-86.8,50.1c-2.2,1.3-5.8,1.3-8.1,0
				L255.4,202.5L342.2,152.4z"/>
			<path class="st3" d="M440.8,308.2c-1.5,0-2.9-0.3-4-1L255.4,202.5l17-9.8l-9.9-6.3l-12.1,7c-1.9,1.1-3.1,2.9-3.1,4.7v8.7
				c0,1.9,1.1,3.6,3.1,4.8l185,106.8c1.5,0.9,3.4,1.3,5.4,1.3c0,0,0,0,0,0V308.2z"/>
			<path class="st2" d="M536.6,248l-185-106.8c-1.5-0.9-3.4-1.3-5.4-1.3c-2,0-3.9,0.5-5.4,1.3l-90.3,52.2c-1.9,1.1-3.1,2.9-3.1,4.7
				c0,1.9,1.1,3.6,3.1,4.8l2.1,1.2l182.8,105.6c1.5,0.9,3.4,1.3,5.4,1.3c2,0,3.9-0.5,5.4-1.3l88.2-50.9l2.1-1.2
				c1.9-1.1,3.1-2.9,3.1-4.7C539.6,250.9,538.5,249.1,536.6,248z M444.9,307.2c-2.2,1.3-5.8,1.3-8.1,0L255.4,202.5l86.8-50.1
				c2.2-1.3,5.8-1.3,8.1,0l181.4,104.7L444.9,307.2z"/>
			<path class="st3" d="M535.2,255.1l-3.5,2L350.2,152.4c-2.2-1.3-5.8-1.3-8.1,0l-86.8,50.1l-3.5-2c-2.2-1.3-2.2-3.4,0-4.7
				l90.3-52.1c2.2-1.3,5.8-1.3,8.1,0l185,106.8C537.4,251.7,537.4,253.8,535.2,255.1z"/>
			<path class="st1" d="M346.2,151.4v-8.7c-1.5,0-2.9,0.3-4,1l-90.3,52.1c-2.2,1.3-2.2,3.4,0,4.7l3.5,2l86.8-50.1
				C343.3,151.7,344.7,151.4,346.2,151.4z"/>
		</g>
		<g>
			<g>
				<path class="st10" d="M519.1,254.9c0-0.4-0.3-0.8-0.8-1.2l-45.2-26.1c-1.1-0.6-2.9-0.6-4,0l-75.4,43.6c-0.6,0.3-0.8,0.7-0.8,1.2
					c0,0.4,0,1.8,0,2.1c0,0.4,0.3,0.8,0.8,1.2l45.2,26.1c1.1,0.6,2.9,0.6,4,0l75.4-43.6c0.6-0.3,0.8-0.7,0.8-1.2
					C519.1,256.7,519.1,255.3,519.1,254.9z"/>
				<path class="st14" d="M440.8,300.1v2.1c-0.7,0-1.5-0.2-2-0.5l-45.2-26.1c-0.6-0.3-0.8-0.7-0.8-1.2c0-0.4,0-1.8,0-2.1
					c0,0.4,0.3,0.8,0.8,1.2l45.2,26.1C439.4,300,440.1,300.1,440.8,300.1z"/>
				<path class="st10" d="M472.4,227.4h-2.6C470.6,227.2,471.6,227.2,472.4,227.4z"/>
				<path class="st14" d="M519.1,255.1v2c0,0.4-0.3,0.8-0.8,1.2l-75.4,43.6c-0.6,0.3-1.3,0.5-2,0.5v-2.1c0.7,0,1.5-0.2,2-0.5
					l75.4-43.6C518.8,255.8,519,255.5,519.1,255.1z"/>
				<path class="st10" d="M442.8,299.7l75.4-43.6c1.1-0.6,1.1-1.7,0-2.3l-45.2-26.1c-1.1-0.6-2.9-0.6-4,0l-75.4,43.6
					c-1.1,0.6-1.1,1.7,0,2.3l45.2,26.1C439.9,300.3,441.7,300.3,442.8,299.7z"/>
				<path class="st12" d="M442.8,299.7l75.4-43.6c1.1-0.6,1.1-1.7,0-2.3l-45.2-26.1c-1.1-0.6-2.9-0.6-4,0l-75.4,43.6
					c-1.1,0.6-1.1,1.7,0,2.3l45.2,26.1C439.9,300.3,441.7,300.3,442.8,299.7z"/>
			</g>
			<g>
				<path class="st10" d="M437.8,286.3l-8.8,5.1c-0.2,0.1-0.3,0.3-0.2,0.3c0.1,0.1,0.4,0,0.6-0.1l8.5-4.9l2.9,1.7c0.1,0,0.1,0,0.2,0
					l4.6-2.6c0.1,0,0.1-0.1,0.1-0.2l0-3.4l7.1-4.1c0.3,0.1,0.6,0,0.9-0.1c0.3-0.2,0.3-0.5,0-0.6c-0.3-0.2-0.8-0.2-1.1,0
					c-0.2,0.1-0.3,0.3-0.2,0.5l-7,4c-0.1,0-0.1,0.1-0.1,0.2l0,3.4l-4.4,2.5l-2.9-1.7C437.9,286.2,437.8,286.2,437.8,286.3z"/>
				<path class="st10" d="M435.4,295.1l13.2-7.6c0.1,0,0.1-0.1,0.1-0.2l0-3.4l3.1-1.8c0.3,0.1,0.6,0,0.9-0.1c0.3-0.2,0.3-0.5,0-0.6
					c-0.3-0.2-0.8-0.2-1.1,0c-0.2,0.1-0.3,0.3-0.2,0.5l-3,1.7c-0.1,0-0.1,0.1-0.1,0.2l0,3.4l-13.3,7.7c-0.2,0.1-0.3,0.3-0.2,0.3
					C434.9,295.3,435.2,295.2,435.4,295.1z"/>
				<path class="st10" d="M510,251.6l-16.2,9.4c-0.1,0-0.1,0.1-0.1,0.2l0,3.4L456.4,286c-0.3-0.1-0.6,0-0.9,0.1
					c-0.3,0.2-0.3,0.5,0,0.6c0.3,0.2,0.8,0.2,1.1,0c0.2-0.1,0.3-0.3,0.2-0.5l37.1-21.4c0.1,0,0.1-0.1,0.1-0.2l0-3.4l16.3-9.4
					c0.2-0.1,0.3-0.3,0.2-0.3C510.5,251.4,510.2,251.5,510,251.6z"/>
				<path class="st10" d="M438.4,296.8l13.2-7.6c0.1,0,0.1-0.1,0.1-0.2l0-3.4l7.1-4.1c0.3,0.1,0.6,0.1,0.9-0.1
					c0.3-0.2,0.3-0.5,0-0.6c-0.3-0.2-0.8-0.2-1.1,0c-0.2,0.1-0.3,0.3-0.2,0.5l-7,4c-0.1,0-0.1,0.1-0.1,0.2l0,3.4l-13.3,7.7
					c-0.2,0.1-0.3,0.3-0.2,0.3C438,297,438.2,297,438.4,296.8z"/>
				<path class="st10" d="M484.1,236.7l-5.6,3.2c-0.1,0-0.1,0.1-0.1,0.2l0,3.4l-5.6,3.2c-0.3-0.1-0.6,0-0.9,0.1
					c-0.3,0.2-0.3,0.5,0,0.6c0.3,0.2,0.8,0.2,1.1,0c0.2-0.1,0.3-0.3,0.2-0.5l5.5-3.2c0.1,0,0.1-0.1,0.1-0.2l0-3.4l5.7-3.3
					c0.2-0.1,0.3-0.3,0.2-0.3C484.6,236.5,484.3,236.5,484.1,236.7z"/>
				<path class="st10" d="M513,253.3l-8.2,4.7c-0.3-0.1-0.6,0-0.9,0.1c-0.3,0.2-0.3,0.5,0,0.6c0.3,0.2,0.8,0.2,1.1,0
					c0.2-0.1,0.3-0.3,0.2-0.5l8.2-4.7c0.2-0.1,0.3-0.3,0.2-0.3C513.5,253.2,513.2,253.2,513,253.3z"/>
				<path class="st10" d="M451.2,247.2l1.2,0.7l-3.9,2.3l-6,0c0,0-0.1,0-0.1,0l-7.6,4.4c-0.1,0-0.1,0.1-0.1,0.2l0,3.5
					c0,0.1,0,0.1,0.1,0.2l1.2,0.7l-8.8,5.1c-0.1,0-0.1,0.1-0.1,0.2l0,3.4l-4.4,2.5l-4.4-2.5v-3.3l12.2-7.1c0.3,0.1,0.6,0,0.9-0.1
					c0.3-0.2,0.3-0.5,0-0.6c-0.3-0.2-0.8-0.2-1.1,0c-0.2,0.1-0.3,0.3-0.2,0.5l-12.1,7c-0.1,0-0.1,0.1-0.1,0.2v3.5
					c0,0.1,0,0.1,0.1,0.2l4.3,2.5l-14.6,8.4c-0.2,0.1-0.3,0.3-0.2,0.3c0.1,0.1,0.4,0,0.6-0.1l14.6-8.4l1.3,0.8l0,3.3l-11.7,6.8
					c-0.2,0.1-0.3,0.3-0.2,0.3c0.1,0.1,0.4,0,0.6-0.1l11.6-6.7c0.1,0,0.1-0.1,0.1-0.2l0-3.6c0-0.1,0-0.1-0.1-0.2l-1.2-0.7l4.3-2.5
					c0.1,0,0.1-0.1,0.1-0.2l0-3.4l8.9-5.2l10.3,5.9l-14.9,8.6c-0.1,0-0.1,0.1-0.1,0.2l0,5.2l-11.8,6.8c-0.2,0.1-0.3,0.3-0.2,0.3
					c0.1,0.1,0.4,0,0.6-0.1l11.7-6.7c0.1,0,0.1-0.1,0.1-0.2l0-5.2l15-8.7l7.4,4.3v3.3l-28.5,16.5c-0.2,0.1-0.3,0.3-0.2,0.3
					c0.1,0.1,0.4,0,0.6-0.1l28.4-16.4c0.1,0,0.1-0.1,0.1-0.2v-3.5c0-0.1,0-0.1-0.1-0.2l-7.3-4.2l5.4-3.1c0.3,0.1,0.6,0,0.9-0.1
					c0.3-0.2,0.3-0.5,0-0.6c-0.3-0.2-0.8-0.2-1.1,0c-0.2,0.1-0.3,0.3-0.2,0.5l-5.4,3.1l-10.3-5.9l8.7-5c0.3,0.1,0.6,0,0.9-0.1
					c0.3-0.2,0.3-0.5,0-0.6c-0.3-0.2-0.8-0.2-1.1,0c-0.2,0.1-0.3,0.3-0.2,0.5l-8.7,5l-1.3-0.8l0-3.3l7.5-4.3l6,0c0,0,0.1,0,0.1,0
					l4.2-2.4l4.2,2.4l-12.7,7.3c-0.3-0.1-0.6,0-0.9,0.1c-0.3,0.2-0.3,0.5,0,0.6c0.3,0.2,0.8,0.2,1.1,0c0.2-0.1,0.3-0.3,0.2-0.5
					l12.7-7.3l4.2,2.4l-8.5,4.9c-0.3-0.1-0.6,0-0.9,0.1c-0.3,0.2-0.3,0.5,0,0.6c0.3,0.2,0.8,0.2,1.1,0c0.2-0.1,0.3-0.3,0.2-0.5
					l8.5-4.9l7.2,4.2l-2.7,1.5l-2.9-1.7c-0.1,0-0.1,0-0.2,0l-3.4,2c-0.3-0.1-0.6,0-0.9,0.1c-0.3,0.2-0.3,0.5,0,0.6
					c0.3,0.2,0.8,0.2,1.1,0c0.2-0.1,0.3-0.3,0.2-0.5l3.2-1.8l2.9,1.7c0.1,0,0.1,0,0.2,0l2.9-1.7l2.7,1.5l-14.2,8.2
					c-0.3-0.1-0.6,0-0.9,0.1c-0.3,0.2-0.3,0.5,0,0.6c0.3,0.2,0.8,0.2,1.1,0c0.2-0.1,0.3-0.3,0.2-0.5l14.2-8.2l1.3,0.8l0,3.3l-9,5.2
					c-0.1,0-0.1,0.1-0.1,0.2l0,3.4l-5.6,3.2c-0.3-0.1-0.6,0-0.9,0.1c-0.3,0.2-0.3,0.5,0,0.6c0.3,0.2,0.8,0.2,1.1,0
					c0.2-0.1,0.3-0.3,0.2-0.5l5.5-3.2c0.1,0,0.1-0.1,0.1-0.2l0-3.4l9-5.2c0.1,0,0.1-0.1,0.1-0.2l0-3.5c0-0.1,0-0.1-0.1-0.2l-1.2-0.7
					l7.3-4.2c0.1,0,0.1-0.1,0.1-0.2l0-3.4l14.8-8.5c0.2-0.1,0.3-0.3,0.2-0.3c-0.1-0.1-0.4,0-0.6,0.1l-14.7,8.5
					c-0.1,0-0.1,0.1-0.1,0.2l0,3.4l-7.4,4.3l-2.7-1.5l4.3-2.5c0.1,0,0.1-0.1,0.1-0.2l0-3.4l17.8-10.3c0.2-0.1,0.3-0.3,0.2-0.3
					c-0.1-0.1-0.4,0-0.6,0.1L474,251.3c-0.1,0-0.1,0.1-0.1,0.2l0,3.4l-4.4,2.5l-7.2-4.2l7.3-4.2c0.1,0,0.1-0.1,0.1-0.2l0-6.9
					l11.8-6.8c0.2-0.1,0.3-0.3,0.2-0.3c-0.1-0.1-0.4,0-0.6,0.1l-11.7,6.7c-0.1,0-0.1,0.1-0.1,0.2v6.9l-7.4,4.3l-4.2-2.4l7.3-4.2
					c0.1,0,0.1-0.1,0.1-0.2l0-5.2l13.3-7.7c0.2-0.1,0.3-0.3,0.2-0.3c-0.1-0.1-0.4,0-0.6,0.1l-13.2,7.6c-0.1,0-0.1,0.1-0.1,0.2l0,5.2
					l-7.4,4.3l-4.2-2.4l6.9-4c0.3,0.1,0.6,0,0.9-0.1c0.3-0.2,0.3-0.5,0-0.6c-0.3-0.2-0.8-0.2-1.1,0c-0.2,0.1-0.3,0.3-0.2,0.5l-6.9,4
					l-1.3-0.8l0-3.3l22.4-12.9c0.2-0.1,0.3-0.3,0.2-0.3c-0.1-0.1-0.4,0-0.6,0.1l-22.3,12.9c-0.1,0-0.1,0.1-0.1,0.2v3.5
					C451.1,247.1,451.1,247.2,451.2,247.2z"/>
				<path class="st10" d="M506.9,249.8l-16.2,9.4c-0.1,0-0.1,0.1-0.1,0.2v3.4l-14.8,8.6c-0.3-0.1-0.6,0-0.9,0.1
					c-0.3,0.2-0.3,0.5,0,0.6c0.3,0.2,0.8,0.2,1.1,0c0.2-0.1,0.3-0.3,0.2-0.5l14.8-8.5c0.1,0,0.1-0.1,0.1-0.2v-3.4l16.3-9.4
					c0.2-0.1,0.3-0.3,0.2-0.3C507.4,249.6,507.2,249.7,506.9,249.8z"/>
				<path class="st10" d="M488.7,239.3l-3.6,2.1c-0.3-0.1-0.6,0-0.9,0.1c-0.3,0.2-0.3,0.5,0,0.6c0.3,0.2,0.8,0.2,1.1,0
					c0.2-0.1,0.3-0.3,0.2-0.5l3.6-2.1c0.2-0.1,0.3-0.3,0.2-0.3C489.2,239.1,488.9,239.2,488.7,239.3z"/>
				<path class="st10" d="M405,277.5l5.6-3.2c0.1,0,0.1-0.1,0.1-0.2v-3.4l4.1-2.3c0.3,0.1,0.6,0,0.9-0.1c0.3-0.2,0.3-0.5,0-0.6
					c-0.3-0.2-0.8-0.2-1.1,0c-0.2,0.1-0.3,0.3-0.2,0.5l-4,2.3c-0.1,0-0.1,0.1-0.1,0.2v3.4l-5.7,3.3c-0.2,0.1-0.3,0.3-0.2,0.3
					C404.5,277.7,404.8,277.6,405,277.5z"/>
				<path class="st10" d="M398.9,274l3.6-2.1c0.3,0.1,0.6,0,0.9-0.1c0.3-0.2,0.3-0.5,0-0.6c-0.3-0.2-0.8-0.2-1.1,0
					c-0.2,0.1-0.3,0.3-0.2,0.5l-3.6,2.1c-0.2,0.1-0.3,0.3-0.2,0.3C398.4,274.2,398.7,274.1,398.9,274z"/>
				<path class="st10" d="M401.9,275.8l5.6-3.2c0.1,0,0.1-0.1,0.1-0.2l0-3.4l5.6-3.2c0.3,0.1,0.6,0,0.9-0.1c0.3-0.2,0.3-0.5,0-0.6
					c-0.3-0.2-0.8-0.2-1.1,0c-0.2,0.1-0.3,0.3-0.2,0.5l-5.5,3.2c-0.1,0-0.1,0.1-0.1,0.2l0,3.4l-5.7,3.3c-0.2,0.1-0.3,0.3-0.2,0.3
					C401.4,275.9,401.7,275.9,401.9,275.8z"/>
				<path class="st10" d="M446.5,242.8l0,3.3l-2.1,1.2c-0.3-0.1-0.6,0-0.9,0.1c-0.3,0.2-0.3,0.5,0,0.6c0.3,0.2,0.8,0.2,1.1,0
					c0.2-0.1,0.3-0.3,0.2-0.5l2-1.2c0.1,0,0.1-0.1,0.1-0.2l0-3.6L446.5,242.8z"/>
				<path class="st10" d="M499.3,245.4l-13.2,7.6c-0.1,0-0.1,0.1-0.1,0.2l0,6.9l-16.6,9.6c-0.1,0-0.1,0.1-0.1,0.2l0,5.2l-5.3,3
					c-0.3-0.1-0.6,0-0.9,0.1c-0.3,0.2-0.3,0.5,0,0.6c0.3,0.2,0.8,0.2,1.1,0c0.2-0.1,0.3-0.3,0.2-0.5l5.2-3c0.1,0,0.1-0.1,0.1-0.2
					l0-5.2l16.6-9.6c0.1,0,0.1-0.1,0.1-0.2l0-6.9l13.3-7.7c0.2-0.1,0.3-0.3,0.2-0.3C499.8,245.3,499.6,245.3,499.3,245.4z"/>
				<path class="st10" d="M502.4,247.2l-4.1,2.3c-0.1,0-0.1,0.1-0.1,0.2l0,1.6l-5.6,3.2c-0.3-0.1-0.6,0-0.9,0.1
					c-0.3,0.2-0.3,0.5,0,0.6c0.3,0.2,0.8,0.2,1.1,0c0.2-0.1,0.3-0.3,0.2-0.5l5.5-3.2c0.1,0,0.1-0.1,0.1-0.2l0-1.6l4.2-2.4
					c0.2-0.1,0.3-0.3,0.2-0.3C502.9,247,502.6,247.1,502.4,247.2z"/>
				<path class="st10" d="M434.6,281l-11.8,6.8c-0.2,0.1-0.3,0.3-0.2,0.3c0.1,0.1,0.4,0,0.6-0.1l11.7-6.7c0.1,0,0.1-0.1,0.1-0.2
					l0-3.4l8.6-5c0.3,0.1,0.6,0,0.9-0.1c0.3-0.2,0.3-0.5,0-0.6c-0.3-0.2-0.8-0.2-1.1,0c-0.2,0.1-0.3,0.3-0.2,0.5l-8.5,4.9
					c-0.1,0-0.1,0.1-0.1,0.2L434.6,281z"/>
				<path class="st10" d="M428.5,277.5l-11.8,6.8c-0.2,0.1-0.3,0.3-0.2,0.3c0.1,0.1,0.4,0,0.6-0.1l11.7-6.7c0.1,0,0.1-0.1,0.1-0.2
					v-6.9l5.6-3.2c0.3,0.1,0.6,0,0.9-0.1c0.3-0.2,0.3-0.5,0-0.6c-0.3-0.2-0.8-0.2-1.1,0c-0.2,0.1-0.3,0.3-0.2,0.5l-5.5,3.2
					c-0.1,0-0.1,0.1-0.1,0.2L428.5,277.5z"/>
			</g>
			<g id="Chip_4_">
				<g id="XMLID_18_">
					<g id="XMLID_21_">
						<path class="st3" d="M414.4,277.9c0,0.2,0.1,0.4,0.4,0.6l13.6,7.9c0.3,0.2,0.6,0.2,1,0.2l0,2.2c-0.4,0-0.7-0.1-1-0.2l-13-7.5
							c-0.6-0.3-1-0.5-1-1.1L414.4,277.9z"/>
						<path id="XMLID_22_" class="st2" d="M430.5,286.3l13.6-7.9c0.6-0.3,0.6-0.8,0-1.2l-13.6-7.9c-0.6-0.3-1.4-0.3-2,0l-13.6,7.9
							c-0.6,0.3-0.6,0.8,0,1.2l13.6,7.9C429,286.6,429.9,286.6,430.5,286.3z"/>
						<path class="st1" d="M444.5,277.9l0,1.9c0,0.6-0.4,0.8-1,1.1l-13,7.5c-0.3,0.2-0.6,0.2-1,0.2l0-2.2c0.4,0,0.7-0.1,1-0.2
							l13.6-7.9C444.3,278.3,444.5,278.1,444.5,277.9z"/>
					</g>
					<g id="XMLID_20_">
						<path class="st20" d="M441,277.7c0,0.1,0.1,0.2,0.1,0.2c0,0.2-0.1,0.4-0.3,0.5l-10.6,6.1c-0.4,0.2-1,0.2-1.4,0l-10.6-6.1
							c-0.2-0.1-0.3-0.3-0.3-0.5c0-0.2,0.1-0.4,0.3-0.5l10.6-6.1c0.4-0.2,1-0.2,1.4,0l10.6,6.1C440.9,277.5,441,277.6,441,277.7z
							 M440.7,277.5L440.7,277.5L440.7,277.5z M418.1,278c0,0.1,0.1,0.1,0.2,0.2l10.6,6.1c0.3,0.2,0.8,0.2,1.1,0l10.6-6.1
							c0.1-0.1,0.2-0.2,0.2-0.2c0-0.1-0.1-0.2-0.2-0.2l-10.6-6.1c-0.3-0.2-0.8-0.2-1.1,0l-10.6,6.1
							C418.2,277.7,418.1,277.8,418.1,278C418.1,277.9,418.1,278,418.1,278z"/>
					</g>
					<g id="XMLID_19_">
						<path class="st20" d="M436.9,277.8c0,0,0,0.1,0,0.1c0,0.1-0.1,0.2-0.2,0.3l-7,4c-0.2,0.1-0.5,0.1-0.7,0l-7-4
							c-0.1-0.1-0.2-0.2-0.2-0.3c0-0.1,0.1-0.2,0.2-0.3l7-4c0.2-0.1,0.5-0.1,0.7,0l7,4C436.8,277.7,436.9,277.7,436.9,277.8z
							 M422.2,277.9C422.2,277.9,422.2,277.9,422.2,277.9l7.1,4.1c0.1,0,0.3,0,0.4,0l7-4c0,0,0,0,0,0c0,0,0,0,0,0l-7-4
							c-0.1-0.1-0.3-0.1-0.4,0l0,0L422.2,277.9C422.2,277.9,422.2,277.9,422.2,277.9z"/>
					</g>
				</g>
			</g>
		</g>
		<g>
			<path class="st10" d="M384.2,235.1c-1.2-0.7-1.9-1.9-1.9-3.3v-0.2c0-1.4-0.7-2.6-1.9-3.3l-24.5-13.9v1.1l24,13.7
				c0.9,0.5,1.4,1.5,1.4,2.5v0.2c0,1.7,0.9,3.2,2.4,4.1l32.6,18.8v-1.1L384.2,235.1z"/>
			<path class="st14" d="M384.2,235.1c-1.2-0.7-1.9-1.9-1.9-3.3v-0.2c0-1.4-0.7-2.6-1.9-3.3l-24.5-13.9v1.1l24,13.7
				c0.9,0.5,1.4,1.5,1.4,2.5v0.2c0,1.7,0.9,3.2,2.4,4.1l32.6,18.8v-1.1L384.2,235.1z"/>
			<path class="st12" d="M416.3,253.7l-32.2-18.6c-1.2-0.7-1.9-1.9-1.9-3.3v-0.2c0-1.4-0.7-2.6-1.9-3.3l-24.5-13.9l11.4-6.6
				l24.5,14.2c1.2,0.7,1.9,1.9,1.9,3.3l0,0c0,1.4,0.7,2.6,1.9,3.3l32.2,18.6L416.3,253.7z"/>
			<g>
				<path class="st19" d="M393.8,229.5c-1.2-0.7-1.9-1.9-1.9-3.3V226c0-1.4-0.7-2.6-1.9-3.3l-24.5-13.9l-0.8,0.4l24.5,13.9
					c1.2,0.7,1.9,1.9,1.9,3.3v0.2c0,1.4,0.7,2.6,1.9,3.3l32.2,18.6l0.8-0.4L393.8,229.5z"/>
				<path class="st19" d="M390.2,231.6c-1.2-0.7-1.9-1.9-1.9-3.3v-0.2c0-1.4-0.7-2.6-1.9-3.3l-24.5-13.9l-0.8,0.4l24.5,13.9
					c1.2,0.7,1.9,1.9,1.9,3.3v0.2c0,1.4,0.7,2.6,1.9,3.3l32.2,18.6l0.8-0.4L390.2,231.6z"/>
				<path class="st19" d="M386.6,233.7c-1.2-0.7-1.9-1.9-1.9-3.3v-0.2c0-1.4-0.7-2.6-1.9-3.3L358.3,213l-0.8,0.4l24.5,13.9
					c1.2,0.7,1.9,1.9,1.9,3.3v0.2c0,1.4,0.7,2.6,1.9,3.3l32.2,18.6l0.8-0.4L386.6,233.7z"/>
			</g>
		</g>
		<g id="Chip_3_">
			<g id="XMLID_13_">
				<g id="XMLID_16_">
					<path class="st3" d="M411.1,252.8c0,0.2,0.1,0.4,0.4,0.6l8.1,4.7c0.3,0.2,0.6,0.2,1,0.2l0,2.2c-0.4,0-0.7-0.1-1-0.2l-7.5-4.3
						c-0.6-0.3-1-0.5-1-1.1L411.1,252.8z"/>
					<path id="XMLID_17_" class="st2" d="M421.6,258l13.6-7.9c0.6-0.3,0.6-0.8,0-1.2l-8.1-4.7c-0.6-0.3-1.4-0.3-2,0l-13.6,7.9
						c-0.6,0.3-0.6,0.8,0,1.2l8.1,4.7C420.2,258.3,421.1,258.3,421.6,258z"/>
					<path class="st1" d="M435.6,249.6l0,1.9c0,0.6-0.4,0.8-1,1.1l-13,7.5c-0.3,0.2-0.6,0.2-1,0.2l0-2.2c0.4,0,0.7-0.1,1-0.2
						l13.6-7.9C435.5,250,435.6,249.8,435.6,249.6z"/>
				</g>
				<g id="XMLID_15_">
					<path class="st20" d="M432.2,249.3c0,0.1,0.1,0.2,0.1,0.2c0,0.2-0.1,0.4-0.3,0.5l-10.6,6.1c-0.4,0.2-1,0.2-1.4,0l-5.1-2.9
						c-0.2-0.1-0.3-0.3-0.3-0.5c0-0.2,0.1-0.4,0.3-0.5l10.6-6.1c0.4-0.2,1-0.2,1.4,0l5.1,2.9C432,249.2,432.1,249.2,432.2,249.3z
						 M431.8,249.2L431.8,249.2L431.8,249.2z M414.8,252.9c0,0.1,0.1,0.1,0.2,0.2l5.1,2.9c0.3,0.2,0.8,0.2,1.1,0l10.6-6.1
						c0.1-0.1,0.2-0.2,0.2-0.2c0-0.1-0.1-0.2-0.2-0.2l-5.1-2.9c-0.3-0.2-0.8-0.2-1.1,0l-10.6,6.1
						C414.9,252.6,414.8,252.7,414.8,252.9C414.8,252.8,414.8,252.8,414.8,252.9z"/>
				</g>
				<g id="XMLID_14_">
					<path class="st20" d="M428.1,249.5c0,0,0,0.1,0,0.1c0,0.1-0.1,0.2-0.2,0.3l-7,4c-0.2,0.1-0.5,0.1-0.7,0l-1.5-0.8
						c-0.1-0.1-0.2-0.2-0.2-0.3c0-0.1,0.1-0.2,0.2-0.3l7-4c0.2-0.1,0.5-0.1,0.7,0l1.4,0.8C428,249.4,428,249.4,428.1,249.5z
						 M418.9,252.8C418.9,252.8,418.9,252.8,418.9,252.8l1.5,0.9c0.1,0,0.3,0,0.4,0l7-4c0,0,0,0,0,0c0,0,0,0,0,0l-1.4-0.8
						c-0.1-0.1-0.3-0.1-0.4,0l0,0L418.9,252.8C418.9,252.8,418.9,252.8,418.9,252.8z"/>
				</g>
			</g>
		</g>
		<g>
			<g>
				<path class="st12" d="M413.5,185.7L413.5,185.7L357,153.1c-0.4-0.2-0.9-0.2-1.4,0.1l-37.6,21.7c-1.1,0.6-2,2.2-2,3.5l0,1.9
					c0,0.6,0.2,1.1,0.6,1.3l56.8,32.8c0.4,0.2,0.9,0.2,1.4-0.1l37.6-21.7c1.1-0.6,2-2.2,2-3.5v-1.9
					C414.3,186.4,414,185.9,413.5,185.7z"/>
				<path class="st13" d="M373.3,214.4C373.3,214.4,373.3,214.4,373.3,214.4l-56.8-32.8c-0.4-0.2-0.6-0.7-0.6-1.3v-1.9
					c0-0.6,0.2-1.2,0.5-1.9l56.8,32.8c-0.3,0.6-0.5,1.3-0.5,1.9v1.9C372.7,213.7,372.9,214.2,373.3,214.4z"/>
				<path class="st21" d="M372.7,213.1l0-1.9c0-1.3,0.9-2.9,2-3.5l37.6-21.7c1.1-0.6,2-0.1,2,1.2v1.9c0,1.3-0.9,2.9-2,3.5
					l-37.6,21.7C373.6,214.9,372.7,214.4,372.7,213.1z"/>
			</g>
			<path class="st10" d="M378.1,207.6v3c0,0.4-0.3,0.9-0.6,1.1l-0.5,0.3c-0.3,0.1-0.5,0.1-0.5-0.1c0-0.1-0.1-0.1-0.1-0.3v-3
				c0-0.4,0.3-0.8,0.6-1l0.5-0.3c0.1,0,0.1-0.1,0.2-0.1C378,207.1,378.1,207.3,378.1,207.6z"/>
			<path class="st8" d="M378.1,207.6v3c0,0.4-0.3,0.9-0.6,1.1l-0.5,0.3c-0.3,0.1-0.5,0.1-0.5-0.1c0-0.1-0.1-0.1-0.1-0.3v-3
				c0-0.4,0.3-0.8,0.6-1l0.5-0.3c0.1,0,0.1-0.1,0.2-0.1C378,207.1,378.1,207.3,378.1,207.6z"/>
			<path class="st10" d="M380.8,206v3c0,0.4-0.3,0.9-0.6,1.1l-0.5,0.3c-0.3,0.1-0.5,0.1-0.5-0.1c0-0.1-0.1-0.1-0.1-0.3v-3
				c0-0.4,0.3-0.8,0.6-1l0.5-0.3c0.1,0,0.1-0.1,0.2-0.1C380.7,205.6,380.8,205.7,380.8,206z"/>
			<path class="st8" d="M380.8,206v3c0,0.4-0.3,0.9-0.6,1.1l-0.5,0.3c-0.3,0.1-0.5,0.1-0.5-0.1c0-0.1-0.1-0.1-0.1-0.3v-3
				c0-0.4,0.3-0.8,0.6-1l0.5-0.3c0.1,0,0.1-0.1,0.2-0.1C380.7,205.6,380.8,205.7,380.8,206z"/>
			<path class="st10" d="M383.5,204.5v3c0,0.4-0.3,0.9-0.6,1.1l-0.5,0.3c-0.3,0.1-0.5,0.1-0.5-0.1c0-0.1-0.1-0.1-0.1-0.3v-3
				c0-0.4,0.3-0.8,0.6-1l0.5-0.3c0.1,0,0.1-0.1,0.2-0.1C383.4,204,383.5,204.2,383.5,204.5z"/>
			<path class="st8" d="M383.5,204.5v3c0,0.4-0.3,0.9-0.6,1.1l-0.5,0.3c-0.3,0.1-0.5,0.1-0.5-0.1c0-0.1-0.1-0.1-0.1-0.3v-3
				c0-0.4,0.3-0.8,0.6-1l0.5-0.3c0.1,0,0.1-0.1,0.2-0.1C383.4,204,383.5,204.2,383.5,204.5z"/>
			<path class="st10" d="M386.2,202.9v3c0,0.4-0.3,0.9-0.6,1.1l-0.5,0.3c-0.3,0.1-0.5,0.1-0.5-0.1c0-0.1-0.1-0.1-0.1-0.3v-3
				c0-0.4,0.3-0.8,0.6-1l0.5-0.3c0.1,0,0.1-0.1,0.2-0.1C386.1,202.4,386.2,202.6,386.2,202.9z"/>
			<path class="st8" d="M386.2,202.9v3c0,0.4-0.3,0.9-0.6,1.1l-0.5,0.3c-0.3,0.1-0.5,0.1-0.5-0.1c0-0.1-0.1-0.1-0.1-0.3v-3
				c0-0.4,0.3-0.8,0.6-1l0.5-0.3c0.1,0,0.1-0.1,0.2-0.1C386.1,202.4,386.2,202.6,386.2,202.9z"/>
			<path class="st10" d="M377.8,207.4v3c0,0.4-0.3,0.9-0.6,1.1l-0.5,0.3c-0.1,0-0.1,0.1-0.2,0.1c0-0.1-0.1-0.1-0.1-0.3v-3
				c0-0.4,0.3-0.8,0.6-1l0.5-0.3c0.1,0,0.1-0.1,0.2-0.1C377.8,207.2,377.8,207.3,377.8,207.4z"/>
			<path class="st10" d="M380.5,205.8l0,3c0,0.4-0.3,0.9-0.6,1.1l-0.5,0.3c-0.1,0-0.1,0.1-0.2,0.1c0-0.1-0.1-0.1-0.1-0.3v-3
				c0-0.4,0.3-0.8,0.6-1l0.5-0.3c0.1,0,0.1-0.1,0.2-0.1C380.5,205.7,380.5,205.7,380.5,205.8z"/>
			<path class="st10" d="M383.2,204.3v3c0,0.4-0.3,0.9-0.6,1.1l-0.5,0.3c-0.1,0-0.1,0.1-0.2,0.1c0-0.1-0.1-0.1-0.1-0.3v-3
				c0-0.4,0.3-0.8,0.6-1l0.5-0.3c0.1,0,0.1-0.1,0.2-0.1C383.2,204.1,383.2,204.2,383.2,204.3z"/>
			<path class="st10" d="M385.9,202.7v3c0,0.4-0.3,0.9-0.6,1.1l-0.5,0.3c-0.1,0-0.1,0.1-0.2,0.1c0-0.1-0.1-0.1-0.1-0.3v-3
				c0-0.4,0.3-0.8,0.6-1l0.5-0.3c0.1,0,0.1-0.1,0.2-0.1C385.9,202.6,385.9,202.6,385.9,202.7z"/>
		</g>
		<g>
			<g>
				<path class="st1" d="M320.2,209.5c0-0.4-0.3-0.8-0.8-1.2l-6.1-3.5c-1.1-0.6-2.9-0.6-4,0l-6.6,3.8c-0.6,0.3-0.8,0.7-0.8,1.2
					c0,0.4,0,2.4,0,2.8c0,0.4,0.3,0.8,0.8,1.2l6.1,3.5c1.1,0.6,2.9,0.6,4,0l6.6-3.8c0.6-0.3,0.8-0.8,0.8-1.2
					C320.2,211.8,320.2,209.9,320.2,209.5z"/>
				<path class="st2" d="M308.7,214.4l-6.1-3.5c-1.1-0.6-1.1-1.7,0-2.3l6.6-3.8c1.1-0.6,2.9-0.6,4,0l6.1,3.5c1.1,0.6,1.1,1.7,0,2.3
					l-6.6,3.8C311.6,215,309.8,215,308.7,214.4z"/>
				<path class="st3" d="M310.7,214.9v2.8c-0.7,0-1.5-0.2-2-0.5l-6.1-3.5c-0.6-0.3-0.8-0.7-0.8-1.2v-2.8c0,0,0-0.1,0-0.1
					c-0.1,0.5,0.2,1,0.8,1.3l6.1,3.6C309.3,214.7,310,214.9,310.7,214.9z"/>
			</g>
			<g>
				<g>
					<path class="st14" d="M316.4,206.9h-2.3c-1.9-0.8-4.4-0.8-6.3,0h-2.2v2.5l0,0c0,0.8,0.5,1.6,1.6,2.2c2.1,1.2,5.5,1.2,7.6,0
						c1.1-0.6,1.6-1.4,1.6-2.2l0,0V206.9z"/>
					<path class="st12" d="M307.2,209.1c2.1,1.2,5.5,1.2,7.6,0c2.1-1.2,2.1-3.2,0-4.4c-2.1-1.2-5.5-1.2-7.6,0
						C305.1,206,305.1,207.9,307.2,209.1z"/>
					<path class="st1" d="M315,207.3c0,0.1,0,0.1-0.1,0.2c-0.2,0.3-0.5,0.7-1,0.9c-1.6,0.8-4.1,0.8-5.7,0c-0.5-0.3-0.9-0.6-1-0.9
						c0-0.1,0-0.1-0.1-0.2c-0.2-0.7,0.1-1.3,1.1-1.8c1.6-0.8,4.1-0.8,5.7,0C314.8,206,315.2,206.7,315,207.3z"/>
				</g>
				<path class="st2" d="M314.9,207.5c-0.2,0.3-0.5,0.7-1,0.9c-1.6,0.8-4.1,0.8-5.7,0c-0.5-0.3-0.9-0.6-1-0.9c0.2-0.3,0.5-0.7,1-0.9
					c1.6-0.8,4.1-0.8,5.7,0C314.4,206.8,314.7,207.1,314.9,207.5z"/>
				<path class="st22" d="M314.9,207.5c-0.2,0.3-0.5,0.7-1,0.9c-1.6,0.8-4.1,0.8-5.7,0c-0.5-0.3-0.9-0.6-1-0.9
					c0-1.2,1.7-2.1,3.9-2.1C313.2,205.4,314.9,206.3,314.9,207.5z"/>
				<path class="st7" d="M308.6,208c0.3,0.2,0.6,0.4,1,0.5c0.4,0.1,0.8,0.2,1.2,0.2c0.2,0,0.5,0,0.7-0.1c0.2-0.1,0.4-0.1,0.5-0.3
					c0.1-0.2,0-0.4-0.1-0.5c-0.1-0.1-0.3-0.1-0.5-0.2c-0.2,0-0.4,0-0.6,0c-0.6,0-1.2-0.1-1.7-0.4c-0.3-0.1-0.5-0.3-0.7-0.5
					c-0.3-0.2-0.3,0.2-0.3,0.5C308.1,207.5,308.4,207.8,308.6,208z"/>
				<path class="st7" d="M312.6,207.6c-0.1,0.1-0.2,0.2-0.2,0.3c0,0.2,0.1,0.3,0.2,0.4c0.1,0.1,0.3,0.1,0.5,0c0.1,0,0.2-0.1,0.3-0.1
					c0.1-0.1,0.2-0.2,0.2-0.3c0-0.2-0.1-0.4-0.3-0.4C313,207.5,312.8,207.5,312.6,207.6z"/>
			</g>
		</g>
		<g>
			<g>
				<path class="st1" d="M308.9,200.2c0-0.4-0.3-0.8-0.8-1.2l-8.2-4.7c-1.1-0.6-2.9-0.6-4,0l-11.1,6.4c-0.6,0.3-0.8,0.7-0.8,1.2
					c0,0.4,0,2.4,0,2.8c0,0.4,0.3,0.8,0.8,1.2l8.2,4.7c1.1,0.6,2.9,0.6,4,0l11.1-6.4c0.6-0.3,0.8-0.8,0.8-1.2
					C308.9,202.5,308.9,200.6,308.9,200.2z"/>
				<path class="st2" d="M292.9,207.7l-8.2-4.7c-1.1-0.6-1.1-1.7,0-2.3l11.1-6.4c1.1-0.6,2.9-0.6,4,0l8.2,4.7c1.1,0.6,1.1,1.7,0,2.3
					l-11.1,6.4C295.8,208.4,294,208.4,292.9,207.7z"/>
				<path class="st3" d="M294.9,208.2v2.8c-0.7,0-1.5-0.2-2-0.5l-8.2-4.7c-0.6-0.3-0.8-0.7-0.8-1.2v-2.8c0,0,0-0.1,0-0.1
					c-0.1,0.5,0.2,1,0.8,1.3l8.2,4.7C293.5,208.1,294.2,208.2,294.9,208.2z"/>
			</g>
			<g>
				<g>
					<path class="st14" d="M303.1,200.7L303.1,200.7v-2.4h-1.5c-0.2-0.1-0.4-0.3-0.6-0.4c-2.8-1.6-7.3-1.6-10.1,0
						c-0.2,0.1-0.4,0.3-0.6,0.4h-1.5v2.4h0c0,1.1,0.7,2.2,2.1,3c2.8,1.6,7.3,1.6,10.1,0C302.5,202.9,303.2,201.8,303.1,200.7z"/>
					<path class="st12" d="M291,201.2c2.8,1.6,7.3,1.6,10.1,0c2.8-1.6,2.8-4.2,0-5.8c-2.8-1.6-7.3-1.6-10.1,0
						C288.2,197,288.2,199.6,291,201.2z"/>
					<path class="st1" d="M301.7,198.7c0,0.1,0,0.1-0.1,0.2c-0.2,0.6-0.7,1.1-1.6,1.6c-2.2,1.2-5.9,1.2-8.1,0
						c-0.9-0.4-1.4-1-1.6-1.6c0-0.1,0-0.1-0.1-0.2c-0.2-0.9,0.3-1.8,1.6-2.5c2.2-1.2,5.9-1.2,8.1,0
						C301.4,196.9,301.9,197.8,301.7,198.7z"/>
					<path class="st1" d="M301.7,198.7c0,0.1,0,0.1-0.1,0.2c-0.2,0.6-0.7,1.1-1.6,1.6c-2.2,1.2-5.9,1.2-8.1,0
						c-0.9-0.4-1.4-1-1.6-1.6c0-0.1,0-0.1-0.1-0.2c-0.2-0.9,0.3-1.8,1.6-2.5c2.2-1.2,5.9-1.2,8.1,0
						C301.4,196.9,301.9,197.8,301.7,198.7z"/>
					<path class="st2" d="M301.6,198.8c-0.2,0.6-0.7,1.1-1.6,1.6c-2.2,1.2-5.9,1.2-8.1,0c-0.9-0.4-1.4-1-1.6-1.6
						c0.2-0.6,0.7-1.1,1.6-1.6c2.2-1.2,5.9-1.2,8.1,0C300.9,197.7,301.4,198.2,301.6,198.8z"/>
				</g>
				<path class="st22" d="M301.6,198.8c-0.2,0.6-0.7,1.1-1.6,1.6c-2.2,1.2-5.9,1.2-8.1,0c-0.9-0.4-1.4-1-1.6-1.6c0-1.7,2.5-3,5.6-3
					C299.1,195.8,301.6,197.1,301.6,198.8z"/>
				<path class="st7" d="M292.5,199.6c0.4,0.3,0.9,0.6,1.4,0.7c0.6,0.2,1.2,0.3,1.8,0.3c0.3,0,0.7,0,1-0.1c0.3-0.1,0.6-0.2,0.8-0.5
					c0.1-0.3,0-0.6-0.2-0.8c-0.2-0.2-0.5-0.2-0.8-0.2c-0.3,0-0.5,0-0.8,0c-0.9,0-1.7-0.1-2.5-0.5c-0.4-0.2-0.7-0.5-1.1-0.7
					c-0.5-0.3-0.5,0.3-0.4,0.7C291.8,198.9,292.1,199.3,292.5,199.6z"/>
				<path class="st7" d="M298.3,199.1c-0.1,0.1-0.3,0.2-0.3,0.4c0,0.2,0.1,0.5,0.3,0.6c0.2,0.1,0.5,0.1,0.7,0.1
					c0.2,0,0.3-0.1,0.4-0.2c0.1-0.1,0.2-0.2,0.2-0.4c0-0.3-0.2-0.5-0.5-0.6C298.9,198.8,298.5,198.9,298.3,199.1z"/>
			</g>
		</g>
		<g>
			<path class="st14" d="M321.2,182.6l-22-12.7c-3.3-1.9-8.8-1.9-12.1,0l-3,1.8c-1.7,1-2.5,2.2-2.5,3.5c0,0.4,0,1.8,0,2.2
				c0,1.3,0.8,2.5,2.5,3.5l22,12.7c3.3,1.9,8.8,1.9,12.1,0l3-1.8c1.7-1,2.5-2.2,2.5-3.5c0-0.4,0-1.8,0-2.2
				C323.7,184.8,322.9,183.6,321.2,182.6z M301.1,179.7c-2.8,1.6-7.3,1.6-10.1,0c-0.9-0.5-1.5-1.1-1.8-1.8c0.3-0.7,0.9-1.3,1.8-1.8
				c2.8-1.6,7.3-1.6,10.1,0c0.9,0.5,1.5,1.1,1.8,1.8C302.6,178.6,302,179.2,301.1,179.7z M307.2,185.5c2.1-1.2,5.5-1.2,7.6,0
				c0.6,0.3,1,0.7,1.2,1.1c-0.3,0.4-0.7,0.8-1.2,1.1c-2.1,1.2-5.5,1.2-7.6,0c-0.6-0.3-1-0.7-1.2-1.1
				C306.3,186.2,306.7,185.8,307.2,185.5z"/>
			<path class="st8" d="M307.2,185.5c2.1-1.2,5.5-1.2,7.6,0c0.6,0.3,1,0.7,1.2,1.1c0.7-1.1,0.3-2.4-1.2-3.3c-2.1-1.2-5.5-1.2-7.6,0
				c-1.5,0.9-1.9,2.2-1.2,3.3C306.3,186.2,306.7,185.8,307.2,185.5z"/>
			<path class="st8" d="M291,176.1c2.8-1.6,7.3-1.6,10.1,0c0.9,0.5,1.5,1.2,1.8,1.8c0.7-1.4,0.1-2.9-1.8-4c-2.8-1.6-7.3-1.6-10.1,0
				c-1.9,1.1-2.5,2.6-1.8,4C289.5,177.3,290.1,176.6,291,176.1z"/>
			<path class="st10" d="M321.2,182.6l-22-12.7c-3.3-1.9-8.8-1.9-12.1,0l-3,1.8c-3.3,1.9-3.3,5.1,0,7l22,12.7
				c3.3,1.9,8.8,1.9,12.1,0l3-1.8C324.6,187.7,324.6,184.5,321.2,182.6z M301.1,179.7c-2.8,1.6-7.3,1.6-10.1,0
				c-2.8-1.6-2.8-4.2,0-5.8c2.8-1.6,7.3-1.6,10.1,0C303.8,175.5,303.8,178.1,301.1,179.7z M314.9,187.7c-2.1,1.2-5.5,1.2-7.6,0
				c-2.1-1.2-2.1-3.2,0-4.4c2.1-1.2,5.5-1.2,7.6,0C317,184.5,317,186.5,314.9,187.7z"/>
			<path class="st12" d="M321.2,182.6l-22-12.7c-3.3-1.9-8.8-1.9-12.1,0l-3,1.8c-3.3,1.9-3.3,5.1,0,7l22,12.7
				c3.3,1.9,8.8,1.9,12.1,0l3-1.8C324.6,187.7,324.6,184.5,321.2,182.6z M301.1,179.7c-2.8,1.6-7.3,1.6-10.1,0
				c-2.8-1.6-2.8-4.2,0-5.8c2.8-1.6,7.3-1.6,10.1,0C303.8,175.5,303.8,178.1,301.1,179.7z M314.9,187.7c-2.1,1.2-5.5,1.2-7.6,0
				c-2.1-1.2-2.1-3.2,0-4.4c2.1-1.2,5.5-1.2,7.6,0C317,184.5,317,186.5,314.9,187.7z"/>
		</g>
		<g>
			<g>
				<path class="st12" d="M252.7,139.1L252.7,139.1l-33-19.1c-0.4-0.2-0.9-0.2-1.4,0.1l-21.7,12.5c-1.1,0.6-2,2.2-2,3.5l0,1.9
					c0,0.6,0.2,1.1,0.6,1.3l33.2,19.2c0.4,0.2,0.9,0.2,1.4-0.1l21.7-12.5c1.1-0.6,2-2.2,2-3.5v-1.9
					C253.5,139.8,253.2,139.3,252.7,139.1z"/>
				<path class="st19" d="M227.6,148.6l10.5-6.1c0.2-0.1,0.6-0.1,0.8,0l0.5,0.3c0.2,0.1,0.2,0.3,0,0.5l-10.5,6.1
					c-0.2,0.1-0.6,0.1-0.8,0l-0.5-0.3C227.4,148.9,227.4,148.7,227.6,148.6z"/>
				<path class="st19" d="M225.1,147l7.6-4.4c0.2-0.1,0.6-0.1,0.8,0l0.5,0.3c0.2,0.1,0.2,0.3,0,0.5l-7.6,4.4c-0.2,0.1-0.6,0.1-0.8,0
					l-0.5-0.3C224.9,147.3,224.9,147.1,225.1,147z"/>
				<path class="st13" d="M228.4,158.6C228.4,158.6,228.4,158.6,228.4,158.6l-33.3-19.2c-0.4-0.2-0.6-0.7-0.6-1.3v-1.9
					c0-0.6,0.2-1.2,0.5-1.9l33.2,19.2c-0.3,0.6-0.5,1.3-0.5,1.9v1.9C227.7,158,228,158.4,228.4,158.6z"/>
				<path class="st21" d="M227.7,157.3l0-1.9c0-1.3,0.9-2.9,2-3.5l21.7-12.5c1.1-0.6,2-0.1,2,1.2v1.9c0,1.3-0.9,2.9-2,3.5
					l-21.7,12.5C228.6,159.1,227.7,158.6,227.7,157.3z"/>
			</g>
			<g>
				<path class="st10" d="M250.2,164.9c-1.2-0.7-1.9-1.9-1.9-3.3v-0.2c0-1.4-0.7-2.6-1.9-3.3l-11.1-6.3v1.1l10.6,6.1
					c0.9,0.5,1.4,1.5,1.4,2.5v0.2c0,1.7,0.9,3.2,2.4,4.1l8.4,4.9v-1.1L250.2,164.9z"/>
				<path class="st14" d="M250.2,164.9c-1.2-0.7-1.9-1.9-1.9-3.3v-0.2c0-1.4-0.7-2.6-1.9-3.3l-11.1-6.3v1.1l10.6,6.1
					c0.9,0.5,1.4,1.5,1.4,2.5v0.2c0,1.7,0.9,3.2,2.4,4.1l8.4,4.9v-1.1L250.2,164.9z"/>
				<path class="st12" d="M258.1,169.5l-7.9-4.6c-1.2-0.7-1.9-1.9-1.9-3.3l0-0.2c0-1.4-0.7-2.6-1.9-3.3l-11.1-6.3l11.4-6.6l11.1,6.5
					c1.2,0.7,1.9,1.9,1.9,3.3l0,0c0,1.4,0.7,2.6,1.9,3.3l7.9,4.6L258.1,169.5z"/>
				<g>
					<path class="st19" d="M259.9,159.3c-1.2-0.7-1.9-1.9-1.9-3.3v-0.2c0-1.4-0.7-2.6-1.9-3.3l-11.1-6.3l-0.8,0.4l11.1,6.3
						c1.2,0.7,1.9,1.9,1.9,3.3v0.2c0,1.4,0.7,2.6,1.9,3.3l7.9,4.6l0.8-0.4L259.9,159.3z"/>
					<path class="st19" d="M256.3,161.4c-1.2-0.7-1.9-1.9-1.9-3.3v-0.2c0-1.4-0.7-2.6-1.9-3.3l-11.1-6.3l-0.8,0.4l11.1,6.3
						c1.2,0.7,1.9,1.9,1.9,3.3v0.2c0,1.4,0.7,2.6,1.9,3.3l7.9,4.6l0.8-0.4L256.3,161.4z"/>
					<path class="st19" d="M252.7,163.4c-1.2-0.7-1.9-1.9-1.9-3.3V160c0-1.4-0.7-2.6-1.9-3.3l-11.1-6.3l-0.8,0.4l11.1,6.3
						c1.2,0.7,1.9,1.9,1.9,3.3v0.2c0,1.4,0.7,2.6,1.9,3.3l7.9,4.6l0.8-0.4L252.7,163.4z"/>
				</g>
				<polygon class="st10" points="269.5,164 258.1,170.5 258.1,169.5 269.5,162.9 				"/>
				<polygon class="st14" points="269.5,164 258.1,170.5 258.1,169.5 269.5,162.9 				"/>
			</g>
			<g>
				<path class="st3" d="M257.1,169.8l13.1-7.5c0.9-0.5,2.2-0.5,3.1,0l4.2,2.4c0.4,0.2,0.6,0.6,0.6,0.9c0,0.1,0,0.7,0,0.8
					c0,0.3-0.2,0.6-0.6,0.9l-13.1,7.5c-0.9,0.5-2.2,0.5-3.1,0l-4.2-2.4c-0.4-0.2-0.6-0.5-0.6-0.9c0-0.1,0-0.7,0-0.8
					C256.4,170.3,256.7,170,257.1,169.8z"/>
				<path class="st1" d="M277.4,166.5l-13.1,7.5c-0.9,0.5-2.2,0.5-3.1,0l-4.2-2.4c-0.9-0.5-0.9-1.3,0-1.8l13.1-7.5
					c0.9-0.5,2.2-0.5,3.1,0l4.2,2.4C278.3,165.2,278.3,166,277.4,166.5z"/>
				<g>
					<path class="st12" d="M276,165.1l-3.5-2c-0.3-0.2-0.9-0.2-1.2,0l-0.4,0.2c-0.3,0.2-0.3,0.5,0,0.7l3.5,2c0.3,0.2,0.9,0.2,1.2,0
						l0.4-0.2C276.3,165.6,276.3,165.3,276,165.1z"/>
					<path class="st12" d="M272.9,166.9l-3.5-2c-0.3-0.2-0.9-0.2-1.2,0l-0.4,0.2c-0.3,0.2-0.3,0.5,0,0.7l3.5,2
						c0.3,0.2,0.9,0.2,1.2,0l0.4-0.2C273.2,167.4,273.2,167.1,272.9,166.9z"/>
					<path class="st12" d="M269.8,168.7l-3.5-2c-0.3-0.2-0.9-0.2-1.2,0l-0.4,0.2c-0.3,0.2-0.3,0.5,0,0.7l3.5,2
						c0.3,0.2,0.9,0.2,1.2,0l0.4-0.2C270.2,169.2,270.2,168.9,269.8,168.7z"/>
					<path class="st12" d="M266.8,170.4l-3.5-2c-0.3-0.2-0.9-0.2-1.2,0l-0.4,0.2c-0.3,0.2-0.3,0.5,0,0.7l3.5,2
						c0.3,0.2,0.9,0.2,1.2,0l0.4-0.2C267.1,170.9,267.1,170.6,266.8,170.4z"/>
					<path class="st12" d="M263.7,172.2l-3.5-2c-0.3-0.2-0.9-0.2-1.2,0l-0.4,0.2c-0.3,0.2-0.3,0.5,0,0.7l3.5,2
						c0.3,0.2,0.9,0.2,1.2,0l0.4-0.2C264,172.7,264,172.4,263.7,172.2z"/>
				</g>
			</g>
		</g>
		<g>
			<path class="st1" d="M536.6,150.8L351.6,44c-1.5-0.9-3.4-1.3-5.4-1.3c-2,0-3.9,0.5-5.4,1.3l-90.3,52.2c-1.9,1.1-3.1,2.9-3.1,4.7
				v2.9c0,1.9,1.1,3.6,3.1,4.8l2.1,1.2l182.8,105.6c0.4,0.2,0.8,0.4,1.2,0.6c0.1,0.1,0.2,0.1,0.4,0.1c0.1,0,0.2,0.1,0.3,0.1
				c0.2,0.1,0.4,0.1,0.6,0.2c0.2,0.1,0.4,0.1,0.7,0.1c0.2,0,0.5,0.1,0.7,0.1c0.5,0.1,1,0.1,1.6,0.1c2,0,3.9-0.5,5.4-1.3l88.2-50.9
				l2.1-1.2c1.9-1.1,3.1-2.9,3.1-4.7v-2.9C539.6,153.6,538.5,151.9,536.6,150.8z M284.1,100l3-1.8c3.3-1.9,8.8-1.9,12.1,0l22,12.7
				c0.2,0.1,0.4,0.3,0.6,0.4c0.1,0.1,0.1,0.1,0.2,0.2c0.6,0.5,1,1,1.3,1.5v0c0,0,0,0.1-0.1,0.1c-0.4,0.7-1.1,1.4-2.1,1.9l-3,1.8
				c-3.3,1.9-8.8,1.9-12.1,0l-22-12.7c-0.3-0.1-0.5-0.3-0.7-0.5c-0.1-0.1-0.2-0.2-0.3-0.2c-0.1-0.1-0.2-0.2-0.3-0.2
				c-0.3-0.3-0.6-0.7-0.8-1c0,0,0-0.1-0.1-0.1v0C282.4,101.3,283.1,100.6,284.1,100z"/>
			<path class="st3" d="M440.7,213.8v2.9c-2,0-3.8-0.5-5.3-1.3L252.6,109.7l-2.1-1.2c-1.9-1.1-3.1-2.9-3.1-4.8v-2.9
				c0,1.9,1.1,3.6,3.1,4.8l2.1,1.2l182.8,105.6C436.8,213.3,438.7,213.7,440.7,213.8z"/>
			<path class="st2" d="M536.6,150.8L351.6,44c-1.5-0.9-3.4-1.3-5.4-1.3c-2,0-3.9,0.5-5.4,1.3l-90.3,52.2c-1.9,1.1-3.1,2.9-3.1,4.7
				s1.1,3.6,3.1,4.8l2.1,1.2l182.8,105.6c0.4,0.2,0.8,0.4,1.2,0.6c0,0,0,0,0,0c0.2,0.1,0.3,0.1,0.5,0.2c0,0,0.1,0,0.1,0
				c0.1,0,0.1,0,0.2,0c0.1,0.1,0.3,0.1,0.5,0.1c0.1,0,0.2,0.1,0.3,0.1c0,0,0.1,0,0.1,0c0.1,0,0.2,0.1,0.4,0.1c0.2,0,0.4,0.1,0.6,0.1
				c0.2,0,0.4,0.1,0.7,0.1h0c0.2,0,0.3,0,0.5,0c0.1,0,0.2,0,0.2,0h0.1c2,0,3.9-0.5,5.4-1.3l88.2-50.9l2.1-1.2
				c1.9-1.1,3.1-2.9,3.1-4.7C539.6,153.6,538.5,151.9,536.6,150.8z M323.7,111.9c0,0.1,0,0.1,0,0.2c0,0.3-0.2,0.7-0.3,1v0
				c0,0,0,0.1-0.1,0.1c-0.4,0.7-1.1,1.4-2.1,1.9l-3,1.8c-3.3,1.9-8.8,1.9-12.1,0l-22-12.7c-0.3-0.1-0.5-0.3-0.7-0.5
				c-0.1-0.1-0.2-0.2-0.3-0.2c-0.1-0.1-0.2-0.2-0.3-0.2c-0.3-0.3-0.6-0.7-0.8-1c0,0,0-0.1-0.1-0.1v0c-0.2-0.3-0.3-0.7-0.3-1
				c0,0,0-0.1,0-0.2c-0.1-0.6,0-1.1,0.3-1.7c0.1-0.2,0.2-0.3,0.3-0.5c0.4-0.6,1-1.1,1.9-1.6l3-1.8c3.3-1.9,8.8-1.9,12.1,0l22,12.7
				C323,109.1,323.8,110.5,323.7,111.9z"/>
			<path class="st7" d="M446.4,210.6c-3.5,2-7.8,2-11.4,0L252.6,106.9l182.8,105.6c0.4,0.2,0.8,0.4,1.2,0.6c0,0,0,0,0,0
				c0.2,0.1,0.3,0.1,0.5,0.2c0,0,0.1,0,0.1,0c0.1,0,0.1,0,0.2,0c0.1,0.1,0.3,0.1,0.5,0.1c0.1,0,0.2,0.1,0.3,0.1c0,0,0.1,0,0.1,0
				c0.1,0,0.2,0.1,0.4,0.1c0.2,0,0.4,0.1,0.6,0.1c0.2,0,0.4,0.1,0.7,0.1h0c0.2,0,0.3,0,0.5,0c0.1,0,0.2,0,0.2,0h0.1
				c2,0,3.9-0.5,5.4-1.3l88.2-50.9L446.4,210.6z"/>
			<path class="st12" d="M459.5,186.2l36.3-21c1.2-0.7,3.1-0.7,4.3,0l2.2,1.3c1.2,0.7,1.2,1.8,0,2.5L466,190c-1.2,0.7-3.1,0.7-4.3,0
				l-2.2-1.3C458.3,188,458.3,186.9,459.5,186.2z"/>
			<path class="st3" d="M323.7,111.9c0,0.1,0,0.1,0,0.2c0,0.3-0.2,0.7-0.3,1c-0.3-0.5-0.7-1-1.3-1.5c-0.1-0.1-0.1-0.1-0.2-0.2
				c-0.2-0.1-0.4-0.3-0.6-0.4l-22-12.7c-3.3-1.9-8.8-1.9-12.1,0l-3,1.8c-1,0.6-1.7,1.3-2.1,2.1c-0.2-0.3-0.3-0.7-0.3-1
				c0,0,0-0.1,0-0.2c-0.1-0.6,0-1.1,0.3-1.7c0.1-0.2,0.2-0.3,0.3-0.5c0.4-0.6,1-1.1,1.9-1.6l3-1.8c3.3-1.9,8.8-1.9,12.1,0l22,12.7
				C323,109.1,323.8,110.5,323.7,111.9z"/>
			<path class="st1" d="M293.2,94c-2.2,0-4.4,0.5-6,1.5l-3,1.8c-0.8,0.5-1.5,1-1.9,1.6c-0.1,0.1-0.2,0.3-0.3,0.5
				c-0.3,0.5-0.4,1.1-0.3,1.7c0,0.1,0,0.1,0,0.2c0,0.3,0.2,0.7,0.3,1c0.4-0.8,1.1-1.5,2.1-2.1l3-1.8c1.7-1,3.9-1.5,6-1.5V94z"/>
		</g>
	</g>
	<g id="Screwdriver">
		<path class="st23" d="M314.9,392.8c4.5-2.6,8.1-0.5,8.1,4.7c0,5.2-3.6,11.5-8.1,14.1c-4.5,2.6-8.1,0.5-8.1-4.7
			C306.7,401.7,310.4,395.4,314.9,392.8z"/>
		<path class="st24" d="M229.7,331.8L229.7,331.8c-2.4-1.6-5.8-1.6-9.6,0.6c-7.1,4.1-12.9,14.1-12.9,22.3c0,4.5,1.8,7.6,4.5,8.7l0,0
			c5.9,3.3,13.2,0.1,13.2,0.1l10.3-20.6C235.3,337.5,233.1,333.8,229.7,331.8z"/>
		<path class="st25" d="M222.2,353.4c-8.8,0.3-13.4-6.3-13.5-6.3c-0.9,2.6-1.4,5.2-1.4,7.7c0,4.5,1.8,7.6,4.5,8.7l0,0
			c4.9,2.8,10.8,1,12.6,0.3c0.2-0.1,0.4-0.2,0.6-0.2l3.3-6.6L222.2,353.4z"/>
		<path class="st12" d="M340.6,409.7L340.6,409.7c0,0-18-16.3-19.9-17.4c-1.9-1.1-83.7-48.3-85.3-49.3c0,0,0,0,0,0c0,0,0,0,0,0l0,0
			c-1.5-0.8-3.5-0.7-5.7,0.6c-4.5,2.6-8.1,8.9-8.1,14.1c0,2.6,0.9,4.4,2.4,5.3l0,0c0,0,0,0,0,0c0,0,0,0,0,0
			c0.4,0.2,81.8,47.2,85.3,49.3c3.5,2,25,8.5,25,8.5v0c0.8,0.4,1.9,0.3,3.1-0.4c2.5-1.4,4.5-4.9,4.5-7.8
			C341.7,411.2,341.3,410.2,340.6,409.7z"/>
		<path class="st25" d="M341.7,412.5c0-1.3-0.4-2.3-1.1-2.8c0,0-16.7-15.1-19.6-17.2c-1.5-1.1-3.7-1.1-6.1,0.3
			c-4.5,2.6-8.1,8.9-8.1,14.1c0,2.6,0.9,4.4,2.4,5.3c0,0,0,0,0,0c3.5,2,25,8.5,25,8.5v0c0.8,0.4,1.9,0.3,3.1-0.4
			C339.7,418.9,341.7,415.4,341.7,412.5z"/>
		<path class="st2" d="M268.5,388.7c-1.5-0.8-2.4-2.7-2.4-5.3c0-5.2,3.6-11.5,8.1-14.1c2.2-1.3,4.3-1.4,5.7-0.6c0,0,4.7,1.9,20,9.9
			c15.3,8,12.5,8.8,12.5,8.8l-1.1-0.6c-1.5-0.8-3.5-0.7-5.7,0.6c-4.5,2.6-8.1,8.9-8.1,14.1c0,2.6,0.9,4.4,2.4,5.3l1.5,0.8
			c0,0-2,0.6-12.5-5.5C278.3,396.1,268.5,388.7,268.5,388.7z"/>
		<path class="st13" d="M332.7,417.7c0-2.9,2-6.4,4.5-7.8c2.5-1.4,4.5-0.3,4.5,2.6c0,2.9-2,6.4-4.5,7.8S332.7,420.6,332.7,417.7z"/>
		<path class="st2" d="M389.2,444.8c0,0.2-0.1,0.4-0.3,0.5c-0.1,0-0.1,0-0.2,0v0c-0.4-0.1-6.5-2.4-8.4-3.2c-0.3-0.1-0.4-0.2-0.5-0.2
			l-43.6-25.2c-0.2-0.1-0.4-0.4-0.4-0.9s0.2-0.9,0.4-1.3c0.2-0.4,0.6-0.8,1-1c0.4-0.2,0.7-0.2,0.9-0.1l43.6,25.2
			c0.2,0.1,0.7,0.4,1.2,0.8c2.1,1.6,6,4.9,6.2,5.2l0,0C389.2,444.7,389.2,444.7,389.2,444.8z"/>
		<path class="st1" d="M389.2,444.8c0,0.2-0.1,0.4-0.3,0.5c-0.1,0-0.1,0-0.2,0v0c-0.4-0.1-6.5-2.4-8.4-3.2c0.6-0.5,1.8-0.2,2.9,0.3
			c1.3,0.6,5.2,2.7,5.4,2.4c0.2-0.3-2.6-1.9-4.2-3.1c-1.7-1.2-2-2.2-1.6-2.3c2.1,1.6,6,4.9,6.2,5.2l0,0
			C389.2,444.7,389.2,444.7,389.2,444.8z"/>
		<path class="st26" d="M337.7,414c0,0,43.4,25,44.1,25.4c0.6,0.5,0.6,1.4,3.6,3.2c2.8,1.8,0.6,0.8-2.5-1.3c-0.7-0.5-0.9-1.5-1.7-2
			c-3.6-2.1-44.4-24.5-44.4-24.5S337.2,414.1,337.7,414z"/>
	</g>
	<g id="Gears_4_">
		<path id="XMLID_12_" class="st27" d="M223.3,185.9l-3.2,0.8c-0.2,0.1-0.3,0.3-0.3,0.5c0.2,0.5,0.3,1.1,0.4,1.6
			c0,0.2,0.2,0.5,0.4,0.6l1.2,0.6l1.7-4.2C223.5,185.8,223.4,185.8,223.3,185.9z M200,186.2c0.2-0.1,0.5-0.1,0.8-0.1
			c3.6-0.5,8.4,1.5,10.7,4.4c0.2,0.2,0.3,0.4,0.5,0.6c3-0.8,3.8-3.3,1.7-6c-2.2-2.9-7-4.9-10.7-4.4
			C199.6,181.1,198.3,183.5,200,186.2z M195.4,174.2l-1.7,4.2l1.2,0.4c0.2,0.1,0.5,0,0.7-0.1c0.4-0.3,0.9-0.6,1.4-0.9
			c0.2-0.1,0.3-0.3,0.2-0.5l-1.7-2.8C195.4,174.3,195.4,174.3,195.4,174.2L195.4,174.2z M187.8,183l-1,2.3l0,0c0,0,0,0.1,0,0.2
			c0,0,0,0.1,0,0.1l0,0c0,0,0,0.1,0.1,0.1c0,0,0.1,0.1,0.1,0.1c0,0,0,0,0.1,0.1l2.9,1.4l-1,2.4l0,0l-0.7,1.7l0,0c0,0,0,0.1,0,0.1
			c0,0.1,0,0.1,0.1,0.2l1.7,2.1l0.7,1c0,0,0.1,0.1,0.1,0.1c0.1,0,0.1,0.1,0.2,0.1c0,0,0.1,0,0.1,0c0,0,0.1,0,0.1,0l0,0
			c0.1,0,0.1,0.1,0.2,0l3.8-0.2c0,0,0.1,0,0.1,0c0,0,0.1,0,0.1,0c0.2,0,0.4,0.1,0.5,0.2c0.7,0.6,1.4,1.1,2.2,1.6
			c0.1,0.1,0.2,0.1,0.2,0.3c0.1,0.1,0.1,0.3,0.1,0.4l-0.5,2.3c0,0,0,0.1,0,0.2l0,0c0,0,0,0.1,0,0.1s0,0,0,0c0,0,0,0,0,0
			c0,0,0.1,0.1,0.1,0.1c0,0,0.1,0.1,0.1,0.1l1.9,0.8l2,0.8l0.7,0.3c0.1,0,0.2,0,0.3,0c0.1,0,0.2-0.1,0.3-0.2l1.3-1.9
			c0-0.1,0.1-0.1,0.2-0.2c0.1-0.1,0.2-0.1,0.2-0.1c0.1,0,0.2,0,0.2,0c0.9,0.2,1.8,0.4,2.7,0.4c0.1,0,0.3,0.1,0.4,0.1
			c0.1,0.1,0.2,0.1,0.3,0.2l2.6,2.8c0.1,0.1,0.2,0.1,0.3,0.2c0.1,0.1,0.3,0.1,0.4,0.1l3.9-0.5c0.1,0,0.2-0.1,0.2-0.1l1.7-4.2l3.1,1
			c0.2,0.1,0.5,0,0.6-0.3l2.1-5.1l0.1-0.2c0,0.1-0.1,0.2-0.2,0.2c-0.1,0.1-0.3,0.1-0.4,0.1l-4.3-1.5c-0.1,0-0.1,0-0.2,0
			c-0.2,0-0.4,0.1-0.5,0.2c-0.4,0.3-0.9,0.6-1.4,0.9c-0.2,0.1-0.3,0.3-0.2,0.5l0.9,1.4l0.9,1.4c0.1,0.1,0.1,0.2,0,0.3
			c0,0.1-0.1,0.1-0.2,0.2l-3.9,0.5c-0.1,0-0.3,0-0.4-0.1c-0.1,0-0.2-0.1-0.3-0.2l-2.6-2.8c-0.1-0.1-0.2-0.1-0.3-0.2
			c-0.1-0.1-0.3-0.1-0.4-0.1c-0.9-0.1-1.8-0.2-2.7-0.4c-0.1,0-0.2,0-0.2,0c-0.2,0-0.3,0.1-0.4,0.3l-1.3,1.9
			c-0.1,0.1-0.2,0.2-0.3,0.2c-0.1,0-0.2,0-0.3,0l-1.3-0.5l-1.6-0.7l-1.7-0.7c-0.1-0.1-0.3-0.2-0.3-0.4c0-0.1,0-0.2,0-0.2l0.5-2.3
			c0-0.1,0-0.3-0.1-0.4c-0.1-0.1-0.1-0.2-0.2-0.3c-0.8-0.5-1.6-1-2.2-1.6c-0.1-0.1-0.3-0.2-0.5-0.2c-0.1,0-0.2,0-0.3,0l-3.8,0.2
			c-0.1,0-0.1,0-0.2,0c-0.2,0-0.4-0.2-0.5-0.3l-0.5-0.6l-1-1.2l-1-1.3c-0.1-0.1-0.1-0.2-0.1-0.2l0,0c0-0.1,0.1-0.1,0.2-0.2l1.7-0.4
			l1.5-0.4c0.2-0.1,0.3-0.3,0.3-0.5c-0.2-0.6-0.3-1.1-0.4-1.6c0-0.2-0.1-0.3-0.2-0.4c-0.1-0.1-0.1-0.1-0.2-0.2l-4.1-2
			c-0.2-0.1-0.3-0.3-0.2-0.6L187.8,183z"/>
		<path id="XMLID_11_" class="st14" d="M223.3,185.9l-3.2,0.8c-0.2,0.1-0.3,0.3-0.3,0.5c0.2,0.5,0.3,1.1,0.4,1.6
			c0,0.2,0.2,0.5,0.4,0.6l1.2,0.6l1.7-4.2C223.5,185.8,223.4,185.8,223.3,185.9z M200,186.2c0.2-0.1,0.5-0.1,0.8-0.1
			c3.6-0.5,8.4,1.5,10.7,4.4c0.2,0.2,0.3,0.4,0.5,0.6c3-0.8,3.8-3.3,1.7-6c-2.2-2.9-7-4.9-10.7-4.4
			C199.6,181.1,198.3,183.5,200,186.2z M195.4,174.2l-1.7,4.2l1.2,0.4c0.2,0.1,0.5,0,0.7-0.1c0.4-0.3,0.9-0.6,1.4-0.9
			c0.2-0.1,0.3-0.3,0.2-0.5l-1.7-2.8C195.4,174.3,195.4,174.3,195.4,174.2L195.4,174.2z"/>
		<path class="st14" d="M193.4,189.8c0.1,0,0.1,0,0.2,0l3.8-0.2c0.1,0,0.2,0,0.3,0l-2.2,5.3l0,0c0,0-0.1,0-0.1,0c0,0-0.1,0-0.1,0
			l-3.8,0.2c-0.1,0-0.1,0-0.2,0L193.4,189.8z"/>
		<path class="st14" d="M200.7,191.8c0.1,0.1,0.1,0.3,0.1,0.4l-0.5,2.3c0,0.1,0,0.2,0,0.2l-2.2,5.3c0-0.1,0-0.1,0-0.2l0.5-2.3
			c0-0.1,0-0.3-0.1-0.4L200.7,191.8z"/>
		<path class="st14" d="M207.5,194.6l-2.2,5.4l0,0c-0.1,0-0.2,0-0.2,0.1c-0.1,0-0.1,0.1-0.2,0.2l-1.3,1.9c-0.1,0.1-0.2,0.2-0.3,0.2
			l2.2-5.4c0.1,0,0.2-0.1,0.3-0.2l1.3-1.9C207.2,194.7,207.3,194.6,207.5,194.6z"/>
		<path class="st14" d="M218.9,193c0.1,0,0.1,0,0.2,0l4.3,1.5c0.1,0.1,0.3,0,0.4-0.1l0.1,0l0,0l-2.1,5.1c-0.1,0.2-0.3,0.3-0.6,0.3
			l-3.1-1l0.5-1.1l0,0c0-0.1,0-0.2,0-0.3l-0.9-1.4L218.9,193z"/>
		<path class="st14" d="M223.3,185.9c0.1,0,0.1-0.1,0.2-0.1l-1.7,4.2l-1.2-0.6c-0.2-0.1-0.4-0.4-0.4-0.6c-0.1-0.5-0.2-1.1-0.4-1.6
			c-0.1-0.2,0-0.4,0.3-0.5L223.3,185.9z"/>
		<path class="st14" d="M202.9,180.7c3.6-0.5,8.4,1.5,10.7,4.4c2.1,2.7,1.3,5.2-1.7,6c-0.1-0.2-0.3-0.4-0.5-0.6
			c-2.2-2.9-7-4.9-10.7-4.4c-0.3,0-0.5,0.1-0.8,0.1C198.3,183.5,199.6,181.1,202.9,180.7z"/>
		<path class="st14" d="M189.1,180c-0.1,0.2,0,0.5,0.2,0.6l4.1,2c0.1,0,0.1,0.1,0.2,0.2l-0.6,1.5l-0.6,1.4l-1.7,0.4
			c-0.1,0-0.2,0.1-0.2,0.2l0,0c0,0.1,0,0.2,0.1,0.2l1,1.3l-0.1,0.3c-0.1-0.1-0.1-0.1-0.2-0.2l-1.2-0.6l-2.9-1.4c0,0-0.1,0-0.1-0.1
			c0,0-0.1-0.1-0.1-0.1c0,0,0-0.1-0.1-0.1l0,0c0-0.1,0-0.2,0-0.3l1-2.3L189.1,180z"/>
		<path class="st14" d="M210.9,195.1c0.1,0.1,0.2,0.1,0.3,0.2l2.6,2.8c0.1,0.1,0.2,0.1,0.3,0.2l-2.2,5.3c-0.1,0-0.2-0.1-0.3-0.2
			l-2.6-2.8c-0.1-0.1-0.2-0.1-0.3-0.2L210.9,195.1z"/>
		<path class="st10" d="M200.3,194.7c0,0.1,0.1,0.3,0.3,0.4l1.7,0.7l1.6,0.7l1.3,0.5c0.1,0,0.2,0,0.3,0l-2.2,5.4c-0.1,0-0.2,0-0.3,0
			l-0.7-0.3l-2-0.8l-1.9-0.8c0,0-0.1,0-0.1-0.1c0,0-0.1-0.1-0.1-0.1c0,0,0,0,0,0c0,0,0,0,0,0s0-0.1,0-0.1l0,0L200.3,194.7z"/>
		<path class="st28" d="M200.3,194.7c0,0.1,0.1,0.3,0.3,0.4l1.7,0.7l1.6,0.7l1.3,0.5c0.1,0,0.2,0,0.3,0l-2.2,5.4c-0.1,0-0.2,0-0.3,0
			l-0.7-0.3l-2-0.8l-1.9-0.8c0,0-0.1,0-0.1-0.1c0,0-0.1-0.1-0.1-0.1c0,0,0,0,0,0c0,0,0,0,0,0s0-0.1,0-0.1l0,0L200.3,194.7z"/>
		<path class="st10" d="M190.5,186.2c0,0.1,0,0.2,0.1,0.2l1,1.3l1,1.2l0.5,0.6c0.1,0.1,0.3,0.2,0.5,0.3l-2.2,5.3l0,0
			c0,0-0.1,0-0.1,0c0,0-0.1,0-0.1,0c-0.1,0-0.1-0.1-0.2-0.1c-0.1,0-0.1-0.1-0.1-0.1l-0.7-1l-1.7-2.1c0-0.1,0-0.1-0.1-0.2
			c0,0,0-0.1,0-0.1l0,0l0.7-1.7l0,0l1-2.4L190.5,186.2z"/>
		<path class="st28" d="M190.5,186.2c0,0.1,0,0.2,0.1,0.2l1,1.3l1,1.2l0.5,0.6c0.1,0.1,0.3,0.2,0.5,0.3l-2.2,5.3l0,0
			c0,0-0.1,0-0.1,0c0,0-0.1,0-0.1,0c-0.1,0-0.1-0.1-0.2-0.1c-0.1,0-0.1-0.1-0.1-0.1l-0.7-1l-1.7-2.1c0-0.1,0-0.1-0.1-0.2
			c0,0,0-0.1,0-0.1l0,0l0.7-1.7l0,0l1-2.4L190.5,186.2z"/>
		<path id="XMLID_10_" class="st10" d="M195.4,174.2c0,0.1,0,0.2,0,0.2l1.8,2.8l-1.7-2.8C195.4,174.3,195.4,174.3,195.4,174.2
			L195.4,174.2z"/>
		<path id="XMLID_9_" class="st12" d="M195.4,174.4l1.8,2.8c0.1,0.2,0,0.4-0.2,0.5c-0.5,0.3-1,0.5-1.4,0.9c-0.2,0.1-0.5,0.2-0.7,0.1
			l-4.3-1.5c-0.2-0.1-0.5,0-0.6,0.3l-1,2.3c-0.1,0.2,0,0.5,0.2,0.6l4.1,2c0.2,0.1,0.4,0.4,0.4,0.6c0.1,0.5,0.2,1.1,0.4,1.6
			c0.1,0.2,0,0.4-0.3,0.5l-3.2,0.8c-0.2,0.1-0.3,0.3-0.2,0.4l2.4,3.1c0.1,0.2,0.5,0.3,0.7,0.3l3.8-0.2c0.2,0,0.6,0.1,0.7,0.3
			c0.7,0.6,1.5,1.1,2.2,1.6c0.2,0.1,0.3,0.4,0.3,0.6l-0.5,2.3c-0.1,0.2,0.1,0.5,0.3,0.6l4.6,1.9c0.2,0.1,0.5,0,0.6-0.2l1.3-1.9
			c0.1-0.2,0.4-0.3,0.7-0.3c0.9,0.2,1.8,0.3,2.7,0.4c0.2,0,0.6,0.2,0.7,0.3l2.6,2.8c0.2,0.2,0.5,0.3,0.7,0.3l3.9-0.5
			c0.2,0,0.3-0.2,0.2-0.4l-1.8-2.8c-0.1-0.2,0-0.4,0.2-0.5c0.5-0.2,1-0.5,1.4-0.9c0.2-0.2,0.5-0.2,0.7-0.1l4.3,1.5
			c0.2,0.1,0.5,0,0.6-0.3l1-2.3c0.1-0.2,0-0.5-0.2-0.6l-4.1-2c-0.2-0.1-0.4-0.4-0.4-0.6c-0.1-0.5-0.2-1.1-0.4-1.6
			c-0.1-0.2,0-0.4,0.3-0.5l3.2-0.8c0.2-0.1,0.3-0.2,0.2-0.4l-2.4-3.1c-0.1-0.2-0.4-0.3-0.7-0.3l-3.8,0.2c-0.2,0-0.6-0.1-0.7-0.3
			c-0.7-0.6-1.5-1.1-2.2-1.6c-0.2-0.1-0.3-0.4-0.3-0.6l0.5-2.3c0-0.2-0.1-0.5-0.3-0.6l-4.6-1.9c-0.2-0.1-0.5,0-0.6,0.2l-1.3,1.9
			c-0.1,0.2-0.4,0.3-0.7,0.3c-0.9-0.2-1.8-0.3-2.7-0.4c-0.2,0-0.6-0.2-0.7-0.3l-2.6-2.8c-0.2-0.2-0.5-0.3-0.7-0.2l-3.9,0.5
			C195.4,174.1,195.3,174.2,195.4,174.4z M213.6,185c2.3,2.9,1.1,5.7-2.5,6.2c-3.6,0.5-8.4-1.5-10.7-4.4c-2.2-2.9-1.1-5.7,2.5-6.2
			C206.6,180.2,211.4,182.1,213.6,185z"/>
	</g>
	<g id="Gears_1_">
		<path id="XMLID_4_" class="st27" d="M555.5,200.8l-0.7,2.3c0,0.2,0,0.3,0.2,0.3c0.4,0.1,0.8,0.2,1.1,0.3c0.2,0.1,0.4,0.1,0.5,0
			l0.8-0.5l-2-2.6C555.5,200.7,555.5,200.8,555.5,200.8z M547.2,215.4c0.1-0.2,0.1-0.3,0.2-0.5c1-2.4,3.9-4.7,6.6-5.1
			c0.2,0,0.4,0,0.6,0c0.6-2.1-0.7-3.6-3.1-3.2c-2.6,0.3-5.5,2.6-6.6,5C544,213.9,545,215.5,547.2,215.4z M538.2,214l2,2.6l0.7-0.6
			c0.1-0.1,0.2-0.3,0.2-0.5c-0.1-0.4-0.1-0.8,0-1.2c0-0.2-0.1-0.3-0.3-0.3l-2.4,0.1C538.2,214,538.2,214,538.2,214L538.2,214z
			 M540.9,221.8l1.1,1.4l0,0c0,0,0.1,0,0.1,0c0,0,0.1,0,0.1,0.1l0,0c0,0,0.1,0,0.1,0c0,0,0.1,0,0.1,0c0,0,0,0,0.1,0l1.9-1.3l1.1,1.5
			l0,0l0.8,1.1l0,0c0,0,0,0,0.1,0c0,0,0.1,0,0.1,0l1.9-0.3l0.9-0.1c0,0,0.1,0,0.1,0c0,0,0.1,0,0.1-0.1c0,0,0,0,0.1,0c0,0,0,0,0.1,0
			l0,0c0,0,0.1-0.1,0.1-0.1l1.3-2.4c0,0,0,0,0.1-0.1c0,0,0-0.1,0.1-0.1c0.1-0.1,0.2-0.2,0.3-0.2c0.6-0.2,1.2-0.5,1.8-0.8
			c0.1,0,0.1,0,0.2,0c0.1,0,0.2,0,0.3,0.1l1.2,1.1c0,0,0.1,0,0.1,0l0,0c0,0,0,0,0.1,0s0,0,0,0c0,0,0,0,0,0c0,0,0.1,0,0.1,0
			c0,0,0.1,0,0.1,0l1.2-0.9l1.2-1l0.4-0.3c0.1,0,0.1-0.1,0.1-0.2c0-0.1,0-0.2,0-0.3l-0.8-1.5c0,0,0-0.1,0-0.2c0-0.1,0-0.1,0-0.2
			c0-0.1,0-0.1,0.1-0.1c0.5-0.5,0.9-1,1.3-1.5c0.1-0.1,0.1-0.2,0.2-0.2c0.1,0,0.2-0.1,0.2-0.1l2.7-0.6c0.1,0,0.1-0.1,0.2-0.1
			c0.1-0.1,0.2-0.1,0.2-0.2l1.1-2.6c0-0.1,0-0.1,0-0.2l-2-2.6l1.8-1.5c0.1-0.1,0.1-0.3,0-0.4l-2.4-3.2l-0.1-0.1
			c0,0.1,0.1,0.1,0.1,0.2c0,0.1,0,0.2-0.1,0.3l-2.5,2.2c0,0-0.1,0.1-0.1,0.1c-0.1,0.1-0.1,0.3-0.1,0.4c0.1,0.4,0.1,0.8,0,1.2
			c0,0.2,0.1,0.3,0.3,0.3l1.2,0l1.2,0c0.1,0,0.1,0,0.2,0.1c0,0.1,0,0.1,0,0.2l-1.1,2.6c0,0.1-0.1,0.2-0.2,0.2
			c-0.1,0.1-0.1,0.1-0.2,0.1l-2.7,0.6c-0.1,0-0.1,0-0.2,0.1c-0.1,0.1-0.2,0.1-0.2,0.2c-0.4,0.5-0.8,1-1.2,1.5c0,0-0.1,0.1-0.1,0.1
			c0,0.1,0,0.3,0,0.4l0.8,1.5c0,0.1,0,0.2,0,0.2c0,0.1-0.1,0.2-0.1,0.2l-0.8,0.6l-1,0.8l-1,0.8c-0.1,0.1-0.2,0.1-0.3,0
			c-0.1,0-0.1,0-0.2-0.1l-1.2-1.1c-0.1-0.1-0.2-0.1-0.3-0.1c-0.1,0-0.2,0-0.2,0c-0.6,0.3-1.2,0.6-1.8,0.8c-0.1,0-0.2,0.1-0.3,0.2
			c-0.1,0-0.1,0.1-0.1,0.1l-1.3,2.4c0,0-0.1,0.1-0.1,0.1c-0.1,0.1-0.2,0.2-0.4,0.2l-0.5,0.1l-1.1,0.1l-1.1,0.1c-0.1,0-0.1,0-0.2,0
			l0,0c0,0-0.1-0.1,0-0.2l0.4-1.2l0.3-1.1c0-0.2-0.1-0.3-0.2-0.3c-0.4-0.1-0.8-0.2-1.1-0.3c-0.1,0-0.2-0.1-0.4,0
			c-0.1,0-0.1,0-0.2,0.1l-2.7,1.8c-0.1,0.1-0.3,0.1-0.4-0.1L540.9,221.8z"/>
		<path id="XMLID_3_" class="st14" d="M555.5,200.8l-0.7,2.3c0,0.2,0,0.3,0.2,0.3c0.4,0.1,0.8,0.2,1.1,0.3c0.2,0.1,0.4,0.1,0.5,0
			l0.8-0.5l-2-2.6C555.5,200.7,555.5,200.8,555.5,200.8z M547.2,215.4c0.1-0.2,0.1-0.3,0.2-0.5c1-2.4,3.9-4.7,6.6-5.1
			c0.2,0,0.4,0,0.6,0c0.6-2.1-0.7-3.6-3.1-3.2c-2.6,0.3-5.5,2.6-6.6,5C544,213.9,545,215.5,547.2,215.4z M538.2,214l2,2.6l0.7-0.6
			c0.1-0.1,0.2-0.3,0.2-0.5c-0.1-0.4-0.1-0.8,0-1.2c0-0.2-0.1-0.3-0.3-0.3l-2.4,0.1C538.2,214,538.2,214,538.2,214L538.2,214z"/>
		<path class="st14" d="M547.2,220.8c0,0,0.1-0.1,0.1-0.1l1.3-2.4c0-0.1,0.1-0.1,0.1-0.1l2.5,3.3l0,0c0,0,0,0-0.1,0.1
			c0,0,0,0-0.1,0.1l-1.3,2.4c0,0-0.1,0.1-0.1,0.1L547.2,220.8z"/>
		<path class="st14" d="M551,217c0.1,0,0.2,0,0.3,0.1l1.2,1.1c0,0,0.1,0.1,0.2,0.1l2.5,3.3c0,0-0.1,0-0.1,0l-1.2-1.1
			c-0.1-0.1-0.2-0.1-0.3-0.1L551,217z"/>
		<path class="st14" d="M555.2,213.8l2.5,3.3l0,0c0,0.1,0,0.1,0,0.2c0,0.1,0,0.1,0,0.2l0.8,1.5c0,0.1,0,0.2,0,0.3l-2.5-3.3
			c0-0.1,0-0.2,0-0.2l-0.8-1.5C555.1,214,555.1,213.9,555.2,213.8z"/>
		<path class="st14" d="M558.4,206.1c0,0,0-0.1,0.1-0.1l2.5-2.2c0.1-0.1,0.1-0.2,0.1-0.3l0,0l0,0l2.4,3.2c0.1,0.1,0.1,0.3,0,0.4
			l-1.8,1.5l-0.5-0.7l0,0c0,0-0.1-0.1-0.2-0.1l-1.2,0L558.4,206.1z"/>
		<path class="st14" d="M555.5,200.8c0-0.1,0-0.1,0-0.1l2,2.6l-0.8,0.5c-0.1,0.1-0.4,0.1-0.5,0c-0.3-0.1-0.7-0.3-1.1-0.3
			c-0.2,0-0.3-0.2-0.2-0.3L555.5,200.8z"/>
		<path class="st14" d="M544.9,211.6c1-2.4,3.9-4.7,6.6-5c2.4-0.3,3.7,1.1,3.1,3.2c-0.2,0-0.4,0-0.6,0c-2.6,0.3-5.6,2.6-6.6,5.1
			c-0.1,0.2-0.1,0.4-0.2,0.5C545,215.5,544,213.9,544.9,211.6z"/>
		<path class="st14" d="M539.5,220c0.1,0.1,0.3,0.2,0.4,0.1l2.7-1.8c0.1,0,0.1-0.1,0.2-0.1l0.7,0.9l0.7,0.9l-0.4,1.2
			c0,0.1,0,0.1,0,0.2l0,0c0,0,0.1,0,0.2,0l1.1-0.1l0.1,0.2c-0.1,0-0.1,0-0.2,0.1l-0.8,0.5l-1.9,1.3c0,0,0,0-0.1,0c0,0-0.1,0-0.1,0
			c0,0-0.1,0-0.1,0l0,0c-0.1,0-0.1,0-0.2-0.1l-1.1-1.5L539.5,220z"/>
		<path class="st14" d="M556.8,211.9c0.1-0.1,0.2-0.1,0.2-0.1l2.7-0.6c0.1,0,0.2-0.1,0.2-0.1l2.5,3.3c-0.1,0.1-0.1,0.1-0.2,0.1
			l-2.7,0.6c-0.1,0-0.2,0.1-0.2,0.1L556.8,211.9z"/>
		<path class="st10" d="M552.7,218.3c0.1,0,0.2,0,0.3,0l1-0.8l1-0.8l0.8-0.6c0.1-0.1,0.1-0.1,0.1-0.2l2.5,3.3c0,0.1-0.1,0.2-0.1,0.2
			l-0.4,0.3l-1.2,1l-1.2,0.9c0,0-0.1,0-0.1,0c0,0-0.1,0-0.1,0c0,0,0,0,0,0c0,0,0,0,0,0s0,0-0.1,0l0,0L552.7,218.3z"/>
		<path class="st28" d="M552.7,218.3c0.1,0,0.2,0,0.3,0l1-0.8l1-0.8l0.8-0.6c0.1-0.1,0.1-0.1,0.1-0.2l2.5,3.3c0,0.1-0.1,0.2-0.1,0.2
			l-0.4,0.3l-1.2,1l-1.2,0.9c0,0-0.1,0-0.1,0c0,0-0.1,0-0.1,0c0,0,0,0,0,0c0,0,0,0,0,0s0,0-0.1,0l0,0L552.7,218.3z"/>
		<path class="st10" d="M543.8,221.3c0,0,0.1,0,0.2,0l1.1-0.1l1.1-0.1l0.5-0.1c0.1,0,0.3-0.1,0.4-0.2l2.5,3.3l0,0c0,0,0,0-0.1,0
			c0,0,0,0-0.1,0c0,0-0.1,0-0.1,0.1c0,0-0.1,0-0.1,0l-0.9,0.1l-1.9,0.3c0,0-0.1,0-0.1,0c0,0-0.1,0-0.1,0l0,0l-0.8-1.1l0,0l-1.1-1.5
			L543.8,221.3z"/>
		<path class="st28" d="M543.8,221.3c0,0,0.1,0,0.2,0l1.1-0.1l1.1-0.1l0.5-0.1c0.1,0,0.3-0.1,0.4-0.2l2.5,3.3l0,0c0,0,0,0-0.1,0
			c0,0,0,0-0.1,0c0,0-0.1,0-0.1,0.1c0,0-0.1,0-0.1,0l-0.9,0.1l-1.9,0.3c0,0-0.1,0-0.1,0c0,0-0.1,0-0.1,0l0,0l-0.8-1.1l0,0l-1.1-1.5
			L543.8,221.3z"/>
		<path id="XMLID_2_" class="st10" d="M538.2,214c0,0,0.1,0.1,0.2,0.1l2.4-0.1l-2.4,0.1C538.2,214,538.2,214,538.2,214L538.2,214z"
			/>
		<path id="XMLID_1_" class="st12" d="M538.3,214l2.4-0.1c0.2,0,0.3,0.1,0.3,0.3c0,0.4,0,0.8,0,1.2c0,0.2,0,0.4-0.2,0.5l-2.5,2.2
			c-0.1,0.1-0.2,0.3,0,0.4l1.1,1.4c0.1,0.1,0.3,0.2,0.4,0.1l2.7-1.8c0.1-0.1,0.4-0.1,0.5,0c0.3,0.2,0.7,0.3,1.1,0.3
			c0.2,0,0.3,0.2,0.2,0.3l-0.7,2.3c0,0.2,0.1,0.3,0.2,0.3l2.8-0.4c0.2,0,0.4-0.2,0.4-0.3l1.3-2.4c0.1-0.1,0.3-0.3,0.4-0.4
			c0.6-0.2,1.2-0.5,1.8-0.8c0.1-0.1,0.4-0.1,0.5,0.1l1.2,1.1c0.1,0.1,0.3,0.1,0.5,0l2.9-2.2c0.1-0.1,0.2-0.3,0.1-0.5l-0.8-1.5
			c-0.1-0.1,0-0.4,0.1-0.5c0.4-0.5,0.9-1,1.2-1.5c0.1-0.1,0.3-0.3,0.5-0.3l2.7-0.6c0.2,0,0.4-0.2,0.4-0.3l1.1-2.6
			c0.1-0.2,0-0.3-0.2-0.3l-2.4,0.1c-0.2,0-0.3-0.1-0.3-0.3c0-0.4,0-0.8,0-1.2c0-0.2,0-0.4,0.2-0.5l2.5-2.2c0.1-0.1,0.1-0.3,0-0.4
			l-1.1-1.4c-0.1-0.1-0.3-0.2-0.4-0.1l-2.7,1.8c-0.1,0.1-0.4,0.1-0.5,0c-0.3-0.1-0.7-0.3-1.1-0.3c-0.2,0-0.3-0.2-0.2-0.3l0.7-2.3
			c0-0.2,0-0.3-0.2-0.3l-2.8,0.4c-0.2,0-0.4,0.2-0.4,0.3l-1.3,2.4c-0.1,0.2-0.3,0.3-0.4,0.4c-0.6,0.2-1.2,0.5-1.8,0.8
			c-0.1,0.1-0.4,0.1-0.5-0.1l-1.2-1.1c-0.1-0.1-0.3-0.1-0.5,0l-2.8,2.2c-0.1,0.1-0.2,0.3-0.1,0.5l0.7,1.5c0.1,0.2,0,0.4-0.1,0.5
			c-0.5,0.5-0.9,1-1.2,1.5c-0.1,0.1-0.3,0.3-0.5,0.3l-2.7,0.6c-0.2,0-0.3,0.2-0.4,0.4l-1.1,2.6C538.1,213.9,538.2,214,538.3,214z
			 M551.5,206.6c2.6-0.4,3.9,1.3,2.9,3.8c-1,2.4-3.9,4.7-6.6,5c-2.6,0.3-3.9-1.4-2.9-3.8C545.9,209.2,548.8,206.9,551.5,206.6z"/>
	</g>
</g>
</svg>
